<svg width="99" height="32" viewBox="0 0 99 32" fill="none" xmlns="http://www.w3.org/2000/svg">
<g opacity="0.75" clip-path="url(#clip0_2404_2032)">
<path d="M64.9274 7.84566C62.904 8.26359 60.694 11.417 60.694 11.417C60.694 11.417 62.2513 8.55804 63.3516 6.76285C64.8062 4.38825 67.2586 1.09232 63.5381 0.104491C63.4914 0.0949929 63.4355 0.11399 63.4075 0.161481C61.4307 3.5619 59.1182 7.76018 57.3838 11.6925C56.1902 14.3995 54.4558 19.3767 57.9619 20.7254C58.0179 20.7444 58.0925 20.716 58.1111 20.659C58.1111 20.6495 58.1111 20.6495 58.1204 20.64C58.5307 18.5408 59.3979 16.1662 60.3304 14.5515C61.2535 12.9558 63.6127 10.0873 64.3213 10.7427C65.748 12.0724 62.0554 15.4349 61.9995 18.1609C61.9715 19.7566 62.9599 20.9819 64.6663 21.3143C64.7316 21.3238 64.7876 21.2859 64.7969 21.2194V21.2099C64.9741 19.4242 65.4589 17.686 66.2142 16.0712C66.9322 14.504 68.247 12.7943 68.3403 11.1416C68.4708 9.08995 67.0255 7.41823 64.9274 7.84566ZM15.6466 15.5963C15.8144 15.2924 15.5533 13.5067 15.4321 13.2312C15.3295 12.9938 14.5836 13.1268 14.2012 13.1268C15.8517 9.52687 19.3485 4.28377 19.1899 3.22945C19.0687 2.42209 17.4462 1.41527 16.7376 1.63373C16.1967 1.7952 9.24053 6.03147 5.87432 8.88098C4.89523 9.70734 2.51744 11.5215 2.14445 12.5474C1.82741 13.4307 2.18175 14.599 2.64799 15.1024C3.15152 15.6438 6.48042 15.7863 8.48523 15.6533C6.4711 18.0469 7.47816 20.7065 9.99582 21.4853C10.0518 21.5043 10.117 21.4758 10.1357 21.4188C10.9469 19.5856 11.7489 17.42 12.8025 15.9288C13.9122 15.8908 15.4881 15.9003 15.6466 15.5963ZM10.0518 12.9368C10.0518 12.9368 7.27302 13.1647 5.84635 12.9178C8.37333 10.5052 11.0588 8.27309 13.8842 6.23094C12.8119 8.33958 10.0518 12.9368 10.0518 12.9368ZM26.2953 9.60286C26.5844 9.20393 27.2278 7.69369 26.8548 7.50372C26.4725 7.30425 25.251 7.55121 24.4118 7.67469C25.8291 5.50906 27.4423 3.5334 30.3609 2.71654C30.4168 2.69755 30.4541 2.65005 30.4448 2.58357C30.2676 1.02583 29.6522 -0.0379843 28.2069 9.16526e-06C26.3326 0.047501 24.7847 2.11814 23.6844 3.44792C22.351 5.07214 21.3719 6.65836 20.514 8.04513C19.6189 8.10212 17.9031 8.2256 17.7166 8.73851C17.5581 9.15644 18.5279 10.2867 19.1993 10.6192C18.0337 13.4877 15.6093 17.382 15.4694 21.3808C15.3948 23.632 16.1128 25.2182 17.5861 25.8261C17.6514 25.8451 17.7166 25.8166 17.7353 25.7596C17.7353 25.7501 17.7446 25.7406 17.7446 25.7311C18.4813 19.8516 20.2996 14.9504 22.6401 10.5052C24.0201 10.2487 25.9503 10.0683 26.2953 9.60286ZM30.5567 11.3411C30.4821 11.493 30.4541 11.5025 30.5567 11.3411C31.3866 9.63135 31.4053 7.5892 29.0088 7.38024C28.9622 7.38024 28.9156 7.39924 28.8876 7.44673C27.8059 9.85931 25.7172 13.5447 25.5121 16.8786C25.3909 18.8638 26.3606 20.222 27.8805 20.7254C27.9458 20.7444 28.0111 20.7065 28.0204 20.64C29.3259 15.6153 30.9577 10.9041 36.5432 10.1538C36.6084 10.1443 36.655 10.0873 36.6457 10.0208C35.9277 5.51856 31.8249 9.26092 30.5567 11.3411ZM42.7347 14.5895C43.891 13.9626 45.5601 12.9273 45.6347 11.0466C45.7093 9.11844 44.1987 7.50372 41.9235 7.96914C38.492 8.65302 35.62 12.5663 34.7248 15.3779C33.7178 18.5598 35.3962 21.2574 38.9023 20.7919C40.9724 20.5165 44.3759 18.9113 43.9656 16.4702C43.9563 16.4132 43.9003 16.3752 43.8444 16.3847C43.835 16.3847 43.8164 16.3942 43.8071 16.4037C42.3524 17.325 39.4897 18.5883 38.2029 17.9899C37.4197 17.6195 37.4197 16.7741 37.6901 15.8718C39.6389 15.7388 41.2428 15.4064 42.7347 14.5895ZM41.8209 10.4292C43.2103 10.0493 43.1916 11.0181 43.1916 11.2176C43.1916 12.9748 40.2077 14.2666 38.2589 14.3046C38.8277 13.0888 40.4222 10.8092 41.8209 10.4292ZM54.3439 8.40606C51.3227 6.84833 48.4041 8.786 47.9752 10.8092C47.5463 12.8323 48.8424 14.0196 49.952 15.1594C50.4742 15.6913 51.2295 16.6222 50.5581 17.3725C49.98 18.0184 48.861 17.8284 48.2643 17.4865C47.4717 17.0306 46.8003 16.3847 46.5578 15.3684C46.4273 14.8365 43.7511 18.4363 47.7327 20.355C50.008 21.4568 52.9452 20.2695 53.915 18.5788C55.4443 15.5013 53.1224 13.8676 51.5092 12.5853C50.6048 11.854 50.7912 11.1321 51.2854 10.6192C51.9568 9.9258 53.9616 10.0968 55.407 11.8065C55.4443 11.854 55.5188 11.8635 55.5748 11.816C55.5841 11.8065 55.5934 11.797 55.6028 11.7875C56.5912 10.1633 55.3417 8.90948 54.3439 8.40606Z" fill="black"/>
<path d="M88.1078 20.8393C90.1313 20.4213 92.3412 17.2679 92.3412 17.2679C91.4647 18.8826 91.0544 21.1812 94.0663 22.0646C94.1316 22.0836 94.1875 22.0456 94.2062 21.9791C94.2062 21.9696 94.2062 21.9601 94.2062 21.9506C94.2435 20.6208 94.8309 17.9708 95.7354 15.4822C97.0408 11.9298 99.0923 9.0423 95.7168 7.79801C95.6608 7.77901 95.5955 7.80751 95.5769 7.874C95.2505 8.82384 93.5348 12.4427 92.5184 14.1334C91.5766 15.7197 89.4226 18.4552 88.6114 17.9423C87.222 17.0684 88.7419 14.1334 90.122 10.98C90.6908 9.66919 90.1126 8.13045 88.8165 7.55105C88.63 7.46557 88.4435 7.40858 88.2477 7.37058C88.1824 7.36109 88.1265 7.39908 88.1171 7.46557C87.6882 9.22277 85.2265 13.3641 84.6763 17.5528C84.4153 19.5855 86.0191 21.2762 88.1078 20.8393Z" fill="black"/>
<path d="M79.9494 11.3506C79.8748 11.5121 79.8468 11.5216 79.9494 11.3506C80.7886 9.63144 80.7979 7.57029 78.3828 7.36133C78.3362 7.36133 78.2896 7.38032 78.271 7.42782C77.18 9.8594 75.0726 13.5733 74.8675 16.9262C74.7462 18.9303 75.7346 20.2981 77.2546 20.8015C77.3198 20.8205 77.3851 20.7825 77.3944 20.716C78.7092 15.6534 80.3504 10.9137 85.9731 10.1538C86.0384 10.1444 86.085 10.0874 86.0757 10.0209C85.367 5.49015 81.2362 9.261 79.9494 11.3506Z" fill="black"/>
<path d="M72.2205 19.9275C72.0434 20.8963 71.2135 21.6182 70.2437 21.6372C69.4698 21.6657 68.817 21.0578 68.7891 20.2694C68.7891 20.1554 68.7984 20.0414 68.817 19.9275C68.9942 18.9586 69.8241 18.2368 70.7939 18.2178C71.5678 18.1893 72.2205 18.7972 72.2485 19.5855C72.2485 19.6995 72.2392 19.8135 72.2205 19.9275Z" fill="black"/>
<path d="M0.298389 30.6511C0.662051 30.0907 0.717999 29.3973 0.717999 28.7894V28.1436H2.52699V30.6511H2.85335V31.7054H2.37779V31.1165H0.484883V31.7054H0V30.6511H0.298389ZM2.0048 30.6511V28.609H1.22153V28.8274C1.22153 29.4068 1.14693 30.1477 0.83922 30.6511H2.0048Z" fill="black"/>
<path d="M4.25101 28.9316C4.89442 28.9316 5.40727 29.3971 5.40727 30.0524C5.40727 30.7078 4.89442 31.1733 4.26034 31.1733C3.62626 31.1733 3.1134 30.7173 3.1134 30.0524C3.10408 29.3971 3.62626 28.9316 4.25101 28.9316ZM4.26034 30.7173C4.60535 30.7173 4.88509 30.4514 4.88509 30.0524C4.88509 29.663 4.60535 29.3876 4.26034 29.3876C3.91533 29.3876 3.63559 29.663 3.63559 30.0524C3.63559 30.4514 3.91533 30.7173 4.26034 30.7173Z" fill="black"/>
<path d="M6.85245 28.9316C7.13219 28.9316 7.45856 29.0266 7.65437 29.2451L7.42126 29.606C7.29071 29.473 7.08557 29.3781 6.88043 29.3781C6.49812 29.3781 6.24635 29.6725 6.24635 30.0429C6.24635 30.4039 6.49812 30.7078 6.89908 30.7078C7.12287 30.7078 7.35598 30.5939 7.5145 30.4324L7.71965 30.8123C7.52383 31.0213 7.19747 31.1638 6.85245 31.1638C6.16243 31.1638 5.71484 30.6698 5.71484 30.0429C5.71484 29.4446 6.1531 28.9316 6.85245 28.9316Z" fill="black"/>
<path d="M8.5787 29.4354H7.88867V28.9795H9.7909V29.4354H9.10088V31.1166H8.5787V29.4354Z" fill="black"/>
<path d="M11.1801 29.777H11.2733V29.7485C11.2733 29.4635 11.0962 29.3686 10.8817 29.3686C10.6765 29.3686 10.4714 29.454 10.2942 29.5775L10.0984 29.1976C10.2756 29.0551 10.6113 28.9316 10.919 28.9316C11.4691 28.9316 11.7862 29.2451 11.7862 29.777V31.1163H11.3013V30.9358C11.3013 30.8503 11.3106 30.7838 11.3106 30.7838H11.3013C11.1708 31.0118 10.919 31.1733 10.6392 31.1733C10.2569 31.1733 9.94922 30.9263 9.94922 30.5369C9.95854 29.891 10.7138 29.777 11.1801 29.777ZM10.7978 30.7648C11.0868 30.7648 11.2826 30.4609 11.2826 30.2044V30.1474H11.1894C10.9283 30.1474 10.4807 30.1854 10.4807 30.4894C10.4807 30.6223 10.5833 30.7648 10.7978 30.7648Z" fill="black"/>
<path d="M12.3277 28.9888H13.2974C13.7171 28.9888 14.0061 29.1787 14.0061 29.5397C14.0061 29.7391 13.9036 29.9196 13.7264 30.0051C13.9781 30.0716 14.0994 30.2805 14.0994 30.499C14.0994 30.9264 13.7544 31.1164 13.3161 31.1164H12.3184V28.9888H12.3277ZM13.1856 29.8626C13.3814 29.8626 13.4746 29.7486 13.4746 29.5777C13.4746 29.4257 13.3814 29.3307 13.1762 29.3307H12.8405V29.8626H13.1856ZM13.2229 30.765C13.456 30.765 13.5679 30.6415 13.5679 30.48C13.5679 30.309 13.4466 30.1951 13.2229 30.1951H12.8405V30.765H13.2229Z" fill="black"/>
<path d="M14.5371 28.9888H15.0313V30.1286C15.0313 30.2236 15.022 30.347 15.022 30.385H15.0313C15.0593 30.328 15.1339 30.2141 15.1898 30.1286L15.9638 28.9888H16.4673V31.1259H15.9731V29.9861C15.9731 29.9101 15.9824 29.7866 15.9824 29.7296H15.9731C15.9451 29.7866 15.8705 29.9006 15.8146 29.9861L15.0406 31.1259H14.5371V28.9888Z" fill="black"/>
<path d="M17.1294 28.9888H17.7169L18.1644 30.0906C18.2111 30.2046 18.267 30.366 18.267 30.366H18.2763C18.2763 30.366 18.3323 30.2141 18.3789 30.0906L18.8265 28.9888H19.414L19.6004 31.1259H19.0969L19.0223 29.9671C19.0223 29.8246 19.0223 29.6062 19.0223 29.6062C19.0223 29.6062 18.9664 29.7676 18.9011 29.9196L18.4908 30.8599H18.0619L17.6516 29.9196C17.5956 29.7771 17.521 29.6062 17.521 29.6062H17.5117C17.5117 29.6062 17.521 29.8246 17.5117 29.9671L17.4371 31.1259H16.9336L17.1294 28.9888Z" fill="black"/>
<path d="M21.1016 28.9888H23.0131V31.1259H22.4909V29.4447H21.6237V31.1259H21.1016V28.9888Z" fill="black"/>
<path d="M24.5889 28.9316C25.2323 28.9316 25.7452 29.3971 25.7452 30.0524C25.7452 30.7078 25.2323 31.1733 24.5982 31.1733C23.9642 31.1733 23.4513 30.7173 23.4513 30.0524C23.442 29.3971 23.9548 28.9316 24.5889 28.9316ZM24.5889 30.7173C24.9339 30.7173 25.2137 30.4514 25.2137 30.0524C25.2137 29.663 24.9339 29.3876 24.5889 29.3876C24.2439 29.3876 23.9642 29.663 23.9642 30.0524C23.9735 30.4514 24.2532 30.7173 24.5889 30.7173Z" fill="black"/>
<path d="M27.2007 28.9888H28.1705C28.5901 28.9888 28.8792 29.1787 28.8792 29.5397C28.8792 29.7391 28.7766 29.9196 28.5994 30.0051C28.8512 30.0716 28.9724 30.2805 28.9724 30.499C28.9724 30.9264 28.6274 31.1164 28.1891 31.1164H27.1914V28.9888H27.2007ZM28.0679 29.8626C28.2637 29.8626 28.357 29.7486 28.357 29.5777C28.357 29.4257 28.2637 29.3307 28.0586 29.3307H27.7229V29.8626H28.0679ZM28.1052 30.765C28.3383 30.765 28.4502 30.6415 28.4502 30.48C28.4502 30.309 28.329 30.1951 28.1052 30.1951H27.7229V30.765H28.1052Z" fill="black"/>
<path d="M30.4169 28.9316C30.6967 28.9316 31.023 29.0266 31.2188 29.2451L30.9857 29.606C30.8552 29.473 30.65 29.3781 30.4449 29.3781C30.0626 29.3781 29.8108 29.6725 29.8108 30.0429C29.8108 30.4039 30.0626 30.7078 30.4635 30.7078C30.6873 30.7078 30.9204 30.5939 31.079 30.4324L31.2841 30.8123C31.0883 31.0213 30.7619 31.1638 30.4169 31.1638C29.7269 31.1638 29.2793 30.6698 29.2793 30.0429C29.2793 29.4446 29.7269 28.9316 30.4169 28.9316Z" fill="black"/>
<path d="M32.5626 28.9316C33.1594 28.9316 33.495 29.3781 33.495 29.948C33.495 30.0145 33.4857 30.0904 33.4764 30.1569H32.0311C32.0684 30.5274 32.3388 30.7173 32.6558 30.7173C32.8703 30.7173 33.0848 30.6224 33.2526 30.4799L33.4577 30.8598C33.2433 31.0498 32.9169 31.1638 32.6185 31.1638C31.9285 31.1638 31.4902 30.6508 31.4902 30.0429C31.4902 29.3971 31.9285 28.9316 32.5626 28.9316ZM32.9635 29.7865C32.9635 29.5015 32.777 29.3306 32.5439 29.3306C32.2735 29.3306 32.087 29.511 32.0404 29.7865H32.9635Z" fill="black"/>
<path d="M33.9238 28.9889H34.418V30.1287C34.418 30.2237 34.4087 30.3472 34.4087 30.3852H34.418C34.446 30.3282 34.5206 30.2142 34.5766 30.1287L35.3505 28.9889H35.854V31.126H35.3598V29.9862C35.3598 29.9103 35.3692 29.7868 35.3692 29.7298H35.3598C35.3319 29.7868 35.2573 29.9008 35.2013 29.9862L34.4274 31.126H33.9238V28.9889ZM34.2129 28.2005V28.1436H34.6139V28.2005C34.6139 28.381 34.7537 28.4665 34.8936 28.4665C35.0335 28.4665 35.1733 28.381 35.1733 28.2005V28.1531H35.565V28.21C35.565 28.5805 35.2479 28.7894 34.8936 28.7894C34.5299 28.7799 34.2129 28.571 34.2129 28.2005Z" fill="black"/>
<path d="M37.5117 28.1528H38.64C39.1902 28.1528 39.5725 28.5423 39.5725 29.1217C39.5725 29.7011 39.1902 30.1 38.64 30.1H38.0432V31.1258H37.5117V28.1528ZM38.5374 29.6251C38.8451 29.6251 39.0223 29.4256 39.0223 29.1122C39.0223 28.8082 38.8451 28.6088 38.5374 28.6088H38.0432V29.6251H38.5374Z" fill="black"/>
<path d="M40.917 28.9316C41.5604 28.9316 42.0733 29.3971 42.0733 30.0524C42.0733 30.7078 41.5604 31.1733 40.9264 31.1733C40.2923 31.1733 39.7794 30.7173 39.7794 30.0524C39.7701 29.3971 40.283 28.9316 40.917 28.9316ZM40.917 30.7173C41.262 30.7173 41.5418 30.4514 41.5418 30.0524C41.5418 29.663 41.262 29.3876 40.917 29.3876C40.572 29.3876 40.2923 29.663 40.2923 30.0524C40.3016 30.4514 40.572 30.7173 40.917 30.7173Z" fill="black"/>
<path d="M43.5087 28.9316C43.7884 28.9316 44.1148 29.0266 44.3106 29.2451L44.0775 29.606C43.947 29.473 43.7418 29.3781 43.5367 29.3781C43.1544 29.3781 42.9026 29.6725 42.9026 30.0429C42.9026 30.4039 43.1544 30.7078 43.5553 30.7078C43.7791 30.7078 44.0122 30.5939 44.1708 30.4324L44.3759 30.8123C44.1801 31.0213 43.8537 31.1638 43.5087 31.1638C42.8187 31.1638 42.3711 30.6698 42.3711 30.0429C42.3711 29.4446 42.8187 28.9316 43.5087 28.9316Z" fill="black"/>
<path d="M45.7196 28.9316C45.9994 28.9316 46.3257 29.0266 46.5216 29.2451L46.2885 29.606C46.1579 29.473 45.9528 29.3781 45.7476 29.3781C45.3653 29.3781 45.1135 29.6725 45.1135 30.0429C45.1135 30.4039 45.3653 30.7078 45.7663 30.7078C45.9901 30.7078 46.2232 30.5939 46.3817 30.4324L46.5868 30.8123C46.391 31.0213 46.0647 31.1638 45.7196 31.1638C45.0296 31.1638 44.582 30.6698 44.582 30.0429C44.582 29.4446 45.0203 28.9316 45.7196 28.9316Z" fill="black"/>
<path d="M46.959 28.9888H47.4532V30.1286C47.4532 30.2236 47.4439 30.347 47.4439 30.385H47.4532C47.4812 30.328 47.5558 30.2141 47.6117 30.1286L48.3857 28.9888H48.8892V31.1259H48.395V29.9861C48.395 29.9101 48.4043 29.7866 48.4043 29.7296H48.395C48.367 29.7866 48.2924 29.9006 48.2365 29.9861L47.4625 31.1259H46.959V28.9888Z" fill="black"/>
<path d="M49.4492 28.9888H49.9434V30.1286C49.9434 30.2236 49.9341 30.347 49.9341 30.385H49.9434C49.9714 30.328 50.046 30.2141 50.1019 30.1286L50.8759 28.9888H51.3794V31.1259H50.8852V29.9861C50.8852 29.9101 50.8945 29.7866 50.8945 29.7296H50.8852C50.8572 29.7866 50.7826 29.9006 50.7267 29.9861L49.9528 31.1259H49.4492V28.9888Z" fill="black"/>
<path d="M52.0317 30.5845H52.5539L52.1529 31.5628H51.752L52.0317 30.5845Z" fill="black"/>
<path d="M54.1953 28.1528H54.7268V29.3591H55.1091L55.7992 28.1528H56.3773L55.5474 29.5681V29.5776L56.4239 31.1258H55.8271L55.1184 29.8245H54.7361V31.1258H54.2046V28.1528H54.1953Z" fill="black"/>
<path d="M57.7762 29.777H57.8695V29.7485C57.8695 29.4635 57.6923 29.3686 57.4778 29.3686C57.2727 29.3686 57.0675 29.454 56.8904 29.5775L56.6946 29.1976C56.8624 29.0551 57.2074 28.9316 57.5151 28.9316C58.0653 28.9316 58.3823 29.2451 58.3823 29.777V31.1163H57.9068V30.9358C57.9068 30.8503 57.9161 30.7838 57.9161 30.7838H57.9068C57.7762 31.0118 57.5245 31.1733 57.2447 31.1733C56.8624 31.1733 56.5547 30.9263 56.5547 30.5369C56.5547 29.891 57.31 29.777 57.7762 29.777ZM57.3846 30.7648C57.6736 30.7648 57.8695 30.4609 57.8695 30.2044V30.1474H57.7762C57.5151 30.1474 57.0675 30.1854 57.0675 30.4894C57.0769 30.6223 57.1794 30.7648 57.3846 30.7648Z" fill="black"/>
<path d="M58.9512 30.5181C59.0631 30.6226 59.259 30.7651 59.4827 30.7651C59.7065 30.7651 59.8464 30.6606 59.8464 30.4801C59.8464 30.3187 59.7438 30.2142 59.5014 30.2142H59.2496V29.8437H59.4641C59.6506 29.8437 59.7905 29.7773 59.7905 29.5968C59.7905 29.4353 59.6879 29.3403 59.4827 29.3403C59.3242 29.3403 59.1657 29.3878 58.9792 29.5208L58.8114 29.1789C58.9885 29.0459 59.231 28.9414 59.5853 28.9414C59.9956 28.9414 60.322 29.1504 60.322 29.5303C60.322 29.7963 60.1821 29.9387 60.0329 30.0147V30.0242C60.2194 30.0907 60.3872 30.2522 60.3872 30.5181C60.3872 30.9646 60.0143 31.183 59.5573 31.183C59.2403 31.183 58.9419 31.05 58.7461 30.8696L58.9512 30.5181Z" fill="black"/>
<path d="M61.8598 29.777H61.953V29.7485C61.953 29.4635 61.7758 29.3686 61.5614 29.3686C61.3562 29.3686 61.1511 29.454 60.9739 29.5775L60.7781 29.1976C60.9459 29.0551 61.291 28.9316 61.5987 28.9316C62.1488 28.9316 62.4659 29.2451 62.4659 29.777V31.1163H61.981V30.9358C61.981 30.8503 61.9903 30.7838 61.9903 30.7838H61.981C61.8504 31.0118 61.5987 31.1733 61.3189 31.1733C60.9366 31.1733 60.6289 30.9263 60.6289 30.5369C60.6382 29.891 61.3935 29.777 61.8598 29.777ZM61.4681 30.7648C61.7572 30.7648 61.953 30.4609 61.953 30.2044V30.1474H61.8598C61.5987 30.1474 61.1511 30.1854 61.1511 30.4894C61.1511 30.6223 61.263 30.7648 61.4681 30.7648Z" fill="black"/>
<path d="M63.4732 30.0431L62.8019 28.9888H63.3893L63.7157 29.5682C63.7436 29.6252 63.7809 29.7011 63.7809 29.7011H63.7903C63.7903 29.7011 63.8276 29.6252 63.8555 29.5682L64.1819 28.9888H64.7694L64.098 30.0431L64.788 31.1259H64.2006L63.8369 30.5085C63.8089 30.461 63.7716 30.3945 63.7716 30.3945H63.7809C63.7809 30.3945 63.753 30.461 63.725 30.5085L63.3613 31.1259H62.7832L63.4732 30.0431Z" fill="black"/>
<path d="M66.0653 28.9316C66.3451 28.9316 66.6714 29.0266 66.8673 29.2451L66.6341 29.606C66.5036 29.473 66.2985 29.3781 66.0933 29.3781C65.711 29.3781 65.4592 29.6725 65.4592 30.0429C65.4592 30.4039 65.711 30.7078 66.112 30.7078C66.3358 30.7078 66.5689 30.5939 66.7274 30.4324L66.9325 30.8123C66.7367 31.0213 66.4104 31.1638 66.0653 31.1638C65.3753 31.1638 64.9277 30.6698 64.9277 30.0429C64.9277 29.4446 65.3753 28.9316 66.0653 28.9316Z" fill="black"/>
<path d="M67.7994 29.4354H67.1094V28.9795H69.0116V29.4354H68.3216V31.1166H67.7994V29.4354Z" fill="black"/>
<path d="M70.4008 29.777H70.494V29.7485C70.494 29.4635 70.3169 29.3686 70.1024 29.3686C69.8972 29.3686 69.6921 29.454 69.5149 29.5775L69.3191 29.1976C69.487 29.0551 69.832 28.9316 70.1397 28.9316C70.6898 28.9316 71.0069 29.2451 71.0069 29.777V31.1163H70.522V30.9358C70.522 30.8503 70.5313 30.7838 70.5313 30.7838H70.522C70.3915 31.0118 70.1397 31.1733 69.8599 31.1733C69.4776 31.1733 69.1699 30.9263 69.1699 30.5369C69.1792 29.891 69.9345 29.777 70.4008 29.777ZM70.0091 30.7648C70.2982 30.7648 70.494 30.4609 70.494 30.2044V30.1474H70.4008C70.1397 30.1474 69.6921 30.1854 69.6921 30.4894C69.6921 30.6223 69.804 30.7648 70.0091 30.7648Z" fill="black"/>
<path d="M71.5391 28.9888H72.0612V29.8151H72.9564V28.9888H73.4786V31.1259H72.9564V30.2616H72.0612V31.1259H71.5391V28.9888Z" fill="black"/>
<path d="M74.2152 31.5533C74.355 31.5533 74.5042 31.4678 74.5788 31.2779L74.6534 31.0879L73.7676 28.9888H74.355L74.7933 30.2236C74.8306 30.3375 74.8679 30.5085 74.8679 30.5085H74.8772C74.8772 30.5085 74.9145 30.3375 74.9425 30.2236L75.3528 28.9888H75.9216L74.9891 31.4488C74.8492 31.8383 74.5415 32.0093 74.2338 32.0093C73.982 32.0093 73.7956 31.8668 73.7956 31.8668L73.9727 31.4678C73.982 31.4583 74.1033 31.5533 74.2152 31.5533Z" fill="black"/>
<path d="M77.3008 28.9888H77.795V30.1286C77.795 30.2236 77.7857 30.347 77.7857 30.385H77.795C77.823 30.328 77.8976 30.2141 77.9535 30.1286L78.7275 28.9888H79.231V31.1259H78.7368V29.9861C78.7368 29.9101 78.7461 29.7866 78.7461 29.7296H78.7368C78.7088 29.7866 78.6342 29.9006 78.5783 29.9861L77.8043 31.1259H77.3008V28.9888Z" fill="black"/>
<path d="M80.8906 28.1528H82.681V28.6183H81.4221V29.3021H82.0096C82.5411 29.3021 82.9234 29.6536 82.9234 30.214C82.9234 30.7459 82.5504 31.1163 82.0282 31.1163H80.8999V28.1528H80.8906ZM81.9257 30.6509C82.2147 30.6509 82.3826 30.4799 82.3826 30.214C82.3826 29.9385 82.2054 29.7581 81.9163 29.7581H81.4221V30.6509H81.9257Z" fill="black"/>
<path d="M84.2852 28.9316C84.882 28.9316 85.2177 29.3781 85.2177 29.948C85.2177 30.0145 85.2084 30.0904 85.199 30.1569H83.7537C83.791 30.5274 84.0614 30.7173 84.3785 30.7173C84.5929 30.7173 84.8074 30.6224 84.9752 30.4799L85.1804 30.8598C84.9659 31.0498 84.6396 31.1638 84.3412 31.1638C83.6511 31.1638 83.2129 30.6508 83.2129 30.0429C83.2222 29.3971 83.6605 28.9316 84.2852 28.9316ZM84.6955 29.7865C84.6955 29.5015 84.509 29.3306 84.2759 29.3306C84.0055 29.3306 83.819 29.511 83.7724 29.7865H84.6955Z" fill="black"/>
<path d="M85.4609 30.67C85.722 30.632 85.8992 30.4135 85.8992 29.6537V28.9888H87.4284V31.1259H86.9063V29.4257H86.3934V29.6632C86.3934 30.594 86.151 31.1259 85.4609 31.1449V30.67Z" fill="black"/>
<path d="M89.0414 29.777H89.1347V29.7485C89.1347 29.4635 88.9575 29.3686 88.743 29.3686C88.5379 29.3686 88.3327 29.454 88.1556 29.5775L87.9597 29.1976C88.1276 29.0551 88.4726 28.9316 88.7803 28.9316C89.3305 28.9316 89.6475 29.2451 89.6475 29.777V31.1163H89.1626V30.9358C89.1626 30.8503 89.172 30.7838 89.172 30.7838H89.1626C89.0321 31.0118 88.7803 31.1733 88.5006 31.1733C88.1183 31.1733 87.8105 30.9263 87.8105 30.5369C87.8199 29.891 88.5752 29.777 89.0414 29.777ZM88.6591 30.7648C88.9482 30.7648 89.144 30.4609 89.144 30.2044V30.1474H89.0507C88.7896 30.1474 88.3421 30.1854 88.3421 30.4894C88.3421 30.6223 88.4446 30.7648 88.6591 30.7648Z" fill="black"/>
<path d="M90.189 28.9889H90.6646V29.1504C90.6646 29.2264 90.6552 29.3023 90.6552 29.3023H90.6646C90.8044 29.0744 91.0562 28.9414 91.3359 28.9414C91.9048 28.9414 92.2684 29.3973 92.2684 30.0622C92.2684 30.7366 91.8581 31.183 91.308 31.183C91.0655 31.183 90.8511 31.0785 90.7019 30.8791H90.6925C90.6925 30.8791 90.7019 30.9551 90.7019 31.0595V31.9619H90.1797V28.9889H90.189ZM91.2147 30.7271C91.5038 30.7271 91.7369 30.4896 91.7369 30.0622C91.7369 29.6538 91.5224 29.3973 91.2147 29.3973C90.935 29.3973 90.6832 29.5968 90.6832 30.0717C90.6925 30.3947 90.8697 30.7271 91.2147 30.7271Z" fill="black"/>
<path d="M92.8265 31.5533C92.9664 31.5533 93.1156 31.4678 93.1902 31.2779L93.2647 31.0879L92.3789 28.9888H92.9664L93.4046 30.2236C93.4419 30.3375 93.4792 30.5085 93.4792 30.5085H93.4885C93.4885 30.5085 93.5258 30.3375 93.5538 30.2236L93.9641 28.9888H94.5329L93.6004 31.4488C93.4606 31.8383 93.1529 32.0093 92.8451 32.0093C92.5934 32.0093 92.4069 31.8668 92.4069 31.8668L92.584 31.4678C92.5934 31.4583 92.7146 31.5533 92.8265 31.5533Z" fill="black"/>
<path d="M95.8212 28.9316C96.1009 28.9316 96.4273 29.0266 96.6231 29.2451L96.39 29.606C96.2595 29.473 96.0543 29.3781 95.8492 29.3781C95.4669 29.3781 95.2151 29.6725 95.2151 30.0429C95.2151 30.4039 95.4669 30.7078 95.8678 30.7078C96.0916 30.7078 96.3247 30.5939 96.4833 30.4324L96.6884 30.8123C96.4926 31.0213 96.1662 31.1638 95.8212 31.1638C95.1312 31.1638 94.6836 30.6698 94.6836 30.0429C94.6836 29.4446 95.1312 28.9316 95.8212 28.9316Z" fill="black"/>
<path d="M97.0605 28.9888H97.5548V30.1286C97.5548 30.2236 97.5454 30.347 97.5454 30.385H97.5548C97.5827 30.328 97.6573 30.2141 97.7133 30.1286L98.4872 28.9888H98.9908V31.1259H98.4966V29.9861C98.4966 29.9101 98.5059 29.7866 98.5059 29.7296H98.4966C98.4686 29.7866 98.394 29.9006 98.338 29.9861L97.5641 31.1259H97.0605V28.9888Z" fill="black"/>
</g>
<defs>
<clipPath id="clip0_2404_2032">
<rect width="99" height="32" fill="white"/>
</clipPath>
</defs>
</svg>
