<svg xmlns="http://www.w3.org/2000/svg" viewBox="0 0 1353.7 200.16"><defs><style>.cls-1{fill:#63c634;}.cls-2{fill:#124f2e;}</style></defs><g id="Слой_2" data-name="Слой 2"><g id="Layer_1" data-name="Layer 1"><path class="cls-1" d="M153.47,152.53c0-8.45,10.73-18.91,33.14-18.91,1.34,0,2.68,0,4,.13C188.89,150,176,161.12,163.4,161.12,157.36,161.12,153.47,158.3,153.47,152.53ZM110,63.72h.27l-7,64.13a162.22,162.22,0,0,0-23.08-5.1ZM61.44,121.41c-16.63,0-34.07,4.16-43.06,14.08A63.7,63.7,0,0,1,11,104.64c0-28.58,18.65-55.14,54.47-72l-4.56-9.66C18.92,42,0,73.38,0,104.64c0,14.76,3.49,29,12.74,42.52a26,26,0,0,0-.4,4.57c0,11.4,7.11,19.58,21.87,19.58,15.43,0,28.57-10.6,36.49-31.52H59.16C53.39,153.74,44,161,34.21,161c-7.65,0-11-3.49-11-9.25,0-9.93,12.07-20,38.37-20a134.29,134.29,0,0,1,40.64,6.44l-1.87,17.57h10.73l10.06-94.58a92.1,92.1,0,0,1,18.78-2c23.61,0,30.05,8.32,30.05,17.31,0,11.94-9.79,20.25-33.27,22.94l3.49-32.33-10.73.4-9.39,88.27H130.8l4.69-44.67A101.91,101.91,0,0,1,160,107.59c15.83,0,26.57,6.44,29.79,16a26.76,26.76,0,0,0-3.22-.13c-30.46,0-44,15.56-44,29.25,0,12.07,9,18.78,20.66,18.78,17,0,35.42-13.69,38-36.09a75,75,0,0,1,22,9c-18.38,27.23-55.54,45.07-100.08,45.07-21.87,0-49.23-4.69-67.34-17.17l-5.64,9c17.85,12.88,46.42,18.92,73,18.92,72.31,0,123.29-42.67,123.29-95.39,0-55.4-55.41-95.38-123.15-95.38-4.16,0-7.11.13-11.14.4l1.07,10.6c3.22-.13,6.71-.27,9.93-.27,60.5,0,112.29,36.49,112.29,84.65a69.61,69.61,0,0,1-7,30.59c-6.84-4.43-16.77-8.45-27.37-10.46-2.28-12.88-12.87-23.88-33.4-26A25.74,25.74,0,0,0,181,76.47c0-16.5-11.67-27.64-41.05-27.64a108.2,108.2,0,0,0-17.57,1.48L123.55,39l-10.86-2.95L103.3,54.6C88.14,59,73.38,65.47,64.66,70.43l4.83,9.26A228.33,228.33,0,0,1,96.72,67.88l-27.09,53.8C66.81,121.54,64.12,121.41,61.44,121.41Zm42-95.92c0-11.67-13.28-22.14-28-25.49A85.54,85.54,0,0,0,73,18.38c0,16.37,8.45,21.19,16.37,21.19C97.8,39.57,103.43,33.94,103.43,25.49Z"/><path class="cls-2" d="M354.35,72.28c-12.18,0-19.14,6.09-20.53,15.14H316.41c2.79-20.18,16.36-30.8,37.94-30.8,23.5,0,36.2,11.83,36.2,36v52.74h-17.4V124.5c-4.35,12.7-13.57,22.62-31.5,22.62-16.36,0-26.63-8.7-26.63-24.37,0-19.84,18.28-30.45,58.13-30.45V90.9C373.15,78.37,366.19,72.28,354.35,72.28Zm-8.7,59.87c17.93,0,27.5-12.35,27.5-27.32-28.72,0-39.85,6.61-39.85,17C333.3,128.5,338,132.15,345.65,132.15Zm59.87-15.31h18.1c2.09,9,8,14.62,21.24,14.62,15.66,0,19.66-5.57,19.66-11.84,0-5.92-4.52-10.44-16.53-10.44H433.37V94.39h12c12.35,0,16.36-4.18,16.36-10.45,0-6.44-5.4-11.66-17.06-11.66-13.05,0-17.75,6.62-19.32,13.75h-18.1C409,68.11,422.93,56.62,445,56.62c24.37,0,35,11.31,35,24.54,0,8.87-5.39,16.36-15.31,19,11.13,2.44,18.1,10.27,18.1,20,0,14.1-11.14,27-37.94,27C419.45,147.12,407.26,134.76,405.52,116.84Zm98.86,10.61c-5.75-8.87-7.66-20.71-7.66-35.68,0-42.11,15.32-60.21,51.86-64.56,11.84-1.4,18.1-2.79,19.32-7.14h16.36c-2.78,16.53-15,20.19-32.89,22.45-29.59,3.83-37.25,14.79-37.94,40.73,5.74-13.58,19.14-23,35.5-23,24.72,0,39.86,19.5,39.86,43.34,0,24.19-18.45,43.51-46.12,43.51C524.91,147.12,511.17,138.24,504.38,127.45Zm66.13-23.84c0-16-11.48-27.67-27.84-27.67C526.48,75.94,515,87.6,515,103.61c0,16.36,11.49,27.85,27.68,27.85C559,131.46,570.51,120,570.51,103.61ZM602,180.19V164.52c18.27,0,21.75-3.3,27.32-18.79L594.18,58.36h18.63l25.93,64.92,25.58-64.92H681.2L644.31,149.9C634.91,173.4,628.12,180.19,602,180.19ZM691.47,58.36h17.41V97.52L747,58.36h20.89L727.5,99.78l43.68,45.6H747.69l-38.81-40.9v40.9H691.47ZM814.35,72.28c-12.19,0-19.15,6.09-20.54,15.14h-17.4c2.78-20.18,16.36-30.8,37.94-30.8,23.49,0,36.2,11.83,36.2,36v52.74H833.14V124.5c-4.35,12.7-13.57,22.62-31.5,22.62-16.36,0-26.63-8.7-26.63-24.37,0-19.84,18.28-30.45,58.13-30.45V90.9C833.14,78.37,826.18,72.28,814.35,72.28Zm-8.71,59.87c17.93,0,27.5-12.35,27.5-27.32-28.71,0-39.85,6.61-39.85,17C793.29,128.5,798,132.15,805.64,132.15ZM917.9,58.36h39.33c19.32,0,29.94,8.18,29.94,22.62,0,9-5.57,16.71-16.71,19.67C983.17,102.74,991,109.35,991,121c0,11.84-7.66,24.37-31.5,24.37H917.9Zm51.34,25.58c0-6.09-3.83-10.79-12.88-10.79H935V94.56h21.4C965.41,94.56,969.24,89.86,969.24,83.94ZM935,108.48v22.11h23.49c10.45,0,14.27-5,14.27-11.32,0-5.57-3.82-10.79-15.14-10.79Zm73.09-50.12h17.41V97.52l38.11-39.16h20.89l-40.38,41.42,43.69,45.6h-23.5l-38.81-40.9v40.9h-17.41Zm87.37,121.83V164.52c18.28,0,21.76-3.3,27.33-18.79l-35.16-87.37h18.62l25.94,64.92,25.58-64.92h16.88l-36.89,91.54C1128.32,173.4,1121.53,180.19,1095.42,180.19Zm153-67h17.4c-4.18,22.11-19.32,33.94-41.42,33.94-27,0-45.25-20-45.25-45.25,0-25.06,18.27-45.25,44.9-45.25,23,0,37.77,12.7,41.07,33.07h-17.4c-3.31-11.14-10.79-17.41-23.67-17.41-16,0-26.63,11.84-26.63,29.59,0,17.93,11,29.59,26.63,29.59C1236.92,131.46,1245.27,125.37,1248.41,113.18Zm69.09-40.9c-12.18,0-19.14,6.09-20.54,15.14h-17.4c2.78-20.18,16.36-30.8,37.94-30.8,23.5,0,36.2,11.83,36.2,36v52.74h-17.4V124.5c-4.35,12.7-13.58,22.62-31.5,22.62-16.36,0-26.63-8.7-26.63-24.37,0-19.84,18.27-30.45,58.13-30.45V90.9C1336.3,78.37,1329.34,72.28,1317.5,72.28Zm-8.7,59.87c17.93,0,27.5-12.35,27.5-27.32-28.72,0-39.86,6.61-39.86,17C1296.44,128.5,1301.14,132.15,1308.8,132.15Z"/></g></g></svg>