<svg width="36" height="35" viewBox="0 0 36 35" fill="none" xmlns="http://www.w3.org/2000/svg">
<path d="M26.0005 1.26904L26.0006 1.26872C26.0974 0.751932 26.5499 0.375 27.0773 0.375H33.8919C34.5002 0.375 34.9921 0.863901 34.9984 1.47583C34.9975 2.08457 34.5081 2.57344 33.8992 2.57344H28.3058H27.995L27.9373 2.87885L24.2879 22.2027L24.2878 22.2032C24.1909 22.7199 23.7384 23.0969 23.2111 23.0969H5.06517C4.5744 23.0969 4.1389 22.7671 4.01056 22.2964L4.01015 22.295L0.418553 9.33055L0.418586 9.33054L0.417165 9.32566C0.341701 9.06693 0.361947 8.70655 0.522534 8.42316C0.668996 8.1647 0.947014 7.94121 1.47357 7.94121H15.5292C16.1387 7.94121 16.6285 8.43093 16.6285 9.04043C16.6285 9.64992 16.1387 10.1396 15.5292 10.1396H3.41029H2.91727L3.0489 10.6148L5.8239 20.6308L5.90006 20.9057H6.18529H21.9898H22.3007L22.3583 20.6001L26.0005 1.26904Z" fill="white" stroke="black" stroke-width="0.75"/>
<path d="M15.832 30.3442C15.832 28.1091 17.6077 26.311 19.7786 26.311C21.9494 26.311 23.7251 28.1091 23.7251 30.3442C23.7251 32.5794 21.9494 34.3774 19.7786 34.3774C17.6081 34.3774 15.832 32.5726 15.832 30.3442ZM18.0305 30.337C18.0305 31.3235 18.7906 32.1718 19.7786 32.1718C20.7653 32.1718 21.5266 31.332 21.5266 30.337C21.5266 29.3505 20.7665 28.5022 19.7786 28.5022C18.7906 28.5022 18.0305 29.3505 18.0305 30.337Z" fill="white" stroke="black" stroke-width="0.75"/>
<path d="M4.39258 30.3442C4.39258 28.1091 6.16824 26.311 8.33906 26.311C10.5099 26.311 12.2855 28.1091 12.2855 30.3442C12.2855 32.5794 10.5099 34.3774 8.33906 34.3774C6.16864 34.3774 4.39258 32.5726 4.39258 30.3442ZM6.59101 30.337C6.59101 31.3235 7.35112 32.1718 8.33906 32.1718C9.32583 32.1718 10.0871 31.332 10.0871 30.337C10.0871 29.3505 9.327 28.5022 8.33906 28.5022C7.35112 28.5022 6.59101 29.3505 6.59101 30.337Z" fill="white" stroke="black" stroke-width="0.75"/>
</svg>
