<svg width="63" height="63" viewBox="0 0 63 63" fill="none" xmlns="http://www.w3.org/2000/svg">
<g opacity="0.75">
<path d="M23.1582 34.8651H24.5135L23.8359 31.0327L23.1582 34.8651Z" fill="black"/>
<path d="M36.9213 15.376C36.6408 15.376 36.4305 15.4461 36.2903 15.5629C36.1267 15.7031 36.0566 15.9602 36.0566 16.3341V22.0358C36.0566 22.4097 36.1267 22.6668 36.2903 22.807C36.4305 22.9238 36.6408 22.9939 36.9213 22.9939C37.225 22.9939 37.4353 22.9238 37.5522 22.807C37.7158 22.6668 37.7859 22.4097 37.7859 22.0358V16.3341C37.7859 15.9602 37.7158 15.7031 37.5522 15.5629C37.4353 15.4461 37.225 15.376 36.9213 15.376Z" fill="black"/>
<path d="M30.1908 29.21H29.3262V32.2478H30.1908C30.4712 32.2478 30.6815 32.1777 30.8217 32.0608C30.9853 31.9206 31.0554 31.6636 31.0554 31.2897V30.1447C31.0554 29.7942 30.9853 29.5371 30.8217 29.3735C30.6815 29.2801 30.4712 29.21 30.1908 29.21Z" fill="black"/>
<path d="M31.5 0C14.0909 0 0 14.0909 0 31.5C0 48.9091 14.0909 63 31.5 63C48.9091 63 63 48.9091 63 31.5C63 14.0909 48.8858 0 31.5 0ZM34.3743 16.3342C34.3743 15.493 34.6313 14.8153 35.1454 14.3246C35.5894 13.9039 36.197 13.6936 36.9214 13.6936C37.6458 13.6936 38.2533 13.9039 38.6973 14.3246C39.2114 14.8153 39.4685 15.493 39.4685 16.3342V22.036C39.4685 22.8772 39.2114 23.5549 38.6973 24.0456C38.2533 24.4662 37.6458 24.6766 36.9214 24.6766C36.197 24.6766 35.5894 24.4662 35.1454 24.0456C34.6313 23.5549 34.3743 22.8772 34.3743 22.036V16.3342ZM33.72 27.5274H35.4024V31.8739L37.2719 27.5274H39.0946L36.9447 32.5983L39.0946 38.23H37.2953L35.9866 34.8182L35.4024 36.1502V38.2533H33.72V27.5274ZM28.3921 16.3342C28.3921 15.5163 28.6491 14.8386 29.1632 14.3246C29.6306 13.9039 30.2148 13.6936 30.9392 13.6936C31.6636 13.6936 32.2711 13.9039 32.7151 14.3246C33.2292 14.8153 33.4863 15.493 33.4863 16.3342V17.2923H31.7804V16.3342C31.7804 15.9603 31.7103 15.7033 31.5701 15.5631C31.4299 15.4462 31.2196 15.3761 30.9158 15.3761C30.6354 15.3761 30.4251 15.4462 30.2849 15.5631C30.1213 15.7033 30.0512 15.9603 30.0512 16.3342V22.036C30.0512 22.4099 30.1213 22.6669 30.2849 22.8071C30.4251 22.924 30.6354 22.9941 30.9158 22.9941C31.2196 22.9941 31.4299 22.924 31.5701 22.8071C31.7103 22.6669 31.7804 22.4099 31.7804 22.036V20.6573H33.4629V22.036C33.4629 22.8772 33.2059 23.5549 32.6918 24.0456C32.2478 24.4662 31.6402 24.6766 30.9158 24.6766C30.1914 24.6766 29.6072 24.4662 29.1398 24.0456C28.6257 23.5315 28.3687 22.8772 28.3687 22.036V16.3342H28.3921ZM27.6443 27.5274H30.1914C30.9158 27.5274 31.5 27.7378 31.9674 28.1817C32.4815 28.6491 32.7385 29.3034 32.7385 30.168V31.3131C32.7385 32.1777 32.4815 32.8553 31.9674 33.3227C31.8973 33.3928 31.8038 33.4629 31.7337 33.533L32.6918 38.2533H30.9859L30.1213 33.9536H29.3501V38.2533H27.6677V27.5274H27.6443ZM23.2044 13.8105H27.6443V15.493H24.8869V18.1803H26.7797V19.8628H24.8869V22.8305H27.6443V24.513H23.2044V13.8105ZM20.0263 38.2533H18.3438V32.9021L16.9885 36.5708H16.007L14.6517 32.9021V38.2533H12.9692V27.5508H13.9273L16.4978 33.4863L19.0682 27.5508H20.0263V38.2533ZM22.5501 38.2533H20.8442L22.9941 27.5508H24.6766L26.8264 38.2533H25.1205L24.8168 36.5475H22.8772L22.5501 38.2533ZM39.7489 47.3668H23.2511V45.4273H39.7255V47.3668H39.7489ZM44.329 29.2099H41.595V31.8973H43.4878V33.5797H41.595V36.5475H44.3524V38.23H39.9125V27.5274H44.3524V29.2099H44.329ZM50.0308 29.2099H48.3249V38.23H46.6424V29.2099H44.9366V27.5274H50.0542V29.2099H50.0308Z" fill="black"/>
</g>
</svg>
