<svg width="63" height="63" viewBox="0 0 63 63" fill="none" xmlns="http://www.w3.org/2000/svg">
<path d="M31.5 63C48.897 63 63 48.897 63 31.5C63 14.103 48.897 0 31.5 0C14.103 0 0 14.103 0 31.5C0 48.897 14.103 63 31.5 63Z" fill="#8BD051"/>
<path d="M24.8856 15.4926V18.1799H26.7784V19.8624H24.8856V22.8301H27.643V24.5126H23.2031V13.8101H27.643V15.4926H24.8856Z" fill="black"/>
<path d="M30.9143 24.6529C30.1899 24.6529 29.6057 24.4426 29.1383 24.022C28.6242 23.5079 28.3672 22.8536 28.3672 22.0123V16.3339C28.3672 15.5161 28.6242 14.8384 29.1383 14.3243C29.6057 13.9037 30.1899 13.6934 30.9143 13.6934C31.6387 13.6934 32.2463 13.9037 32.6903 14.3243C33.2044 14.815 33.4614 15.4927 33.4614 16.3339V17.292H31.7789V16.3339C31.7789 15.9601 31.7088 15.703 31.5686 15.5628C31.4284 15.446 31.2181 15.3759 30.9143 15.3759C30.6339 15.3759 30.4236 15.446 30.2834 15.5628C30.1198 15.703 30.0497 15.9601 30.0497 16.3339V22.0357C30.0497 22.4096 30.1198 22.6667 30.2834 22.8069C30.4236 22.9237 30.6339 22.9938 30.9143 22.9938C31.2181 22.9938 31.4284 22.9237 31.5686 22.8069C31.7088 22.6667 31.7789 22.4096 31.7789 22.0357V20.657H33.4614V22.0357C33.4614 22.877 33.2044 23.5546 32.6903 24.0454C32.2463 24.4426 31.6621 24.6529 30.9143 24.6529Z" fill="black"/>
<path d="M36.9221 24.6529C36.1977 24.6529 35.5901 24.4426 35.1461 24.022C34.632 23.5313 34.375 22.8536 34.375 22.0123V16.3339C34.375 15.4927 34.632 14.815 35.1461 14.3243C35.5901 13.9037 36.1977 13.6934 36.9221 13.6934C37.6465 13.6934 38.2541 13.9037 38.6981 14.3243C39.2122 14.815 39.4692 15.4927 39.4692 16.3339V22.0357C39.4692 22.877 39.2122 23.5546 38.6981 24.0454C38.2541 24.4426 37.6699 24.6529 36.9221 24.6529ZM36.9221 15.3759C36.6417 15.3759 36.4314 15.446 36.2912 15.5628C36.1276 15.703 36.0575 15.9601 36.0575 16.3339V22.0357C36.0575 22.4096 36.1276 22.6667 36.2912 22.8069C36.4314 22.9237 36.6417 22.9938 36.9221 22.9938C37.2259 22.9938 37.4362 22.9237 37.553 22.8069C37.7166 22.6667 37.7867 22.4096 37.7867 22.0357V16.3339C37.7867 15.9601 37.7166 15.703 37.553 15.5628C37.4362 15.446 37.2259 15.3759 36.9221 15.3759Z" fill="black"/>
<path d="M20.0259 27.5273V38.2299H18.3434V32.8786L16.988 36.5474H16.0066L14.6512 32.8786V38.2299H12.9688V27.5273H13.9268L16.4973 33.4628L19.0678 27.5273H20.0259Z" fill="black"/>
<path d="M24.7929 36.547H22.8534L22.5496 38.2528H20.8438L22.9936 27.5503H24.6761L26.8259 38.2528H25.1201L24.7929 36.547ZM24.5125 34.8645L23.8348 31.0321L23.1572 34.8645H24.5125Z" fill="black"/>
<path d="M32.6667 38.2528H30.9608L30.0962 33.9531H29.3251V38.2528H27.6426V27.5503H30.1897C30.9141 27.5503 31.4983 27.7606 31.9657 28.2046C32.4797 28.672 32.7368 29.3263 32.7368 30.1909V31.3359C32.7368 32.2005 32.4797 32.8782 31.9657 33.3455C31.8955 33.4157 31.8021 33.4858 31.732 33.5559L32.6667 38.2528ZM31.0309 30.1675C31.0309 29.817 30.9608 29.5599 30.7973 29.3964C30.657 29.2795 30.4467 29.2094 30.1663 29.2094H29.3017V32.2473H30.1663C30.4467 32.2473 30.657 32.1771 30.7973 32.0603C30.9608 31.9201 31.0309 31.6631 31.0309 31.2892V30.1675Z" fill="black"/>
<path d="M39.0934 38.2528H37.294L35.9854 34.8177L35.4012 36.1497V38.2528H33.7188V27.5503H35.4012V31.8967L37.2707 27.5503H39.0934L36.9435 32.6211L39.0934 38.2528Z" fill="black"/>
<path d="M41.5946 29.2098V31.8971H43.4874V33.5796H41.5946V36.5474H44.352V38.2299H39.9121V27.5273H44.352V29.2098H41.5946Z" fill="black"/>
<path d="M50.0298 29.2098H48.3239V38.2299H46.6414V29.2098H44.9355V27.5273H50.0531V29.2098H50.0298Z" fill="black"/>
<path d="M39.7264 45.4272H23.252V47.3668H39.7264V45.4272Z" fill="black"/>
</svg>
