<svg width="58" height="58" viewBox="0 0 58 58" fill="none" xmlns="http://www.w3.org/2000/svg">
<path d="M57.2153 29.3293C57.2153 13.6742 44.4756 0.93457 28.8205 0.93457C13.1654 0.93457 0.425781 13.6742 0.425781 29.3293C0.425781 44.9844 13.1654 57.7241 28.8205 57.7241C36.1362 57.7241 42.8077 54.9443 47.8453 50.3881L54.9982 57.541L56.8356 55.7036L49.6962 48.5643C54.3609 43.4928 57.2153 36.7399 57.2153 29.3293ZM54.6185 29.3293C54.6185 36.1839 51.9269 42.4148 47.5537 47.0388V11.6199C51.9336 16.2439 54.6185 22.4747 54.6185 29.3293ZM46.9435 47.2015L37.4583 37.7162V5.02293C41.0517 6.30435 44.279 8.3587 46.9435 10.9894V47.2015ZM36.8413 4.81275V37.0992L27.356 27.614V3.572C27.8442 3.54488 28.3256 3.52454 28.8205 3.52454C31.6207 3.53132 34.3191 3.98558 36.8413 4.81275ZM10.7179 10.9758C12.4671 9.24689 14.4604 7.76884 16.6436 6.59589V16.9015L10.7179 10.9758ZM26.3323 27.458H3.10388C3.34796 24.0748 4.24292 20.8746 5.66673 17.9728H16.847L26.3323 27.458ZM17.2606 17.5185V6.27723C20.1557 4.81953 23.3558 3.89066 26.7458 3.61946V27.0038L17.2606 17.5185ZM10.2839 11.4165L16.23 17.3626H5.97861C7.13121 15.1726 8.58214 13.1725 10.2839 11.4165ZM3.05641 28.075H26.9425L36.4277 37.5603H4.37853C3.50391 34.9703 3.02252 32.2041 3.02252 29.3293C3.02252 28.909 3.03607 28.4886 3.05641 28.075ZM4.58871 38.1773H37.0447L46.53 47.6625H10.6975C8.01941 45.0115 5.91081 41.7842 4.58871 38.1773ZM11.3416 48.2795H46.3062C41.7094 52.5238 35.5667 55.1273 28.8273 55.1273C22.0812 55.1273 15.9452 52.5238 11.3416 48.2795Z" fill="white"/>
</svg>
