<svg width="109" height="52" viewBox="0 0 109 52" fill="none" xmlns="http://www.w3.org/2000/svg">
<g opacity="0.75">
<path d="M33.6652 15.7834H40.5829V17.9926H37.2922V33.5145H33.6652V15.7834ZM44.6842 26.8581L45.3058 17.9926H45.514L46.1356 26.8581H44.6842ZM40.6677 33.5145H44.2189L44.5547 28.8055H46.2649L46.6024 33.5145H50.152L48.2605 15.7834H42.5591L40.6677 33.5145ZM55.3463 27.3087V30.6513C55.3463 31.1019 55.7032 31.2327 55.9114 31.2327C56.2534 31.2327 56.4913 30.9565 56.4913 30.6513V26.524C56.4913 25.9716 56.3872 25.3613 55.034 25.3613H53.5618V23.4138H55.0935C56.1196 23.4138 56.4913 23.1813 56.4913 22.0912V18.574C56.4913 18.2687 56.2534 17.9926 55.9112 17.9926C55.7032 17.9926 55.3463 18.1088 55.3463 18.574V21.4661H51.7178V18.9519C51.7178 17.7165 51.8665 15.7834 54.4092 15.7834H57.4131C59.956 15.7834 60.1196 17.7165 60.1196 18.9519V21.7858C60.1196 23.7188 58.7366 24.2421 57.6511 24.1984V24.3728C60.0898 24.3147 60.1196 26.1458 60.1196 26.7709V30.3462C60.1196 31.596 59.956 33.5145 57.4131 33.5145H54.4092C51.8665 33.5145 51.7178 31.5959 51.7178 30.346V27.3087H55.3463ZM62.499 15.7834H70.9008V33.5145H67.2724V17.9926H66.1274V33.5145H62.499V15.7834ZM76.9084 25.5356V17.9927H77.3843C77.7709 17.9927 78.0534 18.3122 78.0534 18.8792V24.649C78.0534 25.2159 77.7709 25.5354 77.3842 25.5354L76.9084 25.5356ZM73.28 33.5145H76.9084V27.483H78.99C81.5182 27.483 81.6818 25.5646 81.6818 24.3146V18.9519C81.6818 17.7165 81.5182 15.7834 78.9902 15.7834H73.28V33.5145ZM88.8344 30.6513C88.8344 30.9565 88.5964 31.2327 88.2545 31.2327C88.0461 31.2327 87.6894 31.1019 87.6894 30.6513V18.574C87.6894 18.1088 88.0463 17.9926 88.2545 17.9926C88.5964 17.9926 88.8344 18.2687 88.8344 18.574V30.6513ZM84.061 30.3462C84.061 31.596 84.2245 33.5145 86.7526 33.5145H89.7712C92.2992 33.5145 92.4628 31.5959 92.4628 30.346V18.9519C92.4628 17.7165 92.2993 15.7834 89.7712 15.7834H86.7526C84.2246 15.7834 84.061 17.7165 84.061 18.9519V30.3462ZM104.27 15.7834H108.999V33.5145H105.37V22.3963H105.236L103.363 33.5145H100.463L98.6042 22.3963H98.4704V33.5145H94.842V15.7834H99.556L101.92 28.2533L104.27 15.7834ZM28.9632 9.24344C27.8525 4.49094 25.0686 0.625073 24.6849 0C24.0782 0.886473 21.8581 4.30205 20.7295 8.08068C19.4967 12.3099 19.3153 16.0596 19.7407 19.7365C20.163 23.4281 21.7584 27.2214 21.7584 27.2214C22.6062 29.198 23.876 31.3343 24.7029 32.3808C25.9147 30.8403 28.7 26.2476 29.5684 20.2598C30.0517 16.9171 30.0726 13.9959 28.9632 9.24344ZM24.6849 31.1891C24.1393 30.1863 23.2916 28.2822 23.2113 25.3174C23.1904 22.469 24.3608 20.0127 24.7029 19.5041C25.0077 20.0128 26.0158 22.1491 26.1363 25.0704C26.2181 27.919 25.2485 30.1716 24.6849 31.1891ZM28.6406 17.3094C28.5989 19.1262 28.3773 21.0446 28.0948 22.1928C28.1959 20.2163 27.9536 17.4403 27.4895 15.2603C27.0256 13.0947 25.7125 9.46145 24.6643 7.79C23.6962 9.38878 22.5034 12.5279 21.879 15.2458C21.2514 17.9634 21.2336 21.2627 21.2336 22.2509C21.067 21.4224 20.6506 18.4432 20.7681 15.4638C20.8663 13.0077 21.4551 10.4643 21.7778 9.30154C23.009 5.42111 24.4024 2.93585 24.6641 2.54336C24.926 2.93585 26.6805 6.00248 27.5906 9.2143C28.4963 12.4263 28.6792 15.5073 28.6406 17.3096" fill="black"/>
<path d="M26.5704 33.4851H18.1255V39.0224C18.133 39.0224 18.1389 39.0078 18.1463 39.0078C20.136 37.0604 23.363 37.0604 25.3541 39.0078C27.3437 40.9409 27.3437 44.0946 25.3541 46.0421C25.3451 46.0566 25.3361 46.0566 25.3273 46.0711C25.3169 46.0711 25.3065 46.0857 25.2975 46.1003C23.3123 48.0187 20.719 48.9778 18.1255 48.9778C15.5203 48.9778 12.9149 48.0187 10.9283 46.0711C7.42474 42.6557 7.00985 37.351 9.68059 33.4851C10.0472 32.9532 10.465 32.4569 10.9283 32.0027C12.9149 30.0553 15.5203 29.096 18.1255 29.096V15.7832C8.11478 15.7832 0 23.704 0 33.4851C0 43.2662 8.11478 51.2015 18.1255 51.2015C23.345 51.2015 28.0471 49.0359 31.3542 45.5915V33.4851H26.5704ZM109 38.6944H33.6666V51.2015H109V38.6944ZM102.486 47.4257H103.442V45.5378H102.486V47.4257ZM102.486 44.122H103.932L104.9 44.594L105.139 45.0659L105.378 46.0099V46.4818C105.353 49.8631 103.127 48.6253 100.788 48.8417V41.0542H102.486V44.122ZM89.9228 41.0542V42.4701H88.7155V48.8417H86.7913V42.4701H85.5842V41.0542H89.9228ZM72.3042 46.7178H72.5431L73.021 46.4818V43.178H72.3042V46.7178ZM70.3675 43.1782H69.6381V46.4818L70.1285 46.7178H70.3675V43.1782ZM72.3042 41.0542V41.7622H73.5115L74.2283 42.2341L74.7187 42.7061L74.9576 43.6501V46.2459L74.7188 47.1899L74.2283 47.6618L73.5115 48.1337H72.3042V48.8416H70.3675V48.1337H69.1602L68.4309 47.6618L67.953 47.1899L67.7141 46.2459V43.6501L67.9529 42.7061L68.4309 42.2341L69.1602 41.7622H70.3675V41.0542H72.3042ZM56.6047 41.0542V42.4701H55.1561V44.122H56.6047V45.5378H55.1561V47.4257H56.8462V48.8416H53.2244V41.0542H56.6047ZM39.2201 44.122H40.1859V41.0542H41.8761V48.8417H40.1859V45.5378H39.2201V48.8417H37.2884V41.0542H39.2201V44.122Z" fill="black"/>
</g>
</svg>
