<svg width="176" height="35" viewBox="0 0 176 35" fill="none" xmlns="http://www.w3.org/2000/svg">
<path fill-rule="evenodd" clip-rule="evenodd" d="M16.05 0.207972C17.458 -0.173594 18.9716 -0.0348429 20.3092 0.520162C22.1044 1.24861 23.5476 2.84425 24.0756 4.71739C24.7444 6.9721 24.0404 9.53899 22.3156 11.1346C20.7668 12.6262 19.2532 14.1872 17.7044 15.644C16.5076 14.4647 15.3108 13.2853 14.114 12.0712C13.3748 11.3428 12.6004 10.649 12.0724 9.74712C11.122 8.15148 10.9108 6.13959 11.5092 4.37051C12.178 2.35862 13.9732 0.728289 16.05 0.207972Z" fill="black"/>
<path fill-rule="evenodd" clip-rule="evenodd" d="M44.1048 24.8365C45.196 23.4836 47.2376 23.0327 48.8568 23.6918C49.7016 24.0039 50.4056 24.6283 50.8632 25.3915C50.3 25.773 49.7016 26.0852 49.1032 26.4321C48.5752 25.4955 47.308 25.114 46.3224 25.6343C44.9144 26.2587 44.7736 28.5134 46.1112 29.2765C47.0968 29.9356 48.5048 29.5887 49.1032 28.6174C49.7016 28.9296 50.2648 29.2418 50.8632 29.5887C49.7368 31.7393 46.604 32.2596 44.7384 30.8028C42.908 29.4152 42.6616 26.5362 44.1048 24.8365Z" fill="black"/>
<path fill-rule="evenodd" clip-rule="evenodd" d="M69.7301 24.5588C71.0677 23.2407 73.3205 23.0325 74.9045 24.0385C76.3477 24.9404 76.9461 26.7788 76.6293 28.3745C74.6581 28.4092 72.6517 28.3051 70.6805 28.4092C70.8917 28.8254 71.1381 29.2417 71.5957 29.4845C72.5813 30.0048 73.9541 29.866 74.7285 29.0335C75.2565 29.3457 75.8197 29.6579 76.3477 29.9701C74.9045 32.0167 71.6309 32.1554 69.8005 30.5251C68.1461 28.9642 68.1461 26.1198 69.7301 24.5588ZM71.4901 25.5648C71.0677 25.8076 70.8565 26.2932 70.6453 26.7441C71.9829 26.7788 73.3205 26.7788 74.6581 26.7441C74.5173 26.3973 74.3765 26.0504 74.0949 25.8076C73.4613 25.0791 72.2645 25.0444 71.4901 25.5648Z" fill="black"/>
<path fill-rule="evenodd" clip-rule="evenodd" d="M79.8326 24.4548C80.6422 23.5529 81.9446 23.206 83.1062 23.4488C84.0566 23.657 84.9014 24.212 85.4646 25.0098C86.5206 26.5014 86.4854 28.652 85.359 30.1089C84.127 31.8086 81.2758 32.1555 79.8326 30.5251C79.8326 31.8433 79.8326 33.1614 79.8326 34.4449C79.1638 34.4449 78.495 34.4449 77.791 34.4449C77.791 30.8373 77.791 27.2298 77.791 23.6223C78.4598 23.6223 79.1286 23.6223 79.8326 23.6223C79.8326 23.8998 79.8326 24.1773 79.8326 24.4548ZM81.2758 25.426C79.8326 25.8423 79.375 27.8195 80.3254 28.9295C81.0998 29.9008 82.7894 29.9354 83.599 28.9989C84.4086 28.1317 84.3382 26.6401 83.423 25.8423C82.8598 25.322 82.015 25.2179 81.2758 25.426Z" fill="black"/>
<path fill-rule="evenodd" clip-rule="evenodd" d="M99.5085 23.5185C100.741 23.1716 102.113 23.5185 102.958 24.455C102.958 24.1775 102.958 23.9 102.958 23.6225C103.662 23.6225 104.366 23.6225 105.035 23.6225C105.035 26.1894 105.07 28.791 105 31.3579C104.296 31.3579 103.627 31.3579 102.923 31.3232C102.923 31.0457 102.923 30.7682 102.923 30.4907C101.515 32.121 98.6989 31.8089 97.4669 30.1092C96.5165 28.8951 96.3053 27.1607 96.9037 25.7732C97.3613 24.6979 98.3469 23.796 99.5085 23.5185ZM100.142 25.4263C98.7341 25.8079 98.2061 27.681 99.0509 28.791C99.7197 29.797 101.339 29.9357 102.254 29.1726C103.099 28.4441 103.24 27.0566 102.571 26.1894C102.043 25.4263 101.022 25.1835 100.142 25.4263Z" fill="black"/>
<path fill-rule="evenodd" clip-rule="evenodd" d="M108.591 24.4203C109.435 23.4838 110.808 23.1716 112.005 23.4838C113.202 23.7613 114.187 24.6978 114.61 25.8079C115.103 27.0219 115.032 28.4441 114.399 29.5888C113.906 30.456 113.061 31.1845 112.075 31.4273C110.843 31.7742 109.471 31.462 108.591 30.5254C108.591 31.8088 108.626 33.127 108.555 34.4104C107.887 34.4104 107.183 34.4104 106.514 34.4104C106.443 30.8029 106.514 27.1954 106.479 23.5878C107.183 23.5878 107.887 23.5878 108.555 23.5878C108.591 23.9 108.591 24.1775 108.591 24.4203ZM110.104 25.3916C108.731 25.7385 108.203 27.4729 108.872 28.6176C109.471 29.7276 111.125 29.9704 112.111 29.2073C113.202 28.3748 113.202 26.5363 112.075 25.7385C111.512 25.3222 110.738 25.2528 110.104 25.3916Z" fill="black"/>
<path fill-rule="evenodd" clip-rule="evenodd" d="M124.958 24.4551C126.19 23.3104 128.196 23.0675 129.71 23.8307C130.731 24.351 131.47 25.3569 131.716 26.4669C131.822 27.022 131.787 27.577 131.822 28.132C130.168 28.236 128.548 28.1666 126.894 28.1666C126.507 28.1666 126.155 28.236 125.768 28.3054C125.979 28.7563 126.26 29.242 126.718 29.4848C127.704 29.9704 129.006 29.8317 129.78 28.9992C130.344 29.3113 130.872 29.6235 131.4 29.9357C130.062 31.8782 127.07 32.0864 125.24 30.7682C123.233 29.346 123.128 26.0507 124.958 24.4551ZM125.768 26.7445C127.105 26.7445 128.443 26.7791 129.78 26.7098C129.604 26.2241 129.323 25.7385 128.865 25.461C127.739 24.8019 126.014 25.3916 125.768 26.7445Z" fill="black"/>
<path fill-rule="evenodd" clip-rule="evenodd" d="M51.1445 23.6226C51.8485 23.6226 52.5877 23.6226 53.2917 23.6226C53.9957 25.3223 54.6645 27.022 55.3685 28.687C56.0021 27.022 56.5301 25.2876 57.0933 23.6226C57.8325 23.6226 58.5717 23.6226 59.3109 23.6226C58.3253 26.2588 57.3749 28.9298 56.3541 31.5661C55.9317 32.6761 55.1573 33.7861 53.9605 34.237C53.4325 34.4452 52.8341 34.4798 52.2709 34.4798C52.2709 33.8555 52.2709 33.2658 52.2709 32.6414C52.7637 32.572 53.3269 32.5373 53.7141 32.1558C54.0309 31.8436 54.3829 31.3926 54.1365 30.9417C53.1509 28.4789 52.0949 26.0854 51.1445 23.6226Z" fill="black"/>
<path fill-rule="evenodd" clip-rule="evenodd" d="M60.2969 23.6226C62.6553 23.6226 65.0489 23.6572 67.4073 23.6226C67.3369 23.9001 67.3017 24.1776 67.2665 24.4204C67.1961 26.7098 67.3369 28.9992 67.1961 31.2539C66.6681 31.2539 66.1049 31.2192 65.5769 31.1845C65.5417 29.3114 65.6121 27.4382 65.5417 25.5304C65.5065 25.5304 65.4009 25.4957 65.3657 25.4957C64.3449 25.4263 63.3593 25.4957 62.3385 25.461C62.3033 27.4035 62.3737 29.346 62.3385 31.3233C61.6345 31.3579 60.9657 31.3579 60.2617 31.3233C60.2969 28.791 60.2265 26.1895 60.2969 23.6226Z" fill="black"/>
<path fill-rule="evenodd" clip-rule="evenodd" d="M87.295 23.6226C87.9638 23.6226 88.6678 23.6226 89.3366 23.6226C90.0054 24.6979 90.7094 25.7732 91.4134 26.8138C92.0822 25.7385 92.7862 24.6979 93.455 23.6226C94.1238 23.6226 94.7926 23.6226 95.4614 23.6226C95.4614 26.1895 95.4614 28.7564 95.4614 31.3233C94.7926 31.3579 94.1238 31.3579 93.455 31.3233C93.455 29.8664 93.455 28.3748 93.455 26.9179C92.7862 27.9585 92.1526 29.0339 91.4134 30.0398C90.5686 29.1032 90.0406 27.9238 89.2662 26.9526C89.231 28.4095 89.2662 29.8664 89.231 31.3579C88.5622 31.3926 87.8934 31.3926 87.2598 31.3579C87.295 28.791 87.295 26.2241 87.295 23.6226Z" fill="black"/>
<path fill-rule="evenodd" clip-rule="evenodd" d="M116.018 23.6226C116.722 23.6226 117.426 23.6226 118.13 23.6226C118.13 24.6632 118.13 25.7038 118.13 26.7445C118.341 26.7445 118.587 26.7445 118.798 26.7445C119.538 25.7038 120.277 24.6632 121.051 23.6226C121.861 23.6226 122.67 23.6226 123.515 23.6226C122.53 24.906 121.579 26.1548 120.629 27.4382C121.509 28.5482 122.354 29.6929 123.234 30.8029C123.339 30.9764 123.515 31.1498 123.55 31.3579C122.987 31.3926 122.389 31.3579 121.826 31.3926C121.579 31.3926 121.262 31.462 121.157 31.1845C120.453 30.2479 119.749 29.3114 119.045 28.3748C118.763 28.3748 118.482 28.3748 118.2 28.3748C118.2 29.3807 118.2 30.4214 118.2 31.4273V31.3579C118.094 30.352 118.2 29.3114 118.094 28.2707C117.918 29.242 118.059 30.2132 117.954 31.1845C117.426 31.3233 116.862 31.3233 116.334 31.1845C116.264 30.7336 116.299 30.2479 116.299 29.797C116.334 27.8198 116.264 25.8079 116.334 23.8307C116.194 23.7613 116.053 23.6919 116.018 23.6226ZM117.742 23.7266C118.094 24.7326 117.742 25.8079 117.989 26.8138C118.094 25.7732 118.024 24.7326 118.059 23.6919C117.989 23.6919 117.813 23.6919 117.742 23.7266Z" fill="black"/>
<path fill-rule="evenodd" clip-rule="evenodd" d="M132.457 23.6226C134.78 23.6226 137.103 23.6226 139.391 23.6226C139.391 24.2469 139.391 24.906 139.391 25.5304C138.582 25.5304 137.772 25.5304 136.962 25.5304C136.962 27.4729 136.962 29.3807 136.962 31.3233C136.258 31.3579 135.554 31.3579 134.85 31.3233C134.85 29.3807 134.85 27.4382 134.85 25.5304C134.041 25.5304 133.231 25.5304 132.422 25.5304C132.386 24.906 132.386 24.2816 132.457 23.6226Z" fill="black"/>
<path fill-rule="evenodd" clip-rule="evenodd" d="M43.5059 1.28467C47.2019 1.28467 50.8627 1.28467 54.5587 1.28467C54.5939 6.0369 54.5939 10.8238 54.5587 15.576C53.5731 15.576 52.5875 15.576 51.6019 15.576C51.6019 11.691 51.6019 7.84066 51.6019 3.95563C49.8771 3.95563 48.1523 3.95563 46.4275 3.95563C46.4275 7.84066 46.4275 11.691 46.4275 15.576C45.4419 15.576 44.4915 15.576 43.5059 15.576C43.5059 10.8238 43.5059 6.0369 43.5059 1.28467Z" fill="black"/>
<path fill-rule="evenodd" clip-rule="evenodd" d="M121.93 1.42233C122.881 0.867327 124.148 1.73452 124.007 2.80984C123.972 3.88517 122.564 4.47486 121.719 3.81579C120.874 3.26079 121.015 1.87327 121.93 1.42233Z" fill="black"/>
<path fill-rule="evenodd" clip-rule="evenodd" d="M126.014 1.38826C126.753 1.07607 127.703 1.42294 127.915 2.22076C128.196 2.87983 127.809 3.74703 127.105 3.98984C126.331 4.33672 125.275 3.8164 125.169 2.94921C125.063 2.32483 125.415 1.63107 126.014 1.38826Z" fill="black"/>
<path fill-rule="evenodd" clip-rule="evenodd" d="M133.617 5.89693C135.237 4.75223 137.489 4.5788 139.285 5.4113C140.27 5.86224 141.115 6.66006 141.643 7.59664C140.869 8.04758 140.094 8.49852 139.285 8.94946C138.51 7.4232 136.222 7.11101 134.99 8.2557C133.969 9.1229 133.793 10.6838 134.392 11.8285C134.92 12.8345 136.117 13.3548 137.243 13.2161C138.123 13.1814 138.897 12.5917 139.32 11.8632C140.094 12.3142 140.904 12.7651 141.678 13.2161C140.939 14.4648 139.707 15.4014 138.264 15.7483C136.785 16.0951 135.166 15.887 133.864 15.0892C132.632 14.3608 131.752 13.112 131.435 11.7245C130.977 9.57384 131.752 7.14569 133.617 5.89693Z" fill="black"/>
<path fill-rule="evenodd" clip-rule="evenodd" d="M157.799 4.96043C160.087 4.57887 162.586 5.72357 163.642 7.80484C164.346 9.15766 164.487 10.8227 163.959 12.2449C163.466 13.6324 162.375 14.8118 161.002 15.4015C158.573 16.5115 155.405 15.679 153.962 13.4243C152.836 11.7246 152.765 9.40047 153.786 7.6314C154.666 6.2092 156.18 5.20325 157.799 4.96043ZM157.799 7.66608C156.039 8.15171 155.335 10.4411 156.25 11.898C157.025 13.2855 159.101 13.6671 160.369 12.7305C161.812 11.7592 161.953 9.53923 160.756 8.32515C160.017 7.59671 158.82 7.31921 157.799 7.66608Z" fill="black"/>
<path fill-rule="evenodd" clip-rule="evenodd" d="M59.5925 5.30725C61.0357 4.75225 62.7253 4.71756 64.1685 5.34194C65.0837 5.75819 65.8933 6.45195 66.3861 7.31914C67.1957 8.53322 67.3717 10.0595 67.1605 11.4817C64.4853 11.4817 61.8101 11.4817 59.1701 11.4817C59.4165 12.1407 59.8037 12.7651 60.4373 13.0426C61.7397 13.7017 63.5349 13.5283 64.5205 12.3836C65.2597 12.7998 65.9989 13.2161 66.7029 13.6323C65.9637 14.6383 64.8725 15.4361 63.6053 15.6789C61.7045 16.0952 59.5221 15.783 58.0437 14.4648C56.4949 13.112 55.9669 10.8226 56.4597 8.88009C56.8821 7.31914 58.0437 5.93163 59.5925 5.30725ZM60.3669 7.66602C59.6981 8.0129 59.3461 8.67197 59.0997 9.36572C60.8949 9.40041 62.6901 9.36572 64.5205 9.36572C64.3445 8.81072 64.0981 8.25571 63.6053 7.87415C62.6901 7.18039 61.3525 7.1457 60.3669 7.66602Z" fill="black"/>
<path fill-rule="evenodd" clip-rule="evenodd" d="M71.8413 6.38281C73.4605 4.37092 76.8397 4.47498 78.6349 6.20937C80.8877 8.22126 81.0285 12.0022 79.0221 14.2223C77.9661 15.4016 76.3469 16.0607 74.7629 15.8873C73.6365 15.8179 72.5805 15.2976 71.8413 14.4304C71.8413 16.1995 71.8413 18.0032 71.8413 19.7723C70.9261 19.7723 70.0461 19.7723 69.1309 19.7723C69.1309 14.916 69.1309 10.0597 69.1309 5.20342C70.0461 5.20342 70.9613 5.20342 71.8413 5.20342C71.8413 5.58499 71.8413 5.96656 71.8413 6.38281ZM74.0941 7.52751C73.5309 7.66626 73.0029 7.94376 72.6157 8.36001C71.5949 9.50471 71.5949 11.4125 72.6861 12.4879C73.7069 13.5285 75.5725 13.5979 76.6989 12.6613C77.9309 11.6554 78.0365 9.60877 76.9805 8.42939C76.2765 7.59688 75.1149 7.28469 74.0941 7.52751Z" fill="black"/>
<path fill-rule="evenodd" clip-rule="evenodd" d="M83.0362 6.79893C84.4794 5.02985 87.1194 4.47484 89.2666 5.20329C90.8506 5.75829 92.0474 7.1458 92.505 8.70676C92.7866 9.60864 92.7514 10.5452 92.6458 11.4818C89.9706 11.4818 87.3306 11.4818 84.6554 11.4818C84.8666 12.0368 85.1482 12.6265 85.7114 12.9387C87.049 13.7365 88.985 13.5977 90.041 12.4184C90.7802 12.8346 91.4842 13.2509 92.2234 13.6671C91.4842 14.7424 90.3226 15.5056 89.0202 15.7484C87.1546 16.1299 85.0778 15.8178 83.5994 14.5343C81.3818 12.6612 81.2058 9.01895 83.0362 6.79893ZM85.8522 7.70081C85.1834 8.04769 84.8314 8.74144 84.6202 9.40051C86.4154 9.40051 88.2106 9.40051 90.0058 9.40051C89.865 8.88019 89.6538 8.39457 89.2314 8.013C88.3514 7.18049 86.873 7.11112 85.8522 7.70081Z" fill="black"/>
<path fill-rule="evenodd" clip-rule="evenodd" d="M109.189 6.38281C110.879 4.37091 114.258 4.47498 116.053 6.27874C118.235 8.29064 118.376 12.0369 116.335 14.2222C115.279 15.4016 113.659 16.026 112.075 15.8526C110.949 15.7832 109.928 15.2282 109.189 14.3957C109.189 16.1648 109.189 17.9338 109.189 19.7376C108.274 19.7376 107.394 19.7376 106.479 19.7376C106.479 14.8813 106.479 10.025 106.479 5.16873C107.394 5.16873 108.274 5.16873 109.189 5.16873C109.189 5.58499 109.189 5.96655 109.189 6.38281ZM111.407 7.5275C110.773 7.66625 110.21 8.01313 109.823 8.49876C108.907 9.67815 109.013 11.586 110.175 12.5919C111.231 13.5285 112.955 13.5285 114.047 12.6613C115.314 11.586 115.419 9.47002 114.258 8.29064C113.519 7.56219 112.392 7.28469 111.407 7.5275Z" fill="black"/>
<path fill-rule="evenodd" clip-rule="evenodd" d="M120.383 6.7992C122.143 4.64856 125.733 4.23231 127.951 5.93201C129.641 7.18077 130.38 9.47016 129.957 11.4821C127.282 11.4821 124.642 11.4821 121.967 11.4821C122.178 12.0718 122.53 12.6614 123.093 12.9736C124.431 13.7368 126.297 13.5633 127.353 12.3839C128.092 12.8002 128.831 13.2164 129.535 13.6327C128.796 14.6733 127.669 15.4365 126.402 15.714C124.537 16.1302 122.389 15.7833 120.911 14.5346C118.764 12.6614 118.553 9.01922 120.383 6.7992ZM122.917 7.87453C122.425 8.2214 122.143 8.8111 121.967 9.40079C123.762 9.40079 125.557 9.40079 127.353 9.40079C127.212 8.88047 127.001 8.39484 126.578 8.01328C125.593 7.11139 123.938 7.07671 122.917 7.87453Z" fill="black"/>
<path fill-rule="evenodd" clip-rule="evenodd" d="M94.6152 5.16846C95.5304 5.16846 96.4456 5.16846 97.3608 5.16846C97.3608 6.59066 97.3608 8.01286 97.3608 9.40037C97.6776 9.40037 97.9592 9.40037 98.276 9.40037C99.2968 7.97817 100.318 6.59066 101.338 5.16846C102.43 5.16846 103.521 5.16846 104.612 5.16846C103.31 6.90285 101.972 8.60255 100.67 10.3023C102.007 12.0713 103.345 13.8404 104.718 15.5748C103.662 15.5748 102.57 15.5748 101.514 15.5748C100.494 14.222 99.4728 12.8345 98.4872 11.4816C98.1 11.4816 97.748 11.4816 97.3608 11.4816C97.3608 12.8345 97.3608 14.222 97.3608 15.5748C96.4456 15.5748 95.5304 15.5748 94.6152 15.5748C94.6152 12.106 94.6152 8.63724 94.6152 5.16846Z" fill="black"/>
<path fill-rule="evenodd" clip-rule="evenodd" d="M142.91 5.16846C146.008 5.16846 149.141 5.16846 152.238 5.16846C152.238 6.03565 152.238 6.90285 152.238 7.77004C151.147 7.77004 150.056 7.77004 148.965 7.77004C148.965 10.3716 148.965 12.9732 148.965 15.6095C148.049 15.6095 147.134 15.6095 146.184 15.6095C146.149 13.0079 146.184 10.4063 146.184 7.77004C145.093 7.77004 144.001 7.77004 142.91 7.77004C142.91 6.90285 142.91 6.03565 142.91 5.16846Z" fill="black"/>
<path fill-rule="evenodd" clip-rule="evenodd" d="M165.895 5.16846C166.81 5.16846 167.69 5.16846 168.605 5.16846C168.605 6.59066 168.605 8.01286 168.605 9.40037C168.922 9.40037 169.203 9.40037 169.52 9.40037C170.541 7.97817 171.562 6.59066 172.583 5.16846C173.674 5.16846 174.765 5.16846 175.856 5.16846C174.519 6.86816 173.251 8.60255 171.914 10.3023C173.251 12.0713 174.589 13.8057 175.962 15.5748C174.906 15.5748 173.85 15.5748 172.794 15.5748C171.773 14.222 170.752 12.8345 169.731 11.4816C169.344 11.4816 168.957 11.4816 168.605 11.4816C168.605 12.8345 168.605 14.222 168.605 15.5748C167.69 15.5748 166.81 15.5748 165.895 15.5748C165.895 12.106 165.895 8.63724 165.895 5.16846Z" fill="black"/>
<path fill-rule="evenodd" clip-rule="evenodd" d="M17.7037 19.3906C17.8797 19.3906 17.9853 19.5641 18.1261 19.6681C19.3581 20.8822 20.5549 22.0616 21.7869 23.2757C22.4205 23.8654 23.0189 24.4897 23.4413 25.2529C24.3565 26.7791 24.5677 28.6523 24.0749 30.352C23.5469 32.121 22.1741 33.6473 20.4493 34.4104C19.2173 34.9308 17.8445 35.1389 16.5069 34.8614C14.3245 34.5145 12.4237 32.9189 11.6141 30.8723C10.6637 28.5829 11.2269 25.7732 12.9869 24.0041C14.5709 22.4778 16.1197 20.9169 17.7037 19.3906Z" fill="black"/>
<path fill-rule="evenodd" clip-rule="evenodd" d="M3.76532 11.6206C4.96212 11.1003 6.29972 10.8228 7.56692 11.1003C9.01012 11.2737 10.3477 12.0368 11.3685 13.0428C12.8469 14.5344 14.3957 15.9912 15.8741 17.4828C14.3605 19.0091 12.8117 20.5007 11.2629 22.0269C9.99572 23.3104 8.20052 24.0388 6.37012 23.9347C3.02612 24.0041 -0.036277 20.9863 -0.001077 17.6563C-0.141877 15.1587 1.44212 12.6612 3.76532 11.6206Z" fill="black"/>
<path fill-rule="evenodd" clip-rule="evenodd" d="M24.2519 12.9039C25.7655 11.4123 28.0887 10.6839 30.2007 11.1348C33.1927 11.6551 35.5863 14.4995 35.4807 17.5174C35.5511 19.8761 34.1079 22.1655 31.9607 23.2409C29.8135 24.3509 27.0327 24.1774 25.0615 22.7552C24.3223 22.2349 23.7239 21.5759 23.0903 20.9515C21.9287 19.8068 20.7319 18.6621 19.5703 17.4827C21.1543 15.9564 22.7031 14.4302 24.2519 12.9039Z" fill="black"/>
<path fill-rule="evenodd" clip-rule="evenodd" d="M67.266 24.4204C67.3012 24.1429 67.3364 23.8654 67.4068 23.6226C67.4772 23.9347 67.5124 24.2816 67.5124 24.5938C67.5124 26.8485 67.5124 29.1032 67.5124 31.3579C66.8084 31.3579 66.1044 31.3579 65.4004 31.3579C65.4004 29.4154 65.4004 27.4729 65.4004 25.5304C65.4356 25.5304 65.5412 25.5651 65.5764 25.5651C65.6468 27.4382 65.5764 29.3114 65.6116 31.2192C66.1396 31.2539 66.7028 31.2886 67.2308 31.2886C67.3364 28.9992 67.1956 26.7098 67.266 24.4204Z" fill="black"/>
<path fill-rule="evenodd" clip-rule="evenodd" d="M116.018 23.6226C116.088 23.6572 116.194 23.7613 116.264 23.796C116.194 25.7732 116.264 27.7851 116.229 29.7623C116.229 30.2132 116.194 30.6989 116.264 31.1498C116.792 31.2886 117.355 31.2886 117.883 31.1498C117.989 30.1786 117.848 29.2073 118.024 28.236C118.13 29.242 118.024 30.2826 118.13 31.3233C117.426 31.3579 116.722 31.3579 116.053 31.3233C116.018 28.791 116.018 26.2241 116.018 23.6226Z" fill="black"/>
<path fill-rule="evenodd" clip-rule="evenodd" d="M117.744 23.7266C117.815 23.7266 117.991 23.7266 118.061 23.6919C118.026 24.7325 118.096 25.7732 117.991 26.8138C117.744 25.7732 118.096 24.6978 117.744 23.7266Z" fill="black"/>
<path fill-rule="evenodd" clip-rule="evenodd" d="M126.859 28.1319C128.513 28.1319 130.132 28.2012 131.787 28.0972C131.681 28.4787 131.224 28.3053 130.942 28.34C129.217 28.3053 127.457 28.4094 125.732 28.2706C126.12 28.2359 126.472 28.1319 126.859 28.1319Z" fill="black"/>
</svg>
