<svg width="177" height="35" viewBox="0 0 177 35" fill="none" xmlns="http://www.w3.org/2000/svg">
<g clip-path="url(#clip0_2404_2098)">
<path fill-rule="evenodd" clip-rule="evenodd" d="M16.1422 0.207972C17.5582 -0.173594 19.0804 -0.0348429 20.4256 0.520162C22.231 1.24861 23.6824 2.84425 24.2134 4.71739C24.886 6.9721 24.178 9.53899 22.4434 11.1346C20.8858 12.6262 19.3636 14.1872 17.806 15.644C16.6024 14.4647 15.3988 13.2853 14.1952 12.0712C13.4518 11.3428 12.673 10.649 12.142 9.74712C11.1862 8.15148 10.9738 6.13959 11.5756 4.37051C12.2482 2.35862 14.0536 0.728289 16.1422 0.207972Z" fill="#5FAE2C"/>
<path fill-rule="evenodd" clip-rule="evenodd" d="M44.3562 24.8365C45.4536 23.4836 47.5068 23.0327 49.1352 23.6918C49.9848 24.0039 50.6928 24.6283 51.153 25.3915C50.5866 25.773 49.9848 26.0852 49.383 26.4321C48.852 25.4955 47.5776 25.114 46.5864 25.6343C45.1704 26.2587 45.0288 28.5134 46.374 29.2765C47.3652 29.9356 48.7812 29.5887 49.383 28.6174C49.9848 28.9296 50.5512 29.2418 51.153 29.5887C50.0202 31.7393 46.8696 32.2596 44.9934 30.8028C43.1526 29.4152 42.9048 26.5362 44.3562 24.8365Z" fill="#5FAE2C"/>
<path fill-rule="evenodd" clip-rule="evenodd" d="M70.1275 24.5588C71.4727 23.2407 73.7383 23.0325 75.3313 24.0385C76.7827 24.9404 77.3844 26.7788 77.0658 28.3745C75.0834 28.4092 73.0657 28.3051 71.0833 28.4092C71.2957 28.8254 71.5434 29.2417 72.0036 29.4845C72.9948 30.0048 74.3755 29.866 75.1543 29.0335C75.6853 29.3457 76.2516 29.6579 76.7826 29.9701C75.3312 32.0167 72.0391 32.1554 70.1983 30.5251C68.5344 28.9642 68.5345 26.1198 70.1275 24.5588ZM71.8975 25.5648C71.4727 25.8076 71.2602 26.2932 71.0478 26.7441C72.393 26.7788 73.7383 26.7788 75.0835 26.7441C74.9419 26.3973 74.8002 26.0504 74.517 25.8076C73.8798 25.0791 72.6763 25.0444 71.8975 25.5648Z" fill="#5FAE2C"/>
<path fill-rule="evenodd" clip-rule="evenodd" d="M80.2876 24.4548C81.1018 23.5529 82.4116 23.206 83.5798 23.4488C84.5356 23.657 85.3852 24.212 85.9516 25.0098C87.0136 26.5014 86.9782 28.652 85.8454 30.1089C84.6064 31.8086 81.739 32.1555 80.2876 30.5251C80.2876 31.8433 80.2876 33.1614 80.2876 34.4449C79.615 34.4449 78.9424 34.4449 78.2344 34.4449C78.2344 30.8373 78.2344 27.2298 78.2344 23.6223C78.907 23.6223 79.5796 23.6223 80.2876 23.6223C80.2876 23.8998 80.2876 24.1773 80.2876 24.4548ZM81.739 25.426C80.2876 25.8423 79.8274 27.8195 80.7832 28.9295C81.562 29.9008 83.2612 29.9354 84.0754 28.9989C84.8896 28.1317 84.8188 26.6401 83.8984 25.8423C83.332 25.322 82.4824 25.2179 81.739 25.426Z" fill="#5FAE2C"/>
<path fill-rule="evenodd" clip-rule="evenodd" d="M100.076 23.518C101.315 23.1711 102.696 23.518 103.545 24.4546C103.545 24.1771 103.545 23.8995 103.545 23.622C104.253 23.622 104.961 23.622 105.634 23.622C105.634 26.1889 105.669 28.7905 105.598 31.3574C104.89 31.3574 104.218 31.3574 103.51 31.3227C103.51 31.0452 103.51 30.7677 103.51 30.4902C102.094 32.1206 99.2618 31.8084 98.0228 30.1087C97.067 28.8946 96.8546 27.1602 97.4564 25.7727C97.9166 24.6974 98.9078 23.7955 100.076 23.518ZM100.713 25.4258C99.2972 25.8074 98.7662 27.6805 99.6158 28.7905C100.288 29.7965 101.917 29.9352 102.837 29.1721C103.687 28.4436 103.828 27.0561 103.156 26.1889C102.625 25.4258 101.598 25.183 100.713 25.4258Z" fill="#5FAE2C"/>
<path fill-rule="evenodd" clip-rule="evenodd" d="M109.21 24.4199C110.06 23.4833 111.44 23.1711 112.644 23.4833C113.847 23.7608 114.839 24.6974 115.263 25.8074C115.759 27.0214 115.688 28.4436 115.051 29.5883C114.555 30.4555 113.706 31.184 112.715 31.4268C111.476 31.7737 110.095 31.4615 109.21 30.5249C109.21 31.8084 109.245 33.1265 109.175 34.4099C108.502 34.4099 107.794 34.4099 107.121 34.4099C107.051 30.8024 107.121 27.1949 107.086 23.5873C107.794 23.5873 108.502 23.5873 109.175 23.5873C109.21 23.8995 109.21 24.177 109.21 24.4199ZM110.732 25.3911C109.352 25.738 108.821 27.4724 109.493 28.6171C110.095 29.7271 111.759 29.9699 112.75 29.2068C113.847 28.3743 113.847 26.5358 112.715 25.738C112.148 25.3217 111.369 25.2524 110.732 25.3911Z" fill="#5FAE2C"/>
<path fill-rule="evenodd" clip-rule="evenodd" d="M125.67 24.4546C126.909 23.3099 128.927 23.0671 130.449 23.8302C131.476 24.3505 132.219 25.3565 132.467 26.4665C132.573 27.0215 132.538 27.5765 132.573 28.1315C130.91 28.2355 129.281 28.1662 127.617 28.1662C127.228 28.1662 126.874 28.2355 126.485 28.3049C126.697 28.7559 126.98 29.2415 127.44 29.4843C128.432 29.9699 129.741 29.8312 130.52 28.9987C131.087 29.3109 131.618 29.6231 132.149 29.9352C130.803 31.8778 127.794 32.0859 125.954 30.7677C123.936 29.3455 123.83 26.0502 125.67 24.4546ZM126.485 26.744C127.83 26.744 129.175 26.7787 130.52 26.7093C130.343 26.2236 130.06 25.738 129.6 25.4605C128.467 24.8014 126.732 25.3911 126.485 26.744Z" fill="#5FAE2C"/>
<path fill-rule="evenodd" clip-rule="evenodd" d="M51.4355 23.6221C52.1435 23.6221 52.8869 23.6221 53.5949 23.6221C54.3029 25.3218 54.9756 27.0215 55.6836 28.6865C56.3208 27.0215 56.8517 25.2871 57.4182 23.6221C58.1616 23.6221 58.905 23.6221 59.6484 23.6221C58.6572 26.2583 57.7014 28.9293 56.6748 31.5656C56.25 32.6756 55.4712 33.7856 54.2675 34.2365C53.7365 34.4447 53.1347 34.4794 52.5683 34.4794C52.5683 33.855 52.5683 33.2653 52.5683 32.6409C53.0639 32.5715 53.6303 32.5368 54.0198 32.1553C54.3384 31.8431 54.6923 31.3921 54.4445 30.9412C53.4533 28.4784 52.3913 26.0849 51.4355 23.6221Z" fill="#5FAE2C"/>
<path fill-rule="evenodd" clip-rule="evenodd" d="M60.6389 23.6221C63.0107 23.6221 65.4179 23.6568 67.7897 23.6221C67.7189 23.8996 67.6835 24.1771 67.6481 24.4199C67.5773 26.7093 67.7189 28.9987 67.5773 31.2534C67.0463 31.2534 66.4799 31.2187 65.9489 31.184C65.9135 29.3109 65.9843 27.4377 65.9135 25.5299C65.8781 25.5299 65.7719 25.4952 65.7365 25.4952C64.7099 25.4258 63.7187 25.4952 62.6921 25.4605C62.6567 27.403 62.7275 29.3456 62.6921 31.3228C61.9841 31.3575 61.3115 31.3575 60.6035 31.3228C60.6389 28.7906 60.5681 26.189 60.6389 23.6221Z" fill="#5FAE2C"/>
<path fill-rule="evenodd" clip-rule="evenodd" d="M87.7913 23.6221C88.4639 23.6221 89.1719 23.6221 89.8445 23.6221C90.5171 24.6974 91.2251 25.7727 91.9331 26.8134C92.6057 25.738 93.3137 24.6974 93.9863 23.6221C94.6589 23.6221 95.3315 23.6221 96.0041 23.6221C96.0041 26.189 96.0041 28.7559 96.0041 31.3228C95.3315 31.3575 94.6589 31.3575 93.9863 31.3228C93.9863 29.8659 93.9863 28.3743 93.9863 26.9174C93.3137 27.958 92.6765 29.0334 91.9331 30.0393C91.0835 29.1027 90.5525 27.9234 89.7737 26.9521C89.7383 28.409 89.7737 29.8659 89.7383 31.3575C89.0657 31.3921 88.3931 31.3921 87.7559 31.3575C87.7913 28.7906 87.7913 26.2237 87.7913 23.6221Z" fill="#5FAE2C"/>
<path fill-rule="evenodd" clip-rule="evenodd" d="M116.678 23.6221C117.386 23.6221 118.094 23.6221 118.802 23.6221C118.802 24.6627 118.802 25.7033 118.802 26.744C119.014 26.744 119.262 26.744 119.474 26.744C120.218 25.7033 120.961 24.6627 121.74 23.6221C122.554 23.6221 123.368 23.6221 124.218 23.6221C123.227 24.9055 122.271 26.1543 121.315 27.4377C122.2 28.5477 123.05 29.6924 123.935 30.8024C124.041 30.9759 124.218 31.1493 124.253 31.3575C123.687 31.3921 123.085 31.3575 122.519 31.3921C122.271 31.3921 121.952 31.4615 121.846 31.184C121.138 30.2474 120.43 29.3109 119.722 28.3743C119.439 28.3743 119.156 28.3743 118.873 28.3743C118.873 29.3802 118.873 30.4209 118.873 31.4268V31.3575C118.766 30.3515 118.873 29.3109 118.766 28.2702C118.589 29.2415 118.731 30.2128 118.625 31.184C118.094 31.3228 117.527 31.3228 116.996 31.184C116.926 30.7331 116.961 30.2474 116.961 29.7965C116.996 27.8193 116.926 25.8074 116.996 23.8302C116.855 23.7608 116.713 23.6914 116.678 23.6221ZM118.412 23.7261C118.766 24.7321 118.412 25.8074 118.66 26.8134C118.766 25.7727 118.696 24.7321 118.731 23.6914C118.66 23.6914 118.483 23.6914 118.412 23.7261Z" fill="#5FAE2C"/>
<path fill-rule="evenodd" clip-rule="evenodd" d="M133.211 23.6221C135.547 23.6221 137.884 23.6221 140.185 23.6221C140.185 24.2465 140.185 24.9055 140.185 25.5299C139.371 25.5299 138.556 25.5299 137.742 25.5299C137.742 27.4724 137.742 29.3802 137.742 31.3228C137.034 31.3575 136.326 31.3575 135.618 31.3228C135.618 29.3802 135.618 27.4377 135.618 25.5299C134.804 25.5299 133.99 25.5299 133.176 25.5299C133.14 24.9055 133.14 24.2811 133.211 23.6221Z" fill="#5FAE2C"/>
<path fill-rule="evenodd" clip-rule="evenodd" d="M43.7539 1.2832C47.4709 1.2832 51.1525 1.2832 54.8695 1.2832C54.9049 6.03543 54.9049 10.8224 54.8695 15.5746C53.8783 15.5746 52.8871 15.5746 51.8959 15.5746C51.8959 11.6895 51.8959 7.8392 51.8959 3.95416C50.1613 3.95416 48.4267 3.95416 46.6921 3.95416C46.6921 7.8392 46.6921 11.6895 46.6921 15.5746C45.7009 15.5746 44.7451 15.5746 43.7539 15.5746C43.7539 10.8224 43.7539 6.03543 43.7539 1.2832Z" fill="#005A27"/>
<path fill-rule="evenodd" clip-rule="evenodd" d="M122.624 1.42184C123.58 0.866839 124.854 1.73403 124.713 2.80936C124.677 3.88468 123.261 4.47437 122.412 3.8153C121.562 3.2603 121.704 1.87279 122.624 1.42184Z" fill="#005A27"/>
<path fill-rule="evenodd" clip-rule="evenodd" d="M126.732 1.38728C127.475 1.07509 128.431 1.42197 128.643 2.21979C128.926 2.87886 128.537 3.74605 127.829 3.98887C127.05 4.33574 125.988 3.81543 125.882 2.94823C125.776 2.32385 126.13 1.63009 126.732 1.38728Z" fill="#005A27"/>
<path fill-rule="evenodd" clip-rule="evenodd" d="M134.377 5.89644C136.005 4.75175 138.271 4.57831 140.076 5.41081C141.067 5.86176 141.917 6.65958 142.448 7.59615C141.669 8.04709 140.89 8.49803 140.076 8.94897C139.297 7.42271 136.996 7.11052 135.757 8.25522C134.731 9.12241 134.554 10.6834 135.155 11.8281C135.686 12.834 136.89 13.3543 138.023 13.2156C138.908 13.1809 139.687 12.5912 140.111 11.8627C140.89 12.3137 141.704 12.7646 142.483 13.2156C141.74 14.4643 140.501 15.4009 139.049 15.7478C137.563 16.0947 135.934 15.8865 134.624 15.0887C133.385 14.3603 132.5 13.1115 132.182 11.724C131.722 9.57335 132.5 7.14521 134.377 5.89644Z" fill="#005A27"/>
<path fill-rule="evenodd" clip-rule="evenodd" d="M158.697 4.95995C160.998 4.57838 163.511 5.72308 164.573 7.80435C165.281 9.15717 165.423 10.8222 164.892 12.2444C164.396 13.6319 163.299 14.8113 161.918 15.401C159.476 16.511 156.29 15.6785 154.838 13.4238C153.706 11.7241 153.635 9.39999 154.661 7.63091C155.546 6.20871 157.069 5.20276 158.697 4.95995ZM158.697 7.6656C156.927 8.15122 156.219 10.4406 157.139 11.8975C157.918 13.285 160.007 13.6666 161.281 12.73C162.733 11.7588 162.874 9.53874 161.671 8.32466C160.927 7.59622 159.724 7.31872 158.697 7.6656Z" fill="#005A27"/>
<path fill-rule="evenodd" clip-rule="evenodd" d="M59.9316 5.30676C61.383 4.75176 63.0822 4.71707 64.5336 5.34145C65.454 5.7577 66.2682 6.45146 66.7638 7.31865C67.578 8.53273 67.755 10.059 67.5426 11.4812C64.8522 11.4812 62.1618 11.4812 59.5068 11.4812C59.7546 12.1403 60.144 12.7646 60.7812 13.0421C62.091 13.7012 63.8964 13.5278 64.8876 12.3831C65.631 12.7993 66.3744 13.2156 67.0824 13.6318C66.339 14.6378 65.2416 15.4356 63.9672 15.6784C62.0556 16.0947 59.8608 15.7825 58.374 14.4643C56.8164 13.1115 56.2854 10.8221 56.781 8.87961C57.2058 7.31865 58.374 5.93114 59.9316 5.30676ZM60.7104 7.66553C60.0378 8.01241 59.6838 8.67148 59.436 9.36524C61.2414 9.39992 63.0468 9.36524 64.8876 9.36524C64.7106 8.81023 64.4628 8.25523 63.9672 7.87366C63.0468 7.1799 61.7016 7.14522 60.7104 7.66553Z" fill="#005A27"/>
<path fill-rule="evenodd" clip-rule="evenodd" d="M72.2512 6.38232C73.8796 4.37043 77.278 4.47449 79.0834 6.20888C81.349 8.22077 81.4906 12.0017 79.4728 14.2218C78.4108 15.4011 76.7824 16.0602 75.1894 15.8868C74.0566 15.8174 72.9946 15.2971 72.2512 14.4299C72.2512 16.199 72.2512 18.0027 72.2512 19.7718C71.3308 19.7718 70.4458 19.7718 69.5254 19.7718C69.5254 14.9155 69.5254 10.0592 69.5254 5.20294C70.4458 5.20294 71.3662 5.20294 72.2512 5.20294C72.2512 5.5845 72.2512 5.96607 72.2512 6.38232ZM74.5168 7.52702C73.9504 7.66577 73.4194 7.94327 73.03 8.35953C72.0034 9.50422 72.0034 11.4121 73.1008 12.4874C74.1274 13.528 76.0036 13.5974 77.1364 12.6608C78.3754 11.6549 78.4816 9.60829 77.4196 8.4289C76.7116 7.59639 75.5434 7.2842 74.5168 7.52702Z" fill="#005A27"/>
<path fill-rule="evenodd" clip-rule="evenodd" d="M83.5081 6.79844C84.9595 5.02936 87.6145 4.47435 89.7739 5.2028C91.3669 5.7578 92.5705 7.14532 93.0307 8.70627C93.3139 9.60815 93.2785 10.5447 93.1723 11.4813C90.4819 11.4813 87.8269 11.4813 85.1365 11.4813C85.3489 12.0363 85.6321 12.626 86.1985 12.9382C87.5437 13.736 89.4907 13.5972 90.5527 12.4179C91.2961 12.8341 92.0041 13.2504 92.7475 13.6666C92.0041 14.7419 90.8359 15.5051 89.5261 15.7479C87.6499 16.1295 85.5613 15.8173 84.0745 14.5338C81.8443 12.6607 81.6673 9.01846 83.5081 6.79844ZM86.3401 7.70032C85.6675 8.0472 85.3135 8.74096 85.1011 9.40002C86.9065 9.40002 88.7119 9.40002 90.5173 9.40002C90.3757 8.87971 90.1633 8.39408 89.7385 8.01251C88.8535 7.18 87.3667 7.11063 86.3401 7.70032Z" fill="#005A27"/>
<path fill-rule="evenodd" clip-rule="evenodd" d="M109.81 6.38232C111.509 4.37042 114.907 4.47449 116.713 6.27825C118.908 8.29015 119.049 12.0364 116.996 14.2218C115.934 15.4011 114.306 16.0255 112.713 15.8521C111.58 15.7827 110.553 15.2277 109.81 14.3952C109.81 16.1643 109.81 17.9334 109.81 19.7371C108.889 19.7371 108.004 19.7371 107.084 19.7371C107.084 14.8808 107.084 10.0245 107.084 5.16824C108.004 5.16824 108.889 5.16824 109.81 5.16824C109.81 5.5845 109.81 5.96606 109.81 6.38232ZM112.04 7.52702C111.403 7.66577 110.836 8.01264 110.447 8.49827C109.527 9.67766 109.633 11.5855 110.801 12.5914C111.863 13.528 113.598 13.528 114.695 12.6608C115.969 11.5855 116.076 9.46953 114.907 8.29015C114.164 7.5617 113.031 7.2842 112.04 7.52702Z" fill="#005A27"/>
<path fill-rule="evenodd" clip-rule="evenodd" d="M121.066 6.79872C122.836 4.64807 126.447 4.23182 128.677 5.93152C130.376 7.18028 131.119 9.46968 130.695 11.4816C128.004 11.4816 125.349 11.4816 122.659 11.4816C122.871 12.0713 123.225 12.661 123.792 12.9731C125.137 13.7363 127.013 13.5628 128.075 12.3835C128.818 12.7997 129.562 13.216 130.27 13.6322C129.526 14.6728 128.394 15.436 127.119 15.7135C125.243 16.1297 123.084 15.7829 121.597 14.5341C119.437 12.661 119.225 9.01873 121.066 6.79872ZM123.615 7.87404C123.119 8.22092 122.836 8.81061 122.659 9.4003C124.464 9.4003 126.27 9.4003 128.075 9.4003C127.933 8.87998 127.721 8.39435 127.296 8.01279C126.305 7.11091 124.641 7.07622 123.615 7.87404Z" fill="#005A27"/>
<path fill-rule="evenodd" clip-rule="evenodd" d="M95.1543 5.16797C96.0747 5.16797 96.9951 5.16797 97.9155 5.16797C97.9155 6.59017 97.9155 8.01237 97.9155 9.39988C98.2341 9.39988 98.5173 9.39988 98.8359 9.39988C99.8625 7.97768 100.889 6.59017 101.916 5.16797C103.013 5.16797 104.111 5.16797 105.208 5.16797C103.898 6.90236 102.553 8.60206 101.243 10.3018C102.588 12.0708 103.934 13.8399 105.314 15.5743C104.252 15.5743 103.155 15.5743 102.093 15.5743C101.066 14.2215 100.039 12.834 99.0483 11.4811C98.6589 11.4811 98.3049 11.4811 97.9155 11.4811C97.9155 12.834 97.9155 14.2215 97.9155 15.5743C96.9951 15.5743 96.0747 15.5743 95.1543 15.5743C95.1543 12.1055 95.1543 8.63675 95.1543 5.16797Z" fill="#005A27"/>
<path fill-rule="evenodd" clip-rule="evenodd" d="M143.723 5.16797C146.838 5.16797 149.988 5.16797 153.104 5.16797C153.104 6.03516 153.104 6.90236 153.104 7.76955C152.006 7.76955 150.909 7.76955 149.811 7.76955C149.811 10.3711 149.811 12.9727 149.811 15.609C148.891 15.609 147.971 15.609 147.015 15.609C146.979 13.0074 147.015 10.4058 147.015 7.76955C145.917 7.76955 144.82 7.76955 143.723 7.76955C143.723 6.90236 143.723 6.03516 143.723 5.16797Z" fill="#005A27"/>
<path fill-rule="evenodd" clip-rule="evenodd" d="M166.84 5.16797C167.76 5.16797 168.645 5.16797 169.566 5.16797C169.566 6.59017 169.566 8.01237 169.566 9.39988C169.884 9.39988 170.167 9.39988 170.486 9.39988C171.513 7.97768 172.539 6.59017 173.566 5.16797C174.663 5.16797 175.761 5.16797 176.858 5.16797C175.513 6.86767 174.238 8.60206 172.893 10.3018C174.238 12.0708 175.584 13.8052 176.964 15.5743C175.902 15.5743 174.84 15.5743 173.778 15.5743C172.752 14.2215 171.725 12.834 170.698 11.4811C170.309 11.4811 169.92 11.4811 169.566 11.4811C169.566 12.834 169.566 14.2215 169.566 15.5743C168.645 15.5743 167.76 15.5743 166.84 15.5743C166.84 12.1055 166.84 8.63675 166.84 5.16797Z" fill="#005A27"/>
<path fill-rule="evenodd" clip-rule="evenodd" d="M17.8054 19.3901C17.9824 19.3901 18.0886 19.5636 18.2302 19.6676C19.4692 20.8817 20.6728 22.0611 21.9118 23.2752C22.549 23.8649 23.1508 24.4892 23.5756 25.2524C24.496 26.7786 24.7084 28.6518 24.2128 30.3515C23.6818 32.1206 22.3012 33.6468 20.5666 34.41C19.3276 34.9303 17.947 35.1384 16.6018 34.8609C14.407 34.514 12.4954 32.9184 11.6812 30.8718C10.7254 28.5824 11.2918 25.7727 13.0618 24.0036C14.6548 22.4773 16.2124 20.9164 17.8054 19.3901Z" fill="#005A27"/>
<path fill-rule="evenodd" clip-rule="evenodd" d="M3.78677 11.6201C4.99037 11.0998 6.33557 10.8223 7.60997 11.0998C9.06137 11.2732 10.4066 12.0363 11.4332 13.0423C12.92 14.5339 14.4776 15.9908 15.9644 17.4823C14.4422 19.0086 12.8846 20.5002 11.327 22.0264C10.0526 23.3099 8.24717 24.0383 6.40637 23.9343C3.04337 24.0036 -0.0364276 20.9858 -0.00102763 17.6558C-0.142628 15.1582 1.45037 12.6607 3.78677 11.6201Z" fill="#A9E641"/>
<path fill-rule="evenodd" clip-rule="evenodd" d="M24.3898 12.9039C25.912 11.4123 28.2484 10.6839 30.3724 11.1348C33.3814 11.6551 35.7886 14.4995 35.6824 17.5174C35.7532 19.8761 34.3018 22.1655 32.1424 23.2409C29.983 24.3509 27.1864 24.1774 25.204 22.7552C24.4606 22.2349 23.8588 21.5759 23.2216 20.9515C22.0534 19.8068 20.8498 18.6621 19.6816 17.4827C21.2746 15.9564 22.8322 14.4302 24.3898 12.9039Z" fill="#1E8537"/>
<path fill-rule="evenodd" clip-rule="evenodd" d="M67.6477 24.4199C67.6831 24.1424 67.7185 23.8649 67.7893 23.6221C67.8601 23.9343 67.8955 24.2811 67.8955 24.5933C67.8955 26.848 67.8955 29.1027 67.8955 31.3575C67.1875 31.3575 66.4795 31.3575 65.7715 31.3575C65.7715 29.4149 65.7715 27.4724 65.7715 25.5299C65.8069 25.5299 65.9131 25.5646 65.9485 25.5646C66.0193 27.4377 65.9485 29.3109 65.9839 31.2187C66.5149 31.2534 67.0813 31.2881 67.6123 31.2881C67.7185 28.9987 67.5769 26.7093 67.6477 24.4199Z" fill="#6CA14A"/>
<path fill-rule="evenodd" clip-rule="evenodd" d="M116.678 23.6221C116.749 23.6568 116.855 23.7608 116.926 23.7955C116.855 25.7727 116.926 27.7846 116.89 29.7618C116.89 30.2128 116.855 30.6984 116.926 31.1493C117.457 31.2881 118.023 31.2881 118.554 31.1493C118.66 30.1781 118.519 29.2068 118.696 28.2355C118.802 29.2415 118.696 30.2821 118.802 31.3228C118.094 31.3575 117.386 31.3575 116.713 31.3228C116.678 28.7906 116.678 26.2237 116.678 23.6221Z" fill="#6DA04B"/>
<path fill-rule="evenodd" clip-rule="evenodd" d="M118.412 23.7266C118.483 23.7266 118.66 23.7266 118.731 23.6919C118.695 24.7325 118.766 25.7732 118.66 26.8138C118.412 25.7732 118.766 24.6978 118.412 23.7266Z" fill="#6CA149"/>
<path fill-rule="evenodd" clip-rule="evenodd" d="M127.58 28.1319C129.244 28.1319 130.872 28.2012 132.536 28.0972C132.43 28.4787 131.97 28.3053 131.686 28.34C129.952 28.3053 128.182 28.4094 126.447 28.2706C126.837 28.2359 127.191 28.1319 127.58 28.1319Z" fill="#6E9F4F"/>
</g>
<defs>
<clipPath id="clip0_2404_2098">
<rect width="177" height="35" fill="white"/>
</clipPath>
</defs>
</svg>
