<svg width="358" height="83" viewBox="0 0 358 83" fill="none" xmlns="http://www.w3.org/2000/svg">
<g clip-path="url(#clip0_2346_1198)">
<path fill-rule="evenodd" clip-rule="evenodd" d="M77.9 9.2C77.9 4.1 73.8 0 68.7 0H9.2C4.1 0 0 4.1 0 9.2V38.9C0 60.4 17.4 77.8 38.9 77.8C60.4 77.8 77.8 60.4 77.8 38.9L77.9 9.2Z" fill="#FFCE00"/>
<path fill-rule="evenodd" clip-rule="evenodd" d="M49.099 49.1998C49.099 46.2998 45.699 44.1998 42.699 46.5998C40.399 49.4998 42.4991 52.8998 45.399 52.8998C47.4991 52.8998 49.099 51.2998 49.099 49.1998ZM36.099 49.1998C36.099 47.1998 34.399 45.5998 32.399 45.5998C29.499 45.5998 27.399 48.9998 29.799 51.9998C32.799 54.1998 36.099 52.0998 36.099 49.1998Z" fill="#1D1D1B"/>
<path fill-rule="evenodd" clip-rule="evenodd" d="M240.301 52.1002C240.401 55.7002 245.101 58.1002 248.501 53.9002V42.9002H261.901V53.8002C265.301 58.1002 270.101 55.6002 270.101 52.1002V23.9002C266.701 19.6002 261.901 22.1002 261.901 25.6002V34.8002H248.401V23.8002C245.001 19.6002 240.201 22.0002 240.201 25.6002L240.301 52.1002ZM142.501 30.1002V54.2002C146.201 58.1002 150.801 55.8002 150.801 52.2002V30.1002H158.801C163.201 26.7002 160.601 22.0002 157.001 22.0002H136.301C132.701 22.0002 130.201 26.7002 134.501 30.1002H142.501ZM113.601 40.0002L122.301 23.7002C123.301 21.8002 125.701 20.9002 127.701 21.9002C129.801 22.9002 130.401 25.5002 129.401 27.4002L122.701 40.1002C120.801 43.7002 118.801 47.4002 116.101 50.4002C113.201 53.7002 109.101 56.0002 104.501 56.0002C102.401 56.0002 100.401 54.6002 100.401 52.1002C100.401 50.0002 101.901 48.4002 104.101 48.2002C105.701 48.1002 107.201 47.7002 108.601 46.8002L97.1006 27.6002C95.9006 25.6002 96.6006 23.2002 98.6006 22.0002C100.601 21.1002 102.901 21.8002 104.001 23.6002L113.601 40.0002ZM276.601 38.9002C276.601 48.8002 283.901 56.1002 293.901 56.1002C306.601 56.1002 315.001 44.2002 309.501 30.4002C308.401 27.6002 305.101 24.3002 302.201 23.2002C288.301 18.0002 276.601 26.4002 276.601 38.9002ZM303.001 38.9002C303.001 44.2002 299.301 48.2002 294.001 48.2002C288.601 48.2002 285.001 44.2002 285.001 38.9002C285.001 33.6002 288.701 29.6002 294.001 29.6002C299.301 29.6002 303.001 33.6002 303.001 38.9002ZM339.401 30.1002C341.701 30.1002 343.501 28.3002 343.501 26.1002C343.501 23.9002 341.701 22.1002 339.401 22.1002H333.201C323.101 22.1002 315.901 29.3002 315.901 39.0002C315.901 48.7002 323.101 55.9002 333.201 55.9002H339.401C341.701 55.9002 343.501 54.1002 343.501 51.9002C343.501 49.7002 341.701 47.9002 339.401 47.9002H333.001C327.601 47.9002 324.101 44.1002 324.101 39.0002C324.101 33.9002 327.701 30.1002 333.001 30.1002H339.401ZM189.001 55.0002C190.501 56.6002 193.101 56.6002 194.601 55.1002C196.101 53.6002 196.301 51.0002 194.801 49.5002L184.401 38.8002L194.401 28.5002C195.901 26.9002 195.801 24.4002 194.201 22.9002C192.701 21.3002 190.101 21.4002 188.601 23.0002L178.301 33.6002C177.401 34.5002 176.801 34.7002 176.101 34.7002C175.101 34.7002 174.201 34.0002 174.201 32.9002V24.0002C170.801 19.8002 166.001 22.2002 166.001 25.8002V54.1002C169.401 58.3002 174.201 55.9002 174.201 52.3002V42.9002C175.901 43.3002 176.601 42.4002 178.301 44.1002L189.001 55.0002ZM199.201 38.9002C199.201 48.8002 206.501 56.1002 216.501 56.1002C229.201 56.1002 237.601 44.2002 232.101 30.4002C231.001 27.6002 227.701 24.3002 224.801 23.2002C210.801 18.0002 199.201 26.4002 199.201 38.9002ZM225.501 38.9002C225.501 44.2002 221.801 48.2002 216.501 48.2002C211.101 48.2002 207.501 44.2002 207.501 38.9002C207.501 33.6002 211.201 29.6002 216.501 29.6002C221.801 29.6002 225.501 33.6002 225.501 38.9002ZM353.601 35.7002C355.801 35.7002 357.701 33.9002 357.701 31.6002C357.701 29.3002 355.801 27.5002 353.601 27.5002C351.301 27.5002 349.501 29.3002 349.501 31.6002C349.501 33.9002 351.301 35.7002 353.601 35.7002ZM353.601 50.4002C355.801 50.4002 357.701 48.5002 357.701 46.2002C357.701 43.9002 355.801 42.1002 353.601 42.1002C351.301 42.1002 349.501 43.9002 349.501 46.2002C349.501 48.5002 351.301 50.4002 353.601 50.4002Z" fill="#2FA736"/>
<path fill-rule="evenodd" clip-rule="evenodd" d="M106.7 76.6C105.7 77.6 104.4 78.1 102.9 78.1C101.4 78.1 100.1 77.6 99.0996 76.6C98.0996 75.6 97.5996 74.3 97.5996 72.8C97.5996 71.3 98.0996 70 99.0996 69C100.1 68 101.4 67.5 102.9 67.5C104.4 67.5 105.7 68 106.7 69C107.7 70 108.2 71.3 108.2 72.8C108.2 74.3 107.7 75.6 106.7 76.6ZM100.1 75.5C100.8 76.2 101.7 76.6 102.9 76.6C104 76.6 104.9 76.2 105.6 75.5C106.3 74.8 106.7 73.9 106.7 72.8C106.7 71.7 106.3 70.8 105.6 70.1C104.9 69.4 104 69 102.9 69C101.8 69 100.9 69.4 100.1 70.1C99.3996 70.8 98.9996 71.7 98.9996 72.8C98.9996 73.9 99.3996 74.8 100.1 75.5Z" fill="#1D1D1B"/>
<path fill-rule="evenodd" clip-rule="evenodd" d="M119.9 68.3V77.2C119.9 77.6 119.6 78 119.1 78C118.7 78 118.3 77.7 118.3 77.2V73.3H112.6V77.2C112.6 77.6 112.3 78 111.8 78C111.4 78 111 77.7 111 77.2V68.3C111 67.9 111.3 67.5 111.8 67.5C112.2 67.5 112.6 67.8 112.6 68.3V71.9H118.3V68.3C118.3 67.9 118.6 67.5 119.1 67.5C119.6 67.6 119.9 67.9 119.9 68.3Z" fill="#1D1D1B"/>
<path fill-rule="evenodd" clip-rule="evenodd" d="M130.3 77.3001V69.2001H126.4L126.1 73.7001C125.9 76.7001 125 77.9001 123 77.9001C122 78.0001 122 76.4001 123 76.4001C124.1 76.4001 124.6 75.6001 124.7 73.3001L125 68.4001C125 68.0001 125.4 67.6001 125.8 67.6001H131.1C131.5 67.6001 131.9 67.9001 131.9 68.4001V77.2001C131.9 77.6001 131.6 78.0001 131.1 78.0001C130.6 78.0001 130.3 77.7001 130.3 77.3001Z" fill="#1D1D1B"/>
<path fill-rule="evenodd" clip-rule="evenodd" d="M144.8 77.3001C144.8 77.7001 144.5 78.1001 144 78.1001C143.6 78.1001 143.2 77.8001 143.2 77.3001V76.9001C142.3 77.7001 141.2 78.2001 139.8 78.2001C138.3 78.2001 137.1 77.7001 136.1 76.7001C135.1 75.7001 134.6 74.4001 134.6 72.9001C134.6 71.4001 135.1 70.1001 136 69.1001C137 68.1001 138.2 67.6001 139.7 67.6001C141 67.6001 142.2 68.0001 143.1 68.8001V68.4001C143.1 68.0001 143.4 67.6001 143.9 67.6001C144.3 67.6001 144.7 67.9001 144.7 68.4001V77.3001H144.8ZM143.3 75.0001V70.6001C142.5 69.5001 141.5 69.0001 140.1 69.0001C139 69.0001 138.1 69.4001 137.3 70.1001C136.6 70.8001 136.2 71.7001 136.2 72.8001C136.2 73.9001 136.5 74.8001 137.3 75.6001C138 76.3001 139 76.7001 140.1 76.7001C141.5 76.6001 142.5 76.1001 143.3 75.0001Z" fill="#1D1D1B"/>
<path fill-rule="evenodd" clip-rule="evenodd" d="M155.5 70.1001L149.7 77.7001C149.5 78.0001 149.2 78.1001 148.9 78.0001C148.5 77.9001 148.4 77.6001 148.4 77.2001V68.3001C148.4 67.9001 148.7 67.5001 149.2 67.5001C149.6 67.5001 150 67.8001 150 68.3001V75.4001L155.8 67.9001C156 67.6001 156.3 67.5001 156.7 67.6001C157.1 67.7001 157.2 68.0001 157.2 68.4001V77.3001C157.2 77.7001 156.9 78.1001 156.4 78.1001C156 78.1001 155.6 77.8001 155.6 77.3001L155.5 70.1001ZM151.2 62.8001C151.3 63.8001 151.8 64.2001 152.6 64.3001C153.4 64.3001 153.9 63.8001 154 62.8001C154 61.7001 155.8 61.7001 155.6 63.0001C155.5 64.6001 154.4 65.5001 152.6 65.5001C150.8 65.5001 149.7 64.5001 149.6 63.0001C149.4 61.7001 151.1 61.7001 151.2 62.8001Z" fill="#1D1D1B"/>
<path fill-rule="evenodd" clip-rule="evenodd" d="M169.3 68.3V77.2C169.3 77.6 169 78 168.5 78C168.1 78 167.7 77.7 167.7 77.2V73.3H162V77.2C162 77.6 161.7 78 161.2 78C160.8 78 160.4 77.7 160.4 77.2V68.3C160.4 67.9 160.7 67.5 161.2 67.5C161.6 67.5 162 67.8 162 68.3V71.9H167.7V68.3C167.7 67.9 168 67.5 168.5 67.5C168.9 67.6 169.3 67.9 169.3 68.3Z" fill="#1D1D1B"/>
<path fill-rule="evenodd" clip-rule="evenodd" d="M176.999 70.8001C177.999 70.7001 177.999 72.4001 176.999 72.3001H172.799C171.799 72.4001 171.799 70.7001 172.799 70.8001H176.999Z" fill="#1D1D1B"/>
<path fill-rule="evenodd" clip-rule="evenodd" d="M180.6 68.4001C180.6 68.0001 180.9 67.6001 181.4 67.6001H186.6C187 67.6001 187.3 67.9001 187.3 68.3001C187.3 68.7001 187 69.1001 186.6 69.1001H182.2V77.2001C182.2 78.2001 180.7 78.2001 180.7 77.2001V68.4001H180.6Z" fill="#1D1D1B"/>
<path fill-rule="evenodd" clip-rule="evenodd" d="M196.7 70.1L190.9 77.7C190.7 78 190.4 78.1 190.1 78C189.7 77.9 189.6 77.6 189.6 77.2V68.3C189.6 67.9 189.9 67.5 190.4 67.5C190.8 67.5 191.2 67.8 191.2 68.3V75.4L197 67.9C197.2 67.6 197.5 67.5 197.9 67.6C198.3 67.7 198.4 68 198.4 68.4V77.3C198.4 77.7 198.1 78.1 197.6 78.1C197.2 78.1 196.8 77.8 196.8 77.3L196.7 70.1Z" fill="#1D1D1B"/>
<path fill-rule="evenodd" clip-rule="evenodd" d="M209.8 67.7002C210.2 67.7002 210.6 68.0002 210.6 68.4002V77.2002C210.6 77.6002 210.3 78.0002 209.8 78.0002C209.4 78.0002 209 77.7002 209 77.2002V69.1002H203.2V77.2002C203.2 77.6002 202.9 78.0002 202.4 78.0002C202 78.0002 201.6 77.7002 201.6 77.2002V68.4002C201.6 68.0002 201.9 67.7002 202.4 67.7002H209.8Z" fill="#1D1D1B"/>
<path fill-rule="evenodd" clip-rule="evenodd" d="M222.3 68.9999C223.2 69.9999 223.6 71.1999 223.4 72.5999C223.3 73.0999 223.1 73.3999 222.6 73.3999H214.9C215.2 75.2999 216.7 76.5999 218.9 76.5999C220 76.5999 221 76.1999 221.8 75.4999C222.7 74.6999 223.6 75.8999 222.8 76.4999C221.7 77.4999 220.4 77.9999 218.8 77.9999C217.2 77.9999 215.9 77.4999 214.9 76.4999C213.9 75.4999 213.4 74.1999 213.4 72.6999C213.4 71.1999 213.9 69.8999 214.9 68.8999C215.9 67.8999 217.2 67.3999 218.7 67.3999C220.2 67.4999 221.4 67.9999 222.3 68.9999ZM222 72.0999C222 70.1999 220.6 68.8999 218.7 68.8999C216.8 68.8999 215.3 70.1999 215 72.0999H222Z" fill="#1D1D1B"/>
<path fill-rule="evenodd" clip-rule="evenodd" d="M235 69C236 70 236.5 71.3 236.5 72.8C236.5 74.3 236 75.6 235 76.6C234 77.6 232.8 78.1 231.3 78.1C230 78.1 228.9 77.7 228 76.8V81.6C228 82 227.7 82.4 227.2 82.4C226.8 82.4 226.4 82.1 226.4 81.6V68.3C226.4 67.9 226.7 67.5 227.2 67.5C227.6 67.5 228 67.9 228 68.3V68.8C228.9 68 230 67.5 231.4 67.5C232.8 67.5 234 68 235 69ZM233.9 75.5C234.6 74.8 235 73.9 235 72.7C235 71.6 234.6 70.7 233.9 70C233.2 69.3 232.3 68.9 231.2 68.9C229.8 68.9 228.7 69.4 228 70.5V75C228.7 76 229.8 76.6 231.2 76.6C232.2 76.6 233.2 76.3 233.9 75.5Z" fill="#1D1D1B"/>
<path fill-rule="evenodd" clip-rule="evenodd" d="M249.7 68.3V77.2C249.7 77.6 249.4 78 248.9 78C248.5 78 248.1 77.7 248.1 77.2V69.7L245.1 72.3C244.9 72.5 244.7 72.6 244.5 72.6C244.3 72.6 244.1 72.5 243.9 72.3L240.9 69.7V77.2C240.9 77.6 240.6 78 240.1 78C239.7 78 239.4 77.7 239.4 77.2V68.3C239.4 67.8 239.8 67.5 240.2 67.5C240.4 67.5 240.5 67.6 240.7 67.7L244.5 70.8L248.3 67.7C248.5 67.6 248.7 67.5 248.8 67.5C249.3 67.6 249.7 67.8 249.7 68.3Z" fill="#1D1D1B"/>
<path fill-rule="evenodd" clip-rule="evenodd" d="M262.6 77.3001C262.6 77.7001 262.3 78.1001 261.8 78.1001C261.4 78.1001 261 77.8001 261 77.3001V76.9001C260.1 77.7001 259 78.2001 257.6 78.2001C256.1 78.2001 254.9 77.7001 253.9 76.7001C252.9 75.7001 252.4 74.4001 252.4 72.9001C252.4 71.4001 252.9 70.1001 253.8 69.1001C254.8 68.1001 256 67.6001 257.5 67.6001C258.8 67.6001 260 68.0001 260.9 68.8001V68.4001C260.9 68.0001 261.2 67.6001 261.7 67.6001C262.1 67.6001 262.5 67.9001 262.5 68.4001V77.3001H262.6ZM261.1 75.0001V70.6001C260.3 69.5001 259.3 69.0001 257.9 69.0001C256.8 69.0001 255.9 69.4001 255.1 70.1001C254.4 70.8001 254 71.7001 254 72.8001C254 73.9001 254.3 74.8001 255.1 75.6001C255.8 76.3001 256.8 76.7001 257.9 76.7001C259.3 76.6001 260.4 76.1001 261.1 75.0001Z" fill="#1D1D1B"/>
<path fill-rule="evenodd" clip-rule="evenodd" d="M274.6 69C275.6 70 276.1 71.3 276.1 72.8C276.1 74.3 275.6 75.6 274.6 76.6C273.6 77.6 272.4 78.1 270.9 78.1C269.6 78.1 268.5 77.7 267.6 76.8V81.6C267.6 82 267.3 82.4 266.8 82.4C266.4 82.4 266 82.1 266 81.6V68.3C266 67.9 266.3 67.5 266.8 67.5C267.2 67.5 267.6 67.9 267.6 68.3V68.8C268.5 68 269.6 67.5 271 67.5C272.4 67.5 273.6 68 274.6 69ZM273.5 75.5C274.2 74.8 274.6 73.9 274.6 72.7C274.6 71.6 274.2 70.7 273.5 70C272.8 69.3 271.9 68.9 270.8 68.9C269.4 68.9 268.3 69.4 267.6 70.5V75C268.3 76 269.4 76.6 270.8 76.6C271.9 76.6 272.8 76.3 273.5 75.5Z" fill="#1D1D1B"/>
<path fill-rule="evenodd" clip-rule="evenodd" d="M286.6 76.7001C287 77.0001 287 77.5001 286.7 77.8001C286.4 78.1001 285.9 78.1001 285.6 77.8001L280.6 73.2001V77.3001C280.6 77.7001 280.3 78.1001 279.8 78.1001C279.4 78.1001 279 77.8001 279 77.3001V68.3001C279 67.9001 279.3 67.6001 279.8 67.6001C280.2 67.6001 280.6 67.9001 280.6 68.4001V72.4001L285.4 67.9001C285.7 67.6001 286.2 67.6001 286.5 67.9001C286.8 68.2001 286.8 68.7001 286.4 69.0001L282.1 72.8001L286.6 76.7001Z" fill="#1D1D1B"/>
<path fill-rule="evenodd" clip-rule="evenodd" d="M297.599 68.9999C298.499 69.9999 298.899 71.1999 298.699 72.5999C298.599 73.0999 298.399 73.3999 297.899 73.3999H290.199C290.499 75.2999 291.999 76.5999 294.199 76.5999C295.299 76.5999 296.299 76.1999 297.099 75.4999C297.999 74.6999 298.899 75.8999 298.099 76.4999C296.999 77.4999 295.699 77.9999 294.099 77.9999C292.499 77.9999 291.199 77.4999 290.199 76.4999C289.199 75.4999 288.699 74.1999 288.699 72.6999C288.699 71.1999 289.199 69.8999 290.199 68.8999C291.199 67.8999 292.499 67.3999 293.999 67.3999C295.499 67.4999 296.699 67.9999 297.599 68.9999ZM297.299 72.0999C297.299 70.1999 295.899 68.8999 293.999 68.8999C292.099 68.8999 290.599 70.1999 290.299 72.0999H297.299Z" fill="#1D1D1B"/>
<path fill-rule="evenodd" clip-rule="evenodd" d="M303.699 77.3002V69.2002H300.999C300.599 69.2002 300.199 68.9002 300.199 68.5002C300.199 68.1002 300.499 67.7002 300.999 67.7002H307.899C308.299 67.7002 308.699 68.0002 308.699 68.5002C308.699 68.9002 308.399 69.2002 307.899 69.2002H305.199V77.3002C305.199 77.7002 304.899 78.0002 304.399 78.0002C303.999 78.0002 303.699 77.7002 303.699 77.3002Z" fill="#1D1D1B"/>
</g>
<defs>
<clipPath id="clip0_2346_1198">
<rect width="357.7" height="82.4" fill="white"/>
</clipPath>
</defs>
</svg>
