<svg width="186" height="33" viewBox="0 0 186 33" fill="none" xmlns="http://www.w3.org/2000/svg">
<g opacity="0.75">
<g clip-path="url(#clip0_2404_2183)">
<path fill-rule="evenodd" clip-rule="evenodd" d="M100.116 0.206254C101.807 0.123752 103.499 0.0412508 105.231 0C106.18 0 107.17 0 108.119 0.0825017C109.48 0.206254 110.841 0.49501 111.996 1.19627C112.656 1.60878 113.234 2.14504 113.687 2.76381C114.471 3.87758 114.884 5.19761 115.131 6.51763C115.42 8.12641 115.544 9.77645 115.668 11.4265C115.791 13.2415 115.874 15.0566 115.956 16.9128C116.039 18.6041 116.121 20.2954 116.121 21.9867C116.08 23.5542 116.039 25.1218 115.544 26.6068C115.337 27.2668 115.007 27.9268 114.595 28.5043C114.182 29.0818 113.646 29.5768 113.069 29.9481C111.955 30.6906 110.635 31.0206 109.356 31.2681C108.655 31.3506 107.912 31.3094 107.252 31.0206C106.262 30.6494 105.437 29.8244 105.066 28.8343C104.942 28.5456 104.86 28.2156 104.819 27.8856C104.571 26.1943 104.324 24.503 104.035 22.853C103.787 21.4504 103.499 20.0067 103.045 18.6866C102.673 17.5316 102.096 16.4591 101.271 15.5928C100.487 14.7678 99.5384 14.149 98.4659 13.7778C97.0221 13.2415 95.5371 13.0765 94.0108 12.9115C91.907 12.7053 89.762 12.664 87.6582 12.5815C86.4619 12.499 85.3069 11.839 84.6469 10.8077C84.1931 10.1065 83.9456 9.24019 83.9869 8.41517C84.0694 7.67266 84.1519 6.88889 84.3169 6.18762C84.5231 5.40386 84.8119 4.66134 85.2656 3.96008C85.6369 3.38257 86.1319 2.84631 86.7094 2.47505C87.7407 1.73254 88.937 1.36128 90.1745 1.07252C91.742 0.742515 93.3096 0.618763 94.8771 0.49501C96.5684 0.371258 98.3422 0.288756 100.116 0.206254Z" fill="black"/>
<path fill-rule="evenodd" clip-rule="evenodd" d="M3.62984 4.0839C4.86736 3.09388 6.47615 2.59887 8.08493 2.59887C9.44621 2.59887 10.8075 2.59887 12.1688 2.59887C12.1688 10.8078 12.1688 19.0167 12.1688 27.2256C11.3025 27.2256 10.395 27.2256 9.52871 27.2256C9.52871 24.0906 9.52871 20.9142 9.52871 17.7792C8.78619 17.7792 8.04368 17.7792 7.30116 17.7792C5.89863 20.9142 4.49611 24.0906 3.09358 27.2256C2.06231 27.2256 1.03104 27.2256 0.0410156 27.2256C1.5673 23.843 3.13483 20.5017 4.66111 17.1192C3.58859 16.5829 2.68107 15.7991 2.06231 14.7679C1.40229 13.6541 1.11354 12.3341 1.03104 11.014C0.948534 9.65276 1.11354 8.25023 1.5673 6.9302C1.9798 5.81643 2.68107 4.82641 3.62984 4.0839ZM6.80615 4.99142C6.02239 5.23892 5.36237 5.69268 4.90861 6.35269C4.28985 7.17771 4.04235 8.25023 3.91859 9.24025C3.83609 10.0653 3.83609 10.9315 3.95984 11.7566C4.0836 12.4578 4.2486 13.1591 4.61986 13.7778C4.94986 14.3141 5.40362 14.7679 5.98113 15.0566C6.5999 15.3866 7.30116 15.5104 8.00243 15.5104C8.49744 15.5104 8.95119 15.5104 9.44621 15.5104C9.44621 11.9216 9.44621 8.33273 9.44621 4.74391C8.99245 4.74391 8.53869 4.74391 8.08493 4.74391C7.71367 4.82641 7.25991 4.86766 6.80615 4.99142ZM129.239 2.55762C132.085 2.55762 134.89 2.55762 137.736 2.55762C137.736 10.0653 137.736 17.5317 137.736 25.0393C137.736 25.7406 137.736 26.4831 137.736 27.1844C137.159 27.1844 136.581 27.1844 136.004 27.1844C136.004 19.4292 136.004 11.7153 136.004 3.96015C134.23 3.96015 132.456 3.96015 130.724 3.96015C130.724 5.73393 130.682 7.54897 130.641 9.32275C130.559 12.8291 130.394 16.3766 130.105 19.883C129.981 21.4092 129.857 22.9768 129.445 24.4618C129.239 25.1631 128.95 25.8643 128.455 26.4006C128.084 26.8544 127.547 27.1431 126.97 27.2256C126.599 27.2669 126.227 27.3081 125.856 27.1844C125.815 26.6481 125.774 26.1118 125.732 25.5756C126.145 25.6581 126.599 25.6168 126.97 25.3693C127.382 25.0806 127.671 24.5856 127.836 24.1318C128.084 23.3893 128.249 22.6055 128.331 21.8218C128.414 21.0792 128.496 20.3367 128.537 19.5942C128.826 16.1291 128.95 12.6228 129.074 9.1165C129.197 7.01271 129.239 4.78516 129.239 2.55762ZM142.728 10.1478C143.965 9.48776 145.409 9.364 146.77 9.61151C147.389 9.73526 147.966 9.98277 148.462 10.3953C148.915 10.7665 149.287 11.2615 149.534 11.8391C149.864 12.6228 149.988 13.4891 149.988 14.3554C149.988 16.9954 149.988 19.6767 149.988 22.3168C149.988 23.2243 149.947 24.1731 150.029 25.0806C150.07 25.7818 150.153 26.4831 150.359 27.1844C149.864 27.1844 149.369 27.1844 148.874 27.1844C148.627 26.4418 148.503 25.6581 148.462 24.8743C148.173 25.3693 147.884 25.8643 147.513 26.2768C147.1 26.7306 146.605 27.1019 146.028 27.3081C145.368 27.5556 144.666 27.5969 143.965 27.5144C143.264 27.3906 142.604 27.0606 142.068 26.5656C141.614 26.1531 141.284 25.5756 141.078 24.9981C140.83 24.2968 140.706 23.5955 140.665 22.853C140.624 22.0693 140.706 21.2855 140.913 20.543C141.078 19.9242 141.366 19.3055 141.779 18.7692C142.068 18.3979 142.439 18.0267 142.893 17.7792C143.511 17.4079 144.213 17.1604 144.914 17.0367C146.069 16.8304 147.265 16.9129 148.42 16.9129C148.42 16.3766 148.42 15.8816 148.42 15.3454C148.42 14.6029 148.42 13.8191 148.255 13.0766C148.132 12.4991 147.843 11.8803 147.348 11.509C146.853 11.1378 146.234 10.9728 145.656 10.9728C144.378 10.9315 143.099 11.4678 142.233 12.4166C142.109 12.5403 141.985 12.7053 141.903 12.8703C141.738 12.3341 141.614 11.8391 141.449 11.3028C141.738 10.8078 142.233 10.4365 142.728 10.1478ZM145.285 18.1504C144.543 18.2742 143.841 18.5629 143.305 19.0992C142.893 19.5117 142.645 20.0067 142.48 20.5842C142.274 21.2855 142.233 22.028 142.274 22.7293C142.315 23.4718 142.439 24.2143 142.81 24.8743C143.058 25.3693 143.47 25.7818 143.965 26.0293C144.625 26.3181 145.409 26.3181 146.069 25.9881C146.523 25.7818 146.894 25.4518 147.224 25.0393C147.678 24.4618 148.008 23.8018 148.296 23.1005C148.338 22.9768 148.42 22.853 148.42 22.688C148.42 21.1205 148.42 19.553 148.42 17.9854C148.131 17.9854 147.884 17.9854 147.595 17.9854C146.811 18.0679 146.069 17.9854 145.285 18.1504ZM179.523 9.69401C180.513 9.44651 181.545 9.40525 182.493 9.61151C183.36 9.77651 184.143 10.2303 184.68 10.9728C185.216 11.6741 185.464 12.5816 185.587 13.4478C185.67 14.0666 185.628 14.7266 185.628 15.3454C185.628 18.1504 185.628 20.9555 185.628 23.8018C185.628 24.7093 185.67 25.6168 185.835 26.5244C185.876 26.7719 185.917 26.9781 186 27.1844C185.505 27.1844 185.01 27.1844 184.515 27.1844C184.267 26.4418 184.185 25.6581 184.102 24.8331C183.731 25.5343 183.318 26.1531 182.7 26.6481C182.287 27.0194 181.751 27.2669 181.215 27.3906C180.266 27.5969 179.276 27.5144 178.451 27.0194C177.75 26.6481 177.213 25.9881 176.883 25.2868C176.43 24.3381 176.306 23.2655 176.347 22.193C176.388 21.203 176.553 20.1717 177.048 19.2642C177.461 18.4804 178.121 17.8617 178.946 17.4492C179.936 16.9542 181.008 16.7892 182.122 16.7892C182.782 16.7892 183.442 16.7892 184.061 16.7892C184.061 16.1704 184.061 15.5929 184.061 14.9741C184.061 14.1078 184.02 13.2003 183.69 12.3753C183.525 11.9216 183.236 11.5503 182.823 11.2615C182.452 11.014 181.998 10.849 181.545 10.8078C180.431 10.684 179.276 11.014 178.368 11.7153C177.997 12.0041 177.708 12.3341 177.461 12.6641C177.296 12.1691 177.172 11.6328 177.007 11.0965C177.667 10.4778 178.575 9.98277 179.523 9.69401ZM180.555 18.2329C180.06 18.3567 179.606 18.5629 179.193 18.8929C178.822 19.1817 178.533 19.5942 178.368 20.0067C178.038 20.7492 177.956 21.6155 177.956 22.3993C177.956 23.0593 178.038 23.7605 178.286 24.4206C178.451 24.8331 178.698 25.2456 179.028 25.5756C179.73 26.2768 180.885 26.4418 181.792 25.9881C182.246 25.7818 182.617 25.4106 182.947 25.0393C183.442 24.4206 183.813 23.678 184.061 22.8943C184.102 22.7705 184.102 22.688 184.102 22.5643C184.102 21.038 184.102 19.553 184.102 18.0267C183.442 18.0267 182.823 18.0267 182.163 18.0267C181.586 18.0267 181.05 18.1092 180.555 18.2329ZM45.0044 9.65276C45.6232 9.57026 46.2832 9.57026 46.902 9.73526C47.6445 9.90027 48.3045 10.3128 48.7995 10.8903C49.2533 11.3853 49.542 11.9628 49.7895 12.5816C50.2845 13.9016 50.4495 15.3041 50.4908 16.7067C50.532 17.4904 50.4908 18.3154 50.4908 19.0992C48.057 19.0992 45.6644 19.0992 43.2306 19.0992C43.2306 19.9242 43.2719 20.7905 43.4369 21.6155C43.5606 22.358 43.7669 23.1005 44.1794 23.7605C44.4682 24.2143 44.8807 24.6681 45.3757 24.8743C45.9119 25.1218 46.4895 25.1218 47.0257 25.0806C47.727 24.9981 48.387 24.7918 49.0058 24.4618C49.2945 24.2968 49.5833 24.1318 49.872 23.9255C50.0783 24.6268 50.2845 25.2868 50.4908 25.9881C49.4595 26.7719 48.222 27.2669 46.9432 27.3494C46.2007 27.4319 45.4582 27.3906 44.7569 27.2256C44.0144 27.0194 43.3131 26.6894 42.7769 26.1531C41.9106 25.3693 41.3331 24.3381 41.0031 23.2243C40.5493 21.7805 40.4256 20.2542 40.4668 18.7279C40.5081 17.0779 40.6318 15.3866 41.1268 13.8191C41.3331 13.1591 41.5806 12.4991 41.9106 11.9216C42.2406 11.344 42.6531 10.8078 43.1894 10.3953C43.6844 10.024 44.3032 9.73526 45.0044 9.65276ZM44.8394 12.0453C44.4682 12.2516 44.2207 12.6228 44.0557 12.9528C43.8081 13.4478 43.6844 13.9428 43.5606 14.4791C43.3956 15.3041 43.3131 16.1291 43.2719 16.9542C44.7569 16.9542 46.2419 16.9542 47.727 16.9542C47.727 15.8404 47.6857 14.7266 47.397 13.6128C47.232 13.0766 47.0257 12.4991 46.572 12.1278C46.0769 11.7153 45.3757 11.7153 44.8394 12.0453ZM69.5074 9.61151C70.2912 9.57026 71.0337 9.61151 71.7762 9.81776C72.2712 9.94152 72.7662 10.189 73.1787 10.4778C73.055 11.344 72.9312 12.1691 72.8075 13.0353C72.4775 12.7878 72.1475 12.5403 71.7762 12.3341C71.1987 12.0041 70.5387 11.7978 69.8787 11.8391C69.3837 11.8391 68.8886 12.0041 68.4761 12.3341C67.9811 12.7053 67.6511 13.2416 67.4036 13.7778C66.8674 14.9741 66.7024 16.2941 66.6199 17.6142C66.5786 18.8517 66.6199 20.048 66.7849 21.2442C66.8674 21.8218 66.9911 22.358 67.1561 22.8943C67.3624 23.4305 67.6099 23.9255 67.9811 24.3793C68.3111 24.7506 68.7236 25.0393 69.2187 25.1218C69.7137 25.2456 70.2499 25.2043 70.7449 25.0806C71.4874 24.9156 72.1887 24.5856 72.725 24.0906C72.9312 24.7506 73.1375 25.4106 73.3437 26.1118C72.725 26.6481 72.0237 27.0606 71.1987 27.2256C70.4974 27.3906 69.7549 27.4319 69.0124 27.3494C68.1461 27.2669 67.2799 26.9781 66.5786 26.4418C65.8361 25.9056 65.2586 25.1631 64.8461 24.3381C64.3098 23.3068 64.0623 22.1518 63.8973 20.9967C63.7735 20.0892 63.7323 19.1404 63.7323 18.1917C63.7735 16.7067 63.9386 15.2216 64.3923 13.8191C64.7636 12.6641 65.4236 11.5503 66.3311 10.7665C67.2799 10.1065 68.3936 9.69401 69.5074 9.61151ZM15.5926 9.85901C16.5001 9.85901 17.3664 9.85901 18.2739 9.85901C18.2739 12.3341 18.2739 14.7679 18.2739 17.2429C19.5939 17.2429 20.9552 17.2429 22.2752 17.2429C22.2752 15.5929 22.2752 13.9428 22.2752 12.2516C22.2752 11.4678 22.2752 10.6428 22.2752 9.85901C23.1827 9.85901 24.049 9.85901 24.9565 9.85901C24.9565 15.6341 24.9565 21.4092 24.9565 27.2256C24.049 27.2256 23.1827 27.2256 22.2752 27.2256C22.2752 24.6268 22.2752 22.028 22.2752 19.4292C20.9552 19.4292 19.5939 19.4292 18.2739 19.4292C18.2739 22.028 18.2739 24.6268 18.2739 27.2256C17.3664 27.2256 16.4588 27.2256 15.5926 27.2256C15.5926 21.4092 15.5926 15.6341 15.5926 9.85901ZM29.3704 9.85901C32.0517 9.85901 34.7742 9.85901 37.4555 9.85901C37.4555 14.8916 37.4555 19.9655 37.4555 24.9981C37.9093 24.9981 38.363 24.9981 38.858 24.9981C38.858 26.8544 38.858 28.7519 38.858 30.6082C38.033 30.6082 37.2493 30.6082 36.4243 30.6082C36.4243 29.6182 36.4243 28.6281 36.4243 27.5969C36.4243 27.4731 36.4243 27.3081 36.4243 27.1844C33.9492 27.1844 31.4329 27.1844 28.9578 27.1844C28.9578 28.2981 28.9578 29.4532 28.9578 30.6082C28.1328 30.6082 27.3491 30.6082 26.5241 30.6082C26.5241 28.7519 26.5241 26.8544 26.5241 24.9981C26.8953 24.9981 27.2253 24.9981 27.5966 24.9981C28.1741 23.678 28.5041 22.2755 28.7516 20.873C29.0403 19.223 29.1641 17.5729 29.2466 15.9229C29.3704 13.9016 29.3704 11.8803 29.3704 9.85901ZM31.7629 12.0041C31.7629 14.8916 31.6804 17.7792 31.2679 20.6255C31.0204 22.1105 30.6904 23.5955 30.1541 24.9981C31.6804 24.9981 33.2479 24.9981 34.7742 24.9981C34.7742 20.6667 34.7742 16.3354 34.7742 12.0041C33.7842 12.0041 32.7529 12.0041 31.7629 12.0041ZM53.2546 9.85901C54.1621 9.85901 55.0284 9.85901 55.9359 9.85901C55.9359 10.6428 55.9359 11.3853 55.9359 12.1691C55.9359 14.0666 55.9359 15.9641 55.9359 17.8617C57.3384 15.1804 58.6997 12.4991 60.1022 9.85901C61.0097 9.85901 61.9173 9.85901 62.8248 9.85901C61.381 12.5816 59.9372 15.3041 58.4934 18.0267C59.1122 19.1817 59.731 20.2955 60.3085 21.4505C61.2572 23.2243 62.206 24.9981 63.1548 26.7719C63.2373 26.9369 63.3198 27.0606 63.4023 27.2256C62.4123 27.2256 61.4635 27.2256 60.4735 27.2256C59.1535 24.7506 57.8334 22.2755 56.5134 19.8005C56.3071 19.388 56.1009 18.9754 55.8534 18.6042C55.8534 21.4917 55.8534 24.3793 55.8534 27.2256C54.9459 27.2256 54.0383 27.2256 53.1721 27.2256C53.2546 21.4092 53.2546 15.6341 53.2546 9.85901ZM153.7 9.81776C154.608 9.81776 155.557 9.81776 156.464 9.81776C157.124 9.81776 157.825 9.77651 158.485 9.90026C159.228 9.98277 159.97 10.2303 160.548 10.6428C161.084 11.014 161.497 11.5503 161.744 12.1691C161.992 12.7466 162.074 13.3653 162.074 13.9428C162.074 14.6854 161.951 15.4279 161.662 16.0879C161.291 16.9129 160.548 17.5729 159.723 17.9442C159.682 17.9442 159.64 17.9854 159.682 17.9854C160.3 18.1504 160.878 18.4392 161.373 18.8104C161.827 19.1404 162.198 19.5942 162.446 20.1305C162.693 20.6667 162.817 21.2855 162.858 21.9043C162.899 22.688 162.817 23.4718 162.528 24.2143C162.198 25.1218 161.538 25.9468 160.672 26.4006C160.053 26.7306 159.393 26.9369 158.692 27.0606C158.073 27.1844 157.413 27.1431 156.753 27.1431C155.722 27.1431 154.69 27.1431 153.659 27.1431C153.7 21.4092 153.7 15.6341 153.7 9.81776ZM155.309 11.1378C155.309 13.2828 155.309 15.4279 155.309 17.5729C155.804 17.5729 156.299 17.5729 156.753 17.5729C157.372 17.5729 157.949 17.5729 158.527 17.4079C159.104 17.2429 159.64 16.8717 159.97 16.3766C160.383 15.7579 160.548 14.9741 160.548 14.2316C160.548 13.5716 160.465 12.8703 160.094 12.2928C159.805 11.8391 159.352 11.509 158.815 11.3853C158.197 11.179 157.495 11.179 156.835 11.179C156.34 11.1378 155.804 11.1378 155.309 11.1378ZM155.309 18.7692C155.309 21.1617 155.309 23.5543 155.309 25.9881C156.01 25.9881 156.753 25.9881 157.454 25.9881C158.155 25.9881 158.898 25.9056 159.558 25.5756C160.053 25.3281 160.465 24.9981 160.754 24.5031C161.126 23.8843 161.249 23.1005 161.291 22.3993C161.291 21.698 161.208 20.9967 160.878 20.378C160.63 19.883 160.218 19.4705 159.723 19.223C159.063 18.8929 158.279 18.7692 157.578 18.7692C156.835 18.7692 156.052 18.7692 155.309 18.7692ZM165.787 9.81776C166.323 9.81776 166.859 9.81776 167.396 9.81776C167.396 11.2203 167.396 12.5816 167.396 13.9841C167.396 15.3041 167.396 16.6654 167.396 17.9854C168.179 16.9129 168.963 15.7991 169.747 14.6854C170.902 13.0766 172.057 11.4265 173.212 9.81776C173.748 9.81776 174.285 9.81776 174.78 9.81776C174.243 10.6015 173.666 11.3853 173.13 12.1691C171.768 14.0666 170.407 15.9641 169.046 17.9029C171.108 20.9967 173.13 24.0906 175.192 27.1844C174.573 27.1844 173.996 27.1844 173.377 27.1844C171.521 24.4206 169.664 21.698 167.849 18.9342C167.684 18.6867 167.519 18.4392 167.354 18.1917C167.354 21.1617 167.354 24.1731 167.354 27.1431C166.818 27.1431 166.282 27.1431 165.746 27.1431C165.787 21.4092 165.787 15.6341 165.787 9.81776Z" fill="black"/>
<path fill-rule="evenodd" clip-rule="evenodd" d="M83.8633 9.61133C83.987 10.4363 84.1933 11.2201 84.5233 12.0039C84.7295 12.5814 85.0596 13.1176 85.3483 13.6539C85.6783 14.2314 86.0083 14.8089 86.3796 15.3452C87.8234 17.4902 89.5146 19.4703 91.3297 21.3266C93.1447 23.1416 95.1248 24.8741 97.1873 26.4004C99.2911 27.9679 101.519 29.3292 103.911 30.4017C104.489 30.6493 105.066 30.8968 105.644 31.0205C106.469 31.2268 107.294 31.3918 108.119 31.3918C106.51 31.598 104.86 31.6805 103.251 31.8043C100.9 31.928 98.5486 32.0518 96.1973 32.1343C94.5472 32.1755 92.856 32.2168 91.2059 32.0105C90.3397 31.8868 89.4734 31.6805 88.6896 31.3505C87.5346 30.8555 86.5446 29.948 85.9258 28.8342C85.2246 27.5967 84.8946 26.1529 84.6883 24.7504C84.5233 23.6366 84.4408 22.5641 84.3583 21.4503C84.2345 19.6765 84.152 17.944 84.0695 16.1702C83.987 14.3552 83.8633 12.5814 83.8633 10.7664C83.8633 10.4363 83.8633 10.0238 83.8633 9.61133Z" fill="black"/>
</g>
</g>
<defs>
<clipPath id="clip0_2404_2183">
<rect width="186" height="32.2169" fill="white"/>
</clipPath>
</defs>
</svg>
