<?xml version="1.0" encoding="utf-8"?>
<!-- Generator: Adobe Illustrator 23.0.2, SVG Export Plug-In . SVG Version: 6.00 Build 0)  -->
<svg version="1.1" id="Слой_1" xmlns="http://www.w3.org/2000/svg" xmlns:xlink="http://www.w3.org/1999/xlink" x="0px" y="0px"
	 viewBox="0 0 214.5 83.8" style="enable-background:new 0 0 214.5 83.8;" xml:space="preserve">
<style type="text/css">
	.st0{fill:#A2B34A;}
</style>
<path class="st0" d="M21.2,51.9c-4.5-0.9-8.8,0.3-13.1-1c-6.9-2.2-8.6-7.8-3.6-13.4c6.4-7.2,14.8-11.8,22.6-17.2
	c6.4-4.4,13.1-8.4,19.7-12.7c2.7-1.8,5.2-1.3,7.5,0.6s4.2,3.5,2.6,7.3c-3.7,8.7-9,16.5-13.4,24.8c-1.1,2-2.5,3.5,0.5,5.4
	c2.1,1.4,2.4,4.4,1.5,6.8c-0.8,2.1-3.3,1.1-4.9,1c-3.4-0.3-5.2,1.2-6.5,4.1c-1.5,3.6-3.2,7.1-4.8,10.6c-0.8,1.7-1.5,2.3-3.6,1.3
	C18.5,66.2,16.9,60.4,21.2,51.9L21.2,51.9z M15.3,42.4c4.8,0,10.4,1.4,11.7-0.3c3.5-4.5,7.2-9.4,9-16.2
	C28.2,30.8,22.5,36.8,15.3,42.4z M37.4,25.6c-0.2-0.2-0.4-0.5-0.6-0.5s-0.6,0.2-0.7,0.4c-0.1,0.4-0.1,0.9,0.6,0.6
	C36.9,26,37.1,25.8,37.4,25.6z M193.5,29.5c3.9-1.8,6.8-3.4,10.7-2.9c7.3,1,9.4,11.5,6.3,17.5c-4.2,8.2-8.8,16.3-9.8,25.7
	c-0.3,2.6-1.7,1.5-3.2,1c-8.7-3.3-8.2-13.7-4-20.3c1.7-2.8,3.4-5.5,4.3-8.7c0.4-1.5,2-3.2-0.1-4.3c-1.5-0.8-3,0.6-4,1.8
	c-6.4,7.5-11.4,15.9-13.8,25.4c-1.1,4.4-2.9,3.1-5,1.4c-5.8-4.6-4.9-10.8-3-16.6c5.4-16.4,14.1-31.2,22.7-46.1
	c0.8-1.4,1.6-1.6,2.7-1c2.4,1.3,5,2.5,5.4,5.8c0.5,4.4-2,7.7-4,11.2C197,22.5,194.5,25.2,193.5,29.5L193.5,29.5z M193.4,29.5H193
	h-0.5c-0.1,0,0,0,0.5,0H193.4z M75,25.2c2.5,1.7,5.2-0.9,6.7,2.1c2.4,4.9,1,7.3-4.6,7.4c-9.3,0.2-8.8,0.4-12.6,8.8
	c-5.3,11.9-9.6,24-11,36.9c-0.1,1.1-0.8,2.8-1.6,3c-1.1,0.2-2.3-0.8-3.3-1.8c-5.4-5.2-4.5-11.8-3.5-18c1.3-8.1,5-15.7,8.7-23
	c1.8-3.6,1.9-6.2-0.7-9.1c-2.4-2.6-2-3.7,1.8-4c4-0.3,6.7-2.1,9.1-6c4.4-6.9,8.9-14.1,16.2-18.7c5.5-3.5,12.6-1.8,13,5.4
	c0.1,2.5-0.8,2.9-2.1,3.3C83.7,14,79.3,19.5,75,25.2z M136.2,52.3c2.4,8.4-5.5,13.6-12.9,16.1c-6.3,2.1-12,1-16.3-4.3
	c-4.3-5.2-4.1-11.2-1.3-16.9c5.2-10.2,13-17.8,24.4-21c3.9-1.1,8.9,2,10.9,6.4c1.9,4.2,0,10.2-4,13c-5.4,3.8-11.5,5.7-18,6.9
	c-1.2,0.2-3.6-0.7-3.2,1.8c0.3,2,1,4.1,3.9,4.3c3.7,0.2,7.1-0.9,10.2-2.8C129.9,55.8,136.2,52.3,136.2,52.3z M120,45.6
	c4.9,0.2,7.6-2.9,10.2-6c1.1-1.3,1-3.1-0.6-4.3c-1.6-1.2-2.3,0.5-3.1,1.3C123.7,39.1,121.4,41.9,120,45.6L120,45.6z M152,69.5
	c-6.5,0.2-13.9-4.8-12.3-14c0.4-2.3,1.9-3.7,3.5-4.4c2.2-1,2.5,1.6,3.1,2.9c0.8,1.5,1.8,2.7,3.1,3.8c1.9,1.7,4.4,2.6,5.9,0.3
	c1.1-1.8,1.4-4.6-1.4-6.4c-5.4-3.5-7-9-5.9-14.9c1.2-6,5.9-9.2,11.6-10.6c5.9-1.6,13.6,4.7,13.3,10.4c-0.1,1.7-0.7,2.9-2.1,3.6
	s-1.8-1-2.7-1.5c-1.2-0.8-2.3-1.9-3.6-2.4c-2.9-1.2-5.5-0.2-6.7,2.4c-1.1,2.2,0.9,3.4,2.8,4.6c7,4.5,8.9,9.4,6.8,16.4
	C165.3,65.7,159.4,69.5,152,69.5L152,69.5z M96,34.1c3.1-3.4,5.8-5.8,9.3-7c3.8-1.3,6,0.9,7.2,4.1c1.3,3.5-1.3,3.9-3.8,4.6
	C96,39.5,91.3,49.9,87.8,61.1c-0.7,2.3,0.1,6-3.5,6c-3.7,0-5.4-3.2-6.4-6.4C75.8,54.2,78.3,48,80.2,42c1.4-4.3,3.7-8.2,5.6-12.3
	c1-2,1.6-4.2,4.8-4s3.9,2.6,5.1,4.7C96,31.3,95.8,32.4,96,34.1L96,34.1z"/>
</svg>
