<svg width="192" height="65" viewBox="0 0 192 65" fill="none" xmlns="http://www.w3.org/2000/svg">
<path d="M33.2336 31.7583C35.8956 30.7773 37.4132 28.3464 37.4132 25.0304C37.4132 20.5914 34.6695 17.8335 30.2554 17.8335H17.6562V46.8452H31.0621C35.8281 46.8452 38.6713 43.9771 38.6713 39.1756C38.6678 35.291 36.642 32.5437 33.2336 31.7583ZM18.4062 31.5237V18.5443H30.2518C34.2608 18.5443 36.6562 20.9682 36.6562 25.0304C36.6562 28.9719 34.4953 31.3389 30.7352 31.5237H18.4062ZM18.4062 32.2452H31.0586C31.0657 32.2452 31.0763 32.2452 31.0834 32.2452C33.1483 32.2452 34.865 32.8707 36.052 34.0577C37.2675 35.2732 37.9108 37.0396 37.9108 39.1756C37.9108 43.5364 35.3483 46.1379 31.055 46.1379H18.4026V32.2452H18.4062Z" fill="white"/>
<path d="M54.7969 25.4722C48.4281 25.4722 44.3125 29.7797 44.3125 36.4471C44.3125 43.1145 48.4281 47.422 54.7969 47.422C61.2617 47.422 65.2778 43.2175 65.2778 36.4471C65.2778 33.1916 64.3182 30.4443 62.5021 28.5002C60.6505 26.5171 57.9849 25.4722 54.7969 25.4722ZM64.567 36.4471C64.567 42.8017 60.8246 46.7503 54.7969 46.7503C48.8617 46.7503 45.0269 42.7058 45.0269 36.4471C45.0269 30.1884 48.8617 26.1439 54.7969 26.1439C60.8246 26.1403 64.567 30.0889 64.567 36.4471Z" fill="white"/>
<path d="M73.5538 19.7715H72.8394V26.0764H68.1445V26.7481H72.8394V38.1779C72.8394 40.6799 73.5076 42.7306 74.8297 44.2766C76.1731 45.8475 78.1065 46.7965 80.5766 47.1057L80.6761 47.1163V46.4411L80.6015 46.4304C78.3269 46.1319 76.557 45.2433 75.3415 43.7897C74.158 42.3752 73.5573 40.4845 73.5573 38.1779V26.7445H80.6761V26.0728H73.5538V19.7715Z" fill="white"/>
<path d="M94.235 25.4722C91.9604 25.4722 89.4157 26.1688 87.2584 27.3878L87.1802 27.434L87.5356 28.0133L87.6102 27.9707C88.8221 27.2883 91.2958 26.1439 94.2385 26.1439C98.219 26.1439 102.452 28.5713 102.452 33.0672V35.9388C100.238 34.6274 97.1919 33.8455 94.2634 33.8455C89.9275 33.8455 85.293 35.6296 85.293 40.6302C85.293 42.7235 86.1637 44.4686 87.8092 45.6805C89.2842 46.7645 91.3242 47.3616 93.5561 47.3616C96.0582 47.3616 99.6122 46.7041 102.455 43.612V46.8498H103.17V33.0636C103.163 28.1306 98.5638 25.4722 94.235 25.4722ZM102.448 42.5387C100.256 45.2931 97.2559 46.6898 93.5241 46.6898C88.3281 46.6898 86.0002 43.6476 86.0002 40.6302C86.0002 36.1201 90.2651 34.5137 94.2598 34.5137C97.2523 34.5137 100.309 35.3453 102.448 36.7385V42.5387Z" fill="white"/>
<path d="M119.849 25.4722C116.64 25.4722 114.621 26.6948 111.39 29.4314V26.0479H110.68V46.8462H111.39V30.3341C114.714 27.4838 116.64 26.1439 119.849 26.1439C123.83 26.1439 128.063 28.5713 128.063 33.0672V46.8462H128.773V33.0672C128.773 28.1342 124.174 25.4722 119.849 25.4722Z" fill="white"/>
<path d="M137.275 18.332H135.914V46.6862H137.275V18.332Z" fill="white"/>
<path d="M174.29 32.6724C174.29 24.4661 167.612 17.7881 159.406 17.7881C151.2 17.7881 144.521 24.4661 144.521 32.6724C144.521 40.8787 151.2 47.5568 159.406 47.5568C163.241 47.5568 166.738 46.0996 169.378 43.7113L173.128 47.4608L174.091 46.4977L170.349 42.7553C172.794 40.0968 174.29 36.557 174.29 32.6724ZM172.929 32.6724C172.929 36.2656 171.518 39.5317 169.226 41.9556V23.3893C171.522 25.8131 172.929 29.0793 172.929 32.6724ZM168.906 42.0409L163.934 37.0688V19.9312C165.817 20.6029 167.509 21.6798 168.906 23.0587V42.0409ZM163.61 19.821V36.7454L158.638 31.7733V19.1706C158.894 19.1564 159.146 19.1457 159.406 19.1457C160.874 19.1493 162.288 19.3874 163.61 19.821ZM149.917 23.0516C150.833 22.1453 151.878 21.3706 153.023 20.7557V26.1579L149.917 23.0516ZM158.101 31.6915H145.925C146.053 29.918 146.522 28.2405 147.269 26.7194H153.129L158.101 31.6915ZM153.346 26.4813V20.5887C154.864 19.8246 156.541 19.3376 158.318 19.1955V31.4534L153.346 26.4813ZM149.689 23.2826L152.806 26.3995H147.432C148.036 25.2516 148.797 24.2031 149.689 23.2826ZM145.9 32.0149H158.421L163.393 36.987H146.593C146.135 35.6294 145.883 34.1793 145.883 32.6724C145.883 32.4521 145.89 32.2317 145.9 32.0149ZM146.704 37.3105H163.717L168.689 42.2826H149.906C148.502 40.8929 147.397 39.2012 146.704 37.3105ZM150.243 42.606H168.572C166.162 44.8308 162.942 46.1956 159.409 46.1956C155.873 46.1956 152.657 44.8308 150.243 42.606Z" fill="white"/>
</svg>
