<svg width="183" height="41" viewBox="0 0 183 41" fill="none" xmlns="http://www.w3.org/2000/svg">
<g opacity="0.75">
<g clip-path="url(#clip0_2404_2212)">
<path fill-rule="evenodd" clip-rule="evenodd" d="M22.1125 4.77002C22.7188 5.53808 23.2039 6.34656 23.6082 7.19547L12.3298 15.4824L7.64062 12.5315V9.01455L12.3298 11.9655L22.1125 4.77002Z" fill="black"/>
<path fill-rule="evenodd" clip-rule="evenodd" d="M2.87056 12.329C2.87056 12.1673 2.87056 12.0056 2.87056 11.8439L0.0408674 11.7227C-0.120829 15.1991 1.17274 18.5948 3.63861 21.0606L5.65982 19.0394C3.84073 17.2203 2.87056 14.8353 2.87056 12.329Z" fill="black"/>
<path fill-rule="evenodd" clip-rule="evenodd" d="M12.3293 2.82954C12.491 2.82954 12.6527 2.82954 12.8144 2.82954L12.9356 -0.000148248C9.45915 -0.161845 6.06353 1.13173 3.59766 3.5976L5.61886 5.6188C7.39752 3.84014 9.82297 2.82954 12.3293 2.82954Z" fill="black"/>
<path fill-rule="evenodd" clip-rule="evenodd" d="M12.329 21.7888C12.1673 21.7888 12.0056 21.7888 11.8439 21.7888L11.7227 24.6185C15.1991 24.7802 18.5948 23.4866 21.0606 21.0207L19.0394 18.9995C17.2608 20.7782 14.8757 21.7888 12.329 21.7888Z" fill="black"/>
<path fill-rule="evenodd" clip-rule="evenodd" d="M17.7065 4.48708L20.0915 2.70842C17.9086 0.970179 15.1598 0 12.3301 0V2.82969C14.2704 2.82969 16.1299 3.43605 17.7065 4.48708Z" fill="black"/>
<path fill-rule="evenodd" clip-rule="evenodd" d="M24.6996 12.3293C24.6996 11.5612 24.6187 10.8336 24.4974 10.106L21.8295 12.0463V12.2889C21.8295 15.0781 20.6167 17.5844 18.7168 19.3227L20.6167 21.4247C23.2039 19.1205 24.6996 15.8058 24.6996 12.3293Z" fill="black"/>
<path fill-rule="evenodd" clip-rule="evenodd" d="M12.3292 21.7884C9.66122 21.7884 7.07407 20.6566 5.29541 18.6758L3.19336 20.5757C5.53796 23.1629 8.85274 24.6181 12.3292 24.6181V21.7884Z" fill="black"/>
<path fill-rule="evenodd" clip-rule="evenodd" d="M5.98277 5.29541L4.08284 3.19336C1.49569 5.49753 0 8.81231 0 12.3292H2.82969C2.87011 9.53995 4.04241 7.03365 5.98277 5.29541Z" fill="black"/>
<path fill-rule="evenodd" clip-rule="evenodd" d="M70.9046 7.23597L74.2194 4.81052H63.1836V19.3632H74.2194V16.9378H66.3367V13.2187H73.0471V10.7933H66.3367V7.23597H70.9046ZM54.8562 10.4699H51.0159V7.23597H57.12L60.4347 4.81052H47.8628V19.3632H54.452C58.1306 19.3632 60.273 17.7058 60.273 14.7953C60.2326 12.006 58.3327 10.4699 54.8562 10.4699ZM54.2903 16.9378H51.0159V12.8953H54.2903C56.3115 12.8953 57.2008 13.5826 57.2008 14.9165C57.2412 16.291 56.2306 16.9378 54.2903 16.9378ZM83.1531 4.81052H77.1703V19.3632H80.3234V15.2399H83.1935C87.0338 15.2399 89.4188 13.2187 89.4188 10.0252C89.3784 6.7913 86.9934 4.81052 83.1531 4.81052ZM83.0722 12.8145H80.283V7.23597H83.0722C85.0934 7.23597 86.1849 8.24657 86.1849 10.0252C86.1849 11.8039 85.0934 12.8145 83.0722 12.8145ZM42.446 16.2101C41.6375 16.6548 40.7078 16.8973 39.7376 16.8973C36.9079 16.8973 34.8463 14.8761 34.8463 12.0869C34.8463 9.2976 36.9079 7.27639 39.7376 7.27639C40.829 7.27639 41.7588 7.55936 42.6077 8.16572L44.8714 6.50833L44.7097 6.38706C43.4162 5.21476 41.6375 4.6084 39.6163 4.6084C37.4334 4.6084 35.4526 5.33603 34.0378 6.67003C32.6229 8.00402 31.8145 9.90396 31.8145 12.006C31.8145 14.1081 32.5825 16.008 33.9974 17.4228C35.4122 18.7973 37.393 19.5653 39.5759 19.5653C41.8396 19.5653 43.8204 18.7568 45.1544 17.342C44.1034 16.5739 43.1332 15.8463 43.1332 15.8463L42.446 16.2101Z" fill="black"/>
<path fill-rule="evenodd" clip-rule="evenodd" d="M45.963 29.833L41.2738 37.554H39.9802L35.2102 29.9543V40.7879H32.623V26.2352H35.8974L40.7079 34.1584L45.4779 26.2352H48.5502V40.7879H45.963V29.833ZM61.4859 34.4818H54.7755V38.4029H62.4965V40.7879H52.1479V26.2352H62.2539V28.6203H54.7755V32.0967H61.4859V34.4818ZM75.2705 28.6203H67.9942V40.7475H65.407V26.1948H75.3109V28.6203H75.2705ZM88.6509 40.7475L82.6681 26.1948H79.7172L73.8152 40.7475H76.4428L77.8172 37.3115H84.4872L85.8616 40.7475H88.6509ZM83.517 34.9264H78.747L81.132 28.9841L83.517 34.9264ZM108.378 29.833L103.689 37.554H102.395L97.625 29.9543V40.7879H94.9975V26.2352H98.3123L103.123 34.1584L107.893 26.2352H110.965V40.7879H108.378V29.833ZM127.66 40.7475H124.911L123.537 37.3115H116.826L115.452 40.7475H112.825L118.726 26.1948H121.677L127.66 40.7475ZM122.567 34.9264L120.182 28.9841L117.797 34.9264H122.567ZM132.147 36.22V40.7475H129.56V26.1948H134.411C136.715 26.1948 138.373 26.5991 139.424 27.448C140.475 28.2565 140.96 29.5096 140.96 31.1266C140.96 32.8244 140.394 34.1179 139.302 34.9669C138.17 35.8158 136.553 36.22 134.411 36.22H132.147ZM132.147 28.6203V33.835H134.573C135.785 33.835 136.715 33.6329 137.322 33.1882C137.928 32.7435 138.251 32.0563 138.251 31.0457C138.251 30.1564 137.968 29.5096 137.402 29.1458C136.836 28.782 135.907 28.5798 134.654 28.5798H132.147V28.6203ZM146.215 40.7475H143.628V26.1948H146.215V32.3393H148.398L153.087 26.2352H156.24L150.702 33.1478L157.17 40.7475H153.855L148.559 34.4413H146.255V40.7475H146.215ZM168.286 34.4818H161.576V38.4029H169.297V40.7879H158.989V26.2352H169.054V28.6203H161.576V32.0967H168.286V34.4818ZM183.001 28.6203H178.069V40.7475H175.482V28.6203H170.671V26.2352H183.001V28.6203Z" fill="black"/>
</g>
</g>
<defs>
<clipPath id="clip0_2404_2212">
<rect width="183" height="40.7475" fill="white"/>
</clipPath>
</defs>
</svg>
