<svg width="453" height="101" viewBox="0 0 453 101" fill="none" xmlns="http://www.w3.org/2000/svg">
<g clip-path="url(#clip0_2346_1248)">
<path fill-rule="evenodd" clip-rule="evenodd" d="M54.7004 11.7998C56.2004 13.6998 57.4004 15.6998 58.4004 17.7998L30.5004 38.2998L18.9004 30.9998V22.2998L30.5004 29.5998L54.7004 11.7998Z" fill="#21A038"/>
<path fill-rule="evenodd" clip-rule="evenodd" d="M7.09986 30.5C7.09986 30.1 7.09986 29.7 7.09986 29.3L0.0998606 29C-0.300139 37.6 2.89986 46 8.99986 52.1L13.9999 47.1C9.49986 42.6 7.09986 36.7 7.09986 30.5Z" fill="url(#paint0_linear_2346_1248)"/>
<path fill-rule="evenodd" clip-rule="evenodd" d="M30.5004 6.99976C30.9004 6.99976 31.3004 6.99976 31.7004 6.99976L32.0004 -0.000237059C23.4004 -0.400237 15.0004 2.79976 8.90039 8.89976L13.9004 13.8998C18.3004 9.49976 24.3004 6.99976 30.5004 6.99976Z" fill="url(#paint1_linear_2346_1248)"/>
<path fill-rule="evenodd" clip-rule="evenodd" d="M30.5 53.9C30.1 53.9 29.7 53.9 29.3 53.9L29 60.9C37.6 61.3 46 58.1 52.1 52L47.1 47C42.7 51.4 36.8 53.9 30.5 53.9Z" fill="url(#paint2_linear_2346_1248)"/>
<path fill-rule="evenodd" clip-rule="evenodd" d="M43.8 11.1L49.7 6.7C44.3 2.4 37.5 0 30.5 0V7C35.3 7 39.9 8.5 43.8 11.1Z" fill="url(#paint3_linear_2346_1248)"/>
<path fill-rule="evenodd" clip-rule="evenodd" d="M61.1008 30.5C61.1008 28.6 60.9008 26.8 60.6008 25L54.0008 29.8V30.4C54.0008 37.3 51.0008 43.5 46.3008 47.8L51.0008 53C57.4008 47.3 61.1008 39.1 61.1008 30.5Z" fill="#21A038"/>
<path fill-rule="evenodd" clip-rule="evenodd" d="M30.5004 53.8997C23.9004 53.8997 17.5004 51.0997 13.1004 46.1997L7.90039 50.8997C13.7004 57.2997 21.9004 60.8997 30.5004 60.8997V53.8997Z" fill="url(#paint4_linear_2346_1248)"/>
<path fill-rule="evenodd" clip-rule="evenodd" d="M14.8 13.0999L10.1 7.8999C3.7 13.5999 0 21.7999 0 30.4999H7C7.1 23.5999 10 17.3999 14.8 13.0999Z" fill="url(#paint5_linear_2346_1248)"/>
<path fill-rule="evenodd" clip-rule="evenodd" d="M175.399 17.8999L183.599 11.8999H156.299V47.8999H183.599V41.8999H164.099V32.6999H180.699V26.6999H164.099V17.8999H175.399ZM135.699 25.8999H126.199V17.8999H141.299L149.499 11.8999H118.399V47.8999H134.699C143.799 47.8999 149.099 43.7999 149.099 36.5999C148.999 29.6999 144.299 25.8999 135.699 25.8999ZM134.299 41.8999H126.199V31.8999H134.299C139.299 31.8999 141.499 33.5999 141.499 36.8999C141.599 40.2999 139.099 41.8999 134.299 41.8999ZM205.699 11.8999H190.899V47.8999H198.699V37.6999H205.799C215.299 37.6999 221.199 32.6999 221.199 24.7999C221.099 16.7999 215.199 11.8999 205.699 11.8999ZM205.499 31.6999H198.599V17.8999H205.499C210.499 17.8999 213.199 20.3999 213.199 24.7999C213.199 29.1999 210.499 31.6999 205.499 31.6999ZM104.999 40.0999C102.999 41.1999 100.699 41.7999 98.2992 41.7999C91.2992 41.7999 86.1992 36.7999 86.1992 29.8999C86.1992 22.9999 91.2992 17.9999 98.2992 17.9999C100.999 17.9999 103.299 18.6999 105.399 20.1999L110.999 16.0999L110.599 15.7999C107.399 12.8999 102.999 11.3999 97.9992 11.3999C92.5992 11.3999 87.6992 13.1999 84.1992 16.4999C80.6992 19.7999 78.6992 24.4999 78.6992 29.6999C78.6992 34.8999 80.5992 39.5999 84.0992 43.0999C87.5992 46.4999 92.4992 48.3999 97.8992 48.3999C103.499 48.3999 108.399 46.3999 111.699 42.8999C109.099 40.9999 106.699 39.1999 106.699 39.1999L104.999 40.0999Z" fill="#21A038"/>
<path fill-rule="evenodd" clip-rule="evenodd" d="M113.699 73.7998L102.099 92.8998H98.8992L87.0992 74.0998V100.9H80.6992V64.8998H88.7992L100.699 84.4998L112.499 64.8998H120.099V100.9H113.699V73.7998ZM152.099 85.2998H135.499V94.9998H154.599V100.9H128.999V64.8998H153.999V70.7998H135.499V79.3998H152.099V85.2998ZM186.199 70.7998H168.199V100.8H161.799V64.7998H186.299V70.7998H186.199ZM219.299 100.8L204.499 64.7998H197.199L182.599 100.8H189.099L192.499 92.2998H208.999L212.399 100.8H219.299ZM206.599 86.3998H194.799L200.699 71.6998L206.599 86.3998ZM268.099 73.7998L256.499 92.8998H253.299L241.499 74.0998V100.9H234.999V64.8998H243.199L255.099 84.4998L266.899 64.8998H274.499V100.9H268.099V73.7998ZM315.799 100.8H308.999L305.599 92.2998H288.999L285.599 100.8H279.099L293.699 64.7998H300.999L315.799 100.8ZM303.199 86.3998L297.299 71.6998L291.399 86.3998H303.199ZM326.899 89.5998V100.8H320.499V64.7998H332.499C338.199 64.7998 342.299 65.7998 344.899 67.8998C347.499 69.8998 348.699 72.9998 348.699 76.9998C348.699 81.1998 347.299 84.3998 344.599 86.4998C341.799 88.5998 337.799 89.5998 332.499 89.5998H326.899ZM326.899 70.7998V83.6998H332.899C335.899 83.6998 338.199 83.1998 339.699 82.0998C341.199 80.9998 341.999 79.2998 341.999 76.7998C341.999 74.5998 341.299 72.9998 339.899 72.0998C338.499 71.1998 336.199 70.6998 333.099 70.6998H326.899V70.7998ZM361.699 100.8H355.299V64.7998H361.699V79.9998H367.099L378.699 64.8998H386.499L372.799 81.9998L388.799 100.8H380.599L367.499 85.1998H361.799V100.8H361.699ZM416.299 85.2998H399.699V94.9998H418.799V100.9H393.299V64.8998H418.199V70.7998H399.699V79.3998H416.299V85.2998ZM452.699 70.7998H440.499V100.8H434.099V70.7998H422.199V64.8998H452.699V70.7998Z" fill="#632895"/>
</g>
<defs>
<linearGradient id="paint0_linear_2346_1248" x1="9.63526" y1="49.1735" x2="3.12116" y2="29.7405" gradientUnits="userSpaceOnUse">
<stop stop-color="#F4E600"/>
<stop offset="0.14" stop-color="#F4E600"/>
<stop offset="0.3" stop-color="#E8E100"/>
<stop offset="0.58" stop-color="#CAD505"/>
<stop offset="0.89" stop-color="#9FC52D"/>
<stop offset="1" stop-color="#9FC52D"/>
</linearGradient>
<linearGradient id="paint1_linear_2346_1248" x1="12.9401" y1="9.37546" x2="29.9999" y2="3.04416" gradientUnits="userSpaceOnUse">
<stop stop-color="#00A7E1"/>
<stop offset="0.06" stop-color="#00A7E1"/>
<stop offset="0.54" stop-color="#3D8ACA"/>
<stop offset="0.92" stop-color="#3284C6"/>
<stop offset="1" stop-color="#3284C6"/>
</linearGradient>
<linearGradient id="paint2_linear_2346_1248" x1="28.9088" y1="56.5097" x2="49.7483" y2="51.9223" gradientUnits="userSpaceOnUse">
<stop stop-color="#9FC52D"/>
<stop offset="0.12" stop-color="#9FC52D"/>
<stop offset="0.28" stop-color="#82BB2C"/>
<stop offset="0.87" stop-color="#19A033"/>
<stop offset="1" stop-color="#19A033"/>
</linearGradient>
<linearGradient id="paint3_linear_2346_1248" x1="29.6619" y1="2.5349" x2="46.6773" y2="7.7912" gradientUnits="userSpaceOnUse">
<stop stop-color="#3284C6"/>
<stop offset="0.06" stop-color="#3284C6"/>
<stop offset="0.79" stop-color="#0087CA"/>
<stop offset="1" stop-color="#0087CA"/>
</linearGradient>
<linearGradient id="paint4_linear_2346_1248" x1="11.6551" y1="50.7633" x2="29.8749" y2="57.5868" gradientUnits="userSpaceOnUse">
<stop stop-color="#F4E600"/>
<stop offset="0.13" stop-color="#F4E600"/>
<stop offset="0.3" stop-color="#ECE300"/>
<stop offset="0.53" stop-color="#D9DB00"/>
<stop offset="0.8" stop-color="#B9CE18"/>
<stop offset="0.98" stop-color="#9FC52D"/>
<stop offset="1" stop-color="#9FC52D"/>
</linearGradient>
<linearGradient id="paint5_linear_2346_1248" x1="2.9884" y1="30.4604" x2="10.2058" y2="11.6256" gradientUnits="userSpaceOnUse">
<stop stop-color="#9FC52D"/>
<stop offset="0.07" stop-color="#9FC52D"/>
<stop offset="0.26" stop-color="#80BD59"/>
<stop offset="0.92" stop-color="#00A7E1"/>
<stop offset="1" stop-color="#00A7E1"/>
</linearGradient>
<clipPath id="clip0_2346_1248">
<rect width="452.7" height="100.8" fill="white"/>
</clipPath>
</defs>
</svg>
