<svg width="161" height="37" viewBox="0 0 161 37" fill="none" xmlns="http://www.w3.org/2000/svg">
<g opacity="0.75">
<g clip-path="url(#clip0_2404_2188)">
<path fill-rule="evenodd" clip-rule="evenodd" d="M34.9794 4.13107C34.9794 1.84102 33.1383 0 30.8483 0H4.13107C1.84102 0 0 1.84102 0 4.13107V17.4672C0 27.1214 7.81311 34.9345 17.4672 34.9345C27.1214 34.9345 34.9345 27.1214 34.9345 17.4672L34.9794 4.13107ZM13.3811 23.3495C12.3034 22.0024 13.2464 20.4757 14.5485 20.4757C15.4466 20.4757 16.21 21.1942 16.21 22.0922C16.21 23.3944 14.7282 24.3374 13.3811 23.3495ZM20.3859 23.7536C19.0837 23.7536 18.1408 22.2718 19.1735 20.9248C20.5206 19.892 22.0473 20.835 22.0473 22.0922C22.0473 23.0352 21.3289 23.7536 20.3859 23.7536Z" fill="#1D1D1B"/>
<path fill-rule="evenodd" clip-rule="evenodd" d="M107.901 23.3945C107.946 25.011 110.057 26.0887 111.583 24.2028V19.2635H117.6V24.1579C119.127 26.0887 121.282 24.9661 121.282 23.3945V10.7319C119.756 8.80107 117.6 9.92365 117.6 11.4952V15.6263H111.538V10.687C110.012 8.80107 107.856 9.87874 107.856 11.4952L107.901 23.3945ZM63.9863 13.5159V24.3375C65.6477 26.0887 67.7132 25.0559 67.7132 23.4394V13.5159H71.3055C73.2812 11.9892 72.1137 9.87874 70.4972 9.87874H61.2023C59.5858 9.87874 58.4632 11.9892 60.3941 13.5159H63.9863ZM51.0093 17.9613L54.9159 10.6421C55.3649 9.78894 56.4426 9.38481 57.3407 9.83384C58.2836 10.2829 58.553 11.4503 58.104 12.3035L55.0955 18.0062C54.2424 19.6227 53.3443 21.2841 52.1319 22.6312C50.8297 24.113 48.9887 25.1457 46.9232 25.1457C45.9802 25.1457 45.0822 24.5171 45.0822 23.3945C45.0822 22.4516 45.7557 21.7331 46.7436 21.6433C47.462 21.5984 48.1356 21.4188 48.7642 21.0147L43.6004 12.3933C43.0615 11.4952 43.3759 10.4176 44.2739 9.87874C45.172 9.47462 46.2047 9.78894 46.6987 10.5972L51.0093 17.9613ZM124.201 17.4673C124.201 21.9127 127.479 25.1906 131.969 25.1906C137.672 25.1906 141.444 19.8472 138.974 13.6506C138.48 12.3933 136.998 10.9115 135.696 10.4176C129.455 8.08263 124.201 11.8545 124.201 17.4673ZM136.055 17.4673C136.055 19.8472 134.394 21.6433 132.014 21.6433C129.589 21.6433 127.973 19.8472 127.973 17.4673C127.973 15.0875 129.634 13.2914 132.014 13.2914C134.394 13.2914 136.055 15.0875 136.055 17.4673ZM152.4 13.5159C153.433 13.5159 154.241 12.7076 154.241 11.7198C154.241 10.7319 153.433 9.92365 152.4 9.92365H149.616C145.081 9.92365 141.848 13.1567 141.848 17.5122C141.848 21.8678 145.081 25.1008 149.616 25.1008H152.4C153.433 25.1008 154.241 24.2926 154.241 23.3047C154.241 22.3169 153.433 21.5086 152.4 21.5086H149.526C147.102 21.5086 145.53 19.8023 145.53 17.5122C145.53 15.2222 147.146 13.5159 149.526 13.5159H152.4ZM84.8661 24.6967C85.5397 25.4152 86.7072 25.4152 87.3807 24.7416C88.0543 24.0681 88.1441 22.9006 87.4705 22.227L82.8006 17.4224L87.2909 12.7974C87.9644 12.079 87.9195 10.9564 87.2011 10.2829C86.5275 9.56442 85.3601 9.60933 84.6865 10.3278L80.0615 15.0875C79.6574 15.4916 79.388 15.5814 79.0737 15.5814C78.6246 15.5814 78.2205 15.2671 78.2205 14.7732V10.7768C76.6938 8.89088 74.5385 9.96855 74.5385 11.5851V24.2926C76.0652 26.1785 78.2205 25.1008 78.2205 23.4843V19.2635C78.9839 19.4431 79.2982 19.0389 80.0615 19.8023L84.8661 24.6967ZM89.4462 17.4673C89.4462 21.9127 92.7242 25.1906 97.2144 25.1906C102.917 25.1906 106.689 19.8472 104.219 13.6506C103.725 12.3933 102.244 10.9115 100.941 10.4176C94.655 8.08263 89.4462 11.8545 89.4462 17.4673ZM101.256 17.4673C101.256 19.8472 99.5943 21.6433 97.2144 21.6433C94.7897 21.6433 93.1732 19.8472 93.1732 17.4673C93.1732 15.0875 94.8346 13.2914 97.2144 13.2914C99.5943 13.2914 101.256 15.0875 101.256 17.4673ZM158.776 16.0304C159.764 16.0304 160.617 15.2222 160.617 14.1894C160.617 13.1567 159.764 12.3484 158.776 12.3484C157.744 12.3484 156.935 13.1567 156.935 14.1894C156.935 15.2222 157.744 16.0304 158.776 16.0304ZM158.776 22.6312C159.764 22.6312 160.617 21.778 160.617 20.7452C160.617 19.7125 159.764 18.9042 158.776 18.9042C157.744 18.9042 156.935 19.7125 156.935 20.7452C156.935 21.778 157.744 22.6312 158.776 22.6312Z" fill="#1D1D1B"/>
<path fill-rule="evenodd" clip-rule="evenodd" d="M47.9123 34.3952C47.4633 34.8443 46.8796 35.0688 46.206 35.0688C45.5325 35.0688 44.9487 34.8443 44.4997 34.3952C44.0507 33.9462 43.8262 33.3625 43.8262 32.6889C43.8262 32.0154 44.0507 31.4317 44.4997 30.9826C44.9487 30.5336 45.5325 30.3091 46.206 30.3091C46.8796 30.3091 47.4633 30.5336 47.9123 30.9826C48.3614 31.4317 48.5859 32.0154 48.5859 32.6889C48.5859 33.3625 48.3614 33.9462 47.9123 34.3952ZM44.9487 33.9013C45.2631 34.2156 45.6672 34.3952 46.206 34.3952C46.7 34.3952 47.1041 34.2156 47.4184 33.9013C47.7327 33.587 47.9123 33.1829 47.9123 32.6889C47.9123 32.195 47.7327 31.7909 47.4184 31.4766C47.1041 31.1622 46.7 30.9826 46.206 30.9826C45.7121 30.9826 45.308 31.1622 44.9487 31.4766C44.6344 31.7909 44.4548 32.195 44.4548 32.6889C44.4548 33.1829 44.6344 33.587 44.9487 33.9013Z" fill="#1D1D1B"/>
<path fill-rule="evenodd" clip-rule="evenodd" d="M53.8401 30.6683V34.6647C53.8401 34.8443 53.7054 35.0239 53.4809 35.0239C53.3013 35.0239 53.1217 34.8892 53.1217 34.6647V32.9135H50.5622V34.6647C50.5622 34.8443 50.4275 35.0239 50.203 35.0239C50.0234 35.0239 49.8438 34.8892 49.8438 34.6647V30.6683C49.8438 30.4887 49.9785 30.3091 50.203 30.3091C50.3826 30.3091 50.5622 30.4438 50.5622 30.6683V32.2848H53.1217V30.6683C53.1217 30.4887 53.2564 30.3091 53.4809 30.3091C53.7054 30.354 53.8401 30.4887 53.8401 30.6683Z" fill="#1D1D1B"/>
<path fill-rule="evenodd" clip-rule="evenodd" d="M58.5092 34.7096V31.0724H56.758L56.6233 33.0931C56.5335 34.4402 56.1294 34.979 55.2313 34.979C54.7823 35.0239 54.7823 34.3055 55.2313 34.3055C55.7252 34.3055 55.9497 33.9462 55.9947 32.9135L56.1294 30.7132C56.1294 30.5336 56.309 30.354 56.4886 30.354H58.8684C59.0481 30.354 59.2277 30.4887 59.2277 30.7132V34.6647C59.2277 34.8443 59.093 35.0239 58.8684 35.0239C58.6439 35.0239 58.5092 34.8892 58.5092 34.7096Z" fill="#1D1D1B"/>
<path fill-rule="evenodd" clip-rule="evenodd" d="M65.0196 34.7096C65.0196 34.8892 64.8848 35.0688 64.6603 35.0688C64.4807 35.0688 64.3011 34.9341 64.3011 34.7096V34.53C63.897 34.8892 63.403 35.1137 62.7744 35.1137C62.1009 35.1137 61.562 34.8892 61.113 34.4402C60.664 33.9911 60.4395 33.4074 60.4395 32.7339C60.4395 32.0603 60.664 31.4766 61.0681 31.0275C61.5171 30.5785 62.056 30.354 62.7295 30.354C63.3132 30.354 63.8521 30.5336 64.2562 30.8928V30.7132C64.2562 30.5336 64.3909 30.354 64.6154 30.354C64.795 30.354 64.9746 30.4887 64.9746 30.7132V34.7096H65.0196ZM64.346 33.6768V31.7011C63.9868 31.2072 63.5378 30.9826 62.9091 30.9826C62.4152 30.9826 62.0111 31.1623 61.6518 31.4766C61.3375 31.7909 61.1579 32.195 61.1579 32.689C61.1579 33.1829 61.2926 33.587 61.6518 33.9462C61.9662 34.2606 62.4152 34.4402 62.9091 34.4402C63.5378 34.3953 63.9868 34.1708 64.346 33.6768Z" fill="#1D1D1B"/>
<path fill-rule="evenodd" clip-rule="evenodd" d="M69.8248 31.4767L67.2205 34.8893C67.1307 35.024 66.9959 35.0689 66.8612 35.024C66.6816 34.9791 66.6367 34.8444 66.6367 34.6648V30.6685C66.6367 30.4888 66.7714 30.3092 66.9959 30.3092C67.1756 30.3092 67.3552 30.4439 67.3552 30.6685V33.8566L69.9595 30.4888C70.0493 30.3541 70.1841 30.3092 70.3637 30.3541C70.5433 30.399 70.5882 30.5337 70.5882 30.7134V34.7097C70.5882 34.8893 70.4535 35.0689 70.229 35.0689C70.0493 35.0689 69.8697 34.9342 69.8697 34.7097L69.8248 31.4767ZM67.894 28.1988C67.9389 28.6478 68.1634 28.8274 68.5226 28.8723C68.8819 28.8723 69.1064 28.6478 69.1513 28.1988C69.1513 27.7049 69.9595 27.7049 69.8697 28.2886C69.8248 29.007 69.3309 29.4112 68.5226 29.4112C67.7144 29.4112 67.2205 28.9621 67.1756 28.2886C67.0858 27.7049 67.8491 27.7049 67.894 28.1988Z" fill="#1D1D1B"/>
<path fill-rule="evenodd" clip-rule="evenodd" d="M76.0218 30.6683V34.6647C76.0218 34.8443 75.887 35.0239 75.6625 35.0239C75.4829 35.0239 75.3033 34.8892 75.3033 34.6647V32.9135H72.7438V34.6647C72.7438 34.8443 72.6091 35.0239 72.3846 35.0239C72.205 35.0239 72.0254 34.8892 72.0254 34.6647V30.6683C72.0254 30.4887 72.1601 30.3091 72.3846 30.3091C72.5642 30.3091 72.7438 30.4438 72.7438 30.6683V32.2848H75.3033V30.6683C75.3033 30.4887 75.438 30.3091 75.6625 30.3091C75.8421 30.354 76.0218 30.4887 76.0218 30.6683Z" fill="#1D1D1B"/>
<path fill-rule="evenodd" clip-rule="evenodd" d="M79.4786 31.791C79.9276 31.7461 79.9276 32.5094 79.4786 32.4645H77.5926C77.1436 32.5094 77.1436 31.7461 77.5926 31.791H79.4786Z" fill="#1D1D1B"/>
<path fill-rule="evenodd" clip-rule="evenodd" d="M81.0957 30.7132C81.0957 30.5336 81.2304 30.354 81.4549 30.354H83.7899C83.9695 30.354 84.1042 30.4887 84.1042 30.6683C84.1042 30.8479 83.9695 31.0275 83.7899 31.0275H81.8141V34.6647C81.8141 35.1137 81.1406 35.1137 81.1406 34.6647V30.7132H81.0957Z" fill="#1D1D1B"/>
<path fill-rule="evenodd" clip-rule="evenodd" d="M88.3248 31.4766L85.7205 34.8892C85.6306 35.0239 85.4959 35.0688 85.3612 35.0239C85.1816 34.979 85.1367 34.8443 85.1367 34.6647V30.6683C85.1367 30.4887 85.2714 30.3091 85.4959 30.3091C85.6755 30.3091 85.8552 30.4438 85.8552 30.6683V33.8564L88.4595 30.4887C88.5493 30.354 88.684 30.3091 88.8637 30.354C89.0433 30.3989 89.0882 30.5336 89.0882 30.7132V34.7096C89.0882 34.8892 88.9535 35.0688 88.729 35.0688C88.5493 35.0688 88.3697 34.9341 88.3697 34.7096L88.3248 31.4766Z" fill="#1D1D1B"/>
<path fill-rule="evenodd" clip-rule="evenodd" d="M94.2074 30.3989C94.387 30.3989 94.5666 30.5336 94.5666 30.7132V34.6647C94.5666 34.8443 94.4319 35.0239 94.2074 35.0239C94.0278 35.0239 93.8482 34.8892 93.8482 34.6647V31.0276H91.2438V34.6647C91.2438 34.8443 91.1091 35.0239 90.8846 35.0239C90.705 35.0239 90.5254 34.8892 90.5254 34.6647V30.7132C90.5254 30.5336 90.6601 30.3989 90.8846 30.3989H94.2074Z" fill="#1D1D1B"/>
<path fill-rule="evenodd" clip-rule="evenodd" d="M99.8206 30.9826C100.225 31.4316 100.404 31.9705 100.315 32.5991C100.27 32.8236 100.18 32.9583 99.9553 32.9583H96.4978C96.6325 33.8115 97.306 34.3952 98.2939 34.3952C98.7878 34.3952 99.2368 34.2156 99.5961 33.9013C100 33.5421 100.404 34.0809 100.045 34.3503C99.5512 34.7994 98.9674 35.0239 98.249 35.0239C97.5305 35.0239 96.9468 34.7994 96.4978 34.3503C96.0487 33.9013 95.8242 33.3176 95.8242 32.644C95.8242 31.9705 96.0487 31.3867 96.4978 30.9377C96.9468 30.4887 97.5305 30.2642 98.2041 30.2642C98.8776 30.3091 99.4165 30.5336 99.8206 30.9826ZM99.6859 32.3746C99.6859 31.5214 99.0572 30.9377 98.2041 30.9377C97.3509 30.9377 96.6774 31.5214 96.5427 32.3746H99.6859Z" fill="#1D1D1B"/>
<path fill-rule="evenodd" clip-rule="evenodd" d="M105.522 30.9826C105.971 31.4317 106.195 32.0154 106.195 32.6889C106.195 33.3625 105.971 33.9462 105.522 34.3952C105.073 34.8443 104.534 35.0688 103.86 35.0688C103.277 35.0688 102.783 34.8892 102.379 34.4851V36.6404C102.379 36.82 102.244 36.9996 102.019 36.9996C101.84 36.9996 101.66 36.8649 101.66 36.6404V30.6683C101.66 30.4887 101.795 30.3091 102.019 30.3091C102.199 30.3091 102.379 30.4887 102.379 30.6683V30.8928C102.783 30.5336 103.277 30.3091 103.905 30.3091C104.534 30.3091 105.073 30.5336 105.522 30.9826ZM105.028 33.9013C105.342 33.587 105.522 33.1829 105.522 32.644C105.522 32.1501 105.342 31.746 105.028 31.4317C104.714 31.1173 104.309 30.9377 103.815 30.9377C103.187 30.9377 102.693 31.1622 102.379 31.6562V33.6768C102.693 34.1258 103.187 34.3952 103.815 34.3952C104.265 34.3952 104.714 34.2605 105.028 33.9013Z" fill="#1D1D1B"/>
<path fill-rule="evenodd" clip-rule="evenodd" d="M112.123 30.6683V34.6647C112.123 34.8443 111.988 35.0239 111.764 35.0239C111.584 35.0239 111.405 34.8892 111.405 34.6647V31.2969L110.058 32.4644C109.968 32.5542 109.878 32.5991 109.788 32.5991C109.698 32.5991 109.608 32.5542 109.519 32.4644L108.172 31.2969V34.6647C108.172 34.8443 108.037 35.0239 107.812 35.0239C107.633 35.0239 107.498 34.8892 107.498 34.6647V30.6683C107.498 30.4438 107.678 30.3091 107.857 30.3091C107.947 30.3091 107.992 30.354 108.082 30.3989L109.788 31.7909L111.494 30.3989C111.584 30.354 111.674 30.3091 111.719 30.3091C111.943 30.354 112.123 30.4438 112.123 30.6683Z" fill="#1D1D1B"/>
<path fill-rule="evenodd" clip-rule="evenodd" d="M117.916 34.7096C117.916 34.8892 117.781 35.0688 117.557 35.0688C117.377 35.0688 117.198 34.9341 117.198 34.7096V34.53C116.793 34.8892 116.3 35.1137 115.671 35.1137C114.997 35.1137 114.459 34.8892 114.009 34.4402C113.56 33.9911 113.336 33.4074 113.336 32.7339C113.336 32.0603 113.56 31.4766 113.965 31.0275C114.414 30.5785 114.952 30.354 115.626 30.354C116.21 30.354 116.749 30.5336 117.153 30.8928V30.7132C117.153 30.5336 117.287 30.354 117.512 30.354C117.692 30.354 117.871 30.4887 117.871 30.7132V34.7096H117.916ZM117.243 33.6768V31.7011C116.883 31.2072 116.434 30.9826 115.806 30.9826C115.312 30.9826 114.908 31.1623 114.548 31.4766C114.234 31.7909 114.054 32.195 114.054 32.689C114.054 33.1829 114.189 33.587 114.548 33.9462C114.863 34.2606 115.312 34.4402 115.806 34.4402C116.434 34.3953 116.928 34.1708 117.243 33.6768Z" fill="#1D1D1B"/>
<path fill-rule="evenodd" clip-rule="evenodd" d="M123.305 30.9826C123.754 31.4317 123.979 32.0154 123.979 32.6889C123.979 33.3625 123.754 33.9462 123.305 34.3952C122.856 34.8443 122.317 35.0688 121.644 35.0688C121.06 35.0688 120.566 34.8892 120.162 34.4851V36.6404C120.162 36.82 120.027 36.9996 119.803 36.9996C119.623 36.9996 119.443 36.8649 119.443 36.6404V30.6683C119.443 30.4887 119.578 30.3091 119.803 30.3091C119.982 30.3091 120.162 30.4887 120.162 30.6683V30.8928C120.566 30.5336 121.06 30.3091 121.689 30.3091C122.317 30.3091 122.856 30.5336 123.305 30.9826ZM122.811 33.9013C123.125 33.587 123.305 33.1829 123.305 32.644C123.305 32.1501 123.125 31.746 122.811 31.4317C122.497 31.1173 122.093 30.9377 121.599 30.9377C120.97 30.9377 120.476 31.1622 120.162 31.6562V33.6768C120.476 34.1258 120.97 34.3952 121.599 34.3952C122.093 34.3952 122.497 34.2605 122.811 33.9013Z" fill="#1D1D1B"/>
<path fill-rule="evenodd" clip-rule="evenodd" d="M128.692 34.4402C128.872 34.5749 128.872 34.7994 128.737 34.9341C128.602 35.0688 128.378 35.0688 128.243 34.9341L125.998 32.8686V34.7096C125.998 34.8892 125.863 35.0688 125.639 35.0688C125.459 35.0688 125.279 34.9341 125.279 34.7096V30.6683C125.279 30.4887 125.414 30.354 125.639 30.354C125.818 30.354 125.998 30.4887 125.998 30.7132V32.5093L128.153 30.4887C128.288 30.354 128.512 30.354 128.647 30.4887C128.782 30.6234 128.782 30.8479 128.602 30.9826L126.671 32.689L128.692 34.4402Z" fill="#1D1D1B"/>
<path fill-rule="evenodd" clip-rule="evenodd" d="M133.633 30.9826C134.037 31.4316 134.217 31.9705 134.127 32.5991C134.082 32.8236 133.992 32.9583 133.768 32.9583H130.31C130.445 33.8115 131.119 34.3952 132.106 34.3952C132.6 34.3952 133.049 34.2156 133.409 33.9013C133.813 33.5421 134.217 34.0809 133.858 34.3503C133.364 34.7994 132.78 35.0239 132.061 35.0239C131.343 35.0239 130.759 34.7994 130.31 34.3503C129.861 33.9013 129.637 33.3176 129.637 32.644C129.637 31.9705 129.861 31.3867 130.31 30.9377C130.759 30.4887 131.343 30.2642 132.017 30.2642C132.69 30.3091 133.229 30.5336 133.633 30.9826ZM133.498 32.3746C133.498 31.5214 132.87 30.9377 132.017 30.9377C131.163 30.9377 130.49 31.5214 130.355 32.3746H133.498Z" fill="#1D1D1B"/>
<path fill-rule="evenodd" clip-rule="evenodd" d="M136.37 34.7096V31.0725H135.158C134.978 31.0725 134.799 30.9378 134.799 30.7582C134.799 30.5785 134.934 30.3989 135.158 30.3989H138.256C138.436 30.3989 138.616 30.5336 138.616 30.7582C138.616 30.9378 138.481 31.0725 138.256 31.0725H137.044V34.7096C137.044 34.8892 136.909 35.0239 136.685 35.0239C136.505 35.0239 136.37 34.8892 136.37 34.7096Z" fill="#1D1D1B"/>
</g>
</g>
<defs>
<clipPath id="clip0_2404_2188">
<rect width="160.618" height="37" fill="white"/>
</clipPath>
</defs>
</svg>
