<?xml version="1.0" encoding="utf-8"?>
<!-- Generator: Adobe Illustrator 23.0.2, SVG Export Plug-In . SVG Version: 6.00 Build 0)  -->
<svg version="1.1" id="Слой_1" xmlns="http://www.w3.org/2000/svg" xmlns:xlink="http://www.w3.org/1999/xlink" x="0px" y="0px"
	 viewBox="0 0 203.2 19.8" style="enable-background:new 0 0 203.2 19.8;" xml:space="preserve">
<style type="text/css">
	.st0{fill:#D300AA;}
	.st1{fill:none;}
</style>
<g id="Layer_2">
	<g id="Layer_1-2">
		<path class="st0" d="M22.2,19.4L17,0.4h3.4l4,14.6l4.2-14.6h3.2l4.3,14.7l4-14.7h3.4l-5.2,19h-3.9L30.2,5.2l-4.1,14.2H22.2z"/>
		<path class="st0" d="M45.8,0.4H49v19h-3.2V0.4z"/>
		<path class="st0" d="M55.9,16.4h7.8v3h-11v-19h3.2V16.4z"/>
		<path class="st0" d="M73.6,0.4c2.5-0.1,4.9,0.9,6.6,2.7c1.8,1.8,2.7,4.2,2.7,6.8c0.1,2.5-0.9,4.9-2.7,6.8
			c-1.7,1.8-4.1,2.8-6.6,2.7H66v-19L73.6,0.4L73.6,0.4z M73.6,16.4c1.7,0.1,3.3-0.6,4.4-1.8c1.2-1.3,1.8-3,1.7-4.7
			c0.1-1.7-0.6-3.4-1.7-4.7c-1.1-1.2-2.7-1.9-4.4-1.8h-4.4v13H73.6z"/>
		<path class="st0" d="M99.8,14c0,1.5-0.6,2.9-1.7,3.9s-2.6,1.6-4.1,1.5h-8.2v-19h7.6c1.5,0,2.9,0.5,4,1.5c1.1,0.9,1.7,2.3,1.6,3.7
			c0,1.6-0.7,3-2,3.9C98.8,10.3,99.9,12.1,99.8,14z M89,3.3v5h4.5c1.4,0,2.5-1.1,2.5-2.5s-1.1-2.5-2.5-2.5C93.5,3.3,89,3.3,89,3.3z
			 M94.1,16.5c1.5-0.1,2.6-1.4,2.5-2.8c-0.1-1.3-1.2-2.4-2.5-2.5H89v5.3H94.1L94.1,16.5z"/>
		<path class="st0" d="M106,16.4h8.6v3h-11.8v-19h11.6v3H106v4.9h7.7v3H106V16.4z"/>
		<path class="st0" d="M128.3,19.4l-4.1-6.9h-3.7v6.9h-3.2v-19h7.7c1.6,0,3.2,0.6,4.4,1.8c1.2,1.1,1.9,2.7,1.8,4.3
			c0,2.4-1.5,4.6-3.8,5.5l4.4,7.4H128.3z M120.6,3.3v6.4h4.5c1.8,0,3.2-1.4,3.2-3.2s-1.4-3.2-3.2-3.2l0,0H120.6z"/>
		<path class="st0" d="M145.2,19.4l-4.1-6.9h-3.7v6.9h-3.2v-19h7.7c1.6,0,3.2,0.6,4.4,1.8c1.2,1.1,1.8,2.7,1.8,4.3
			c0,2.4-1.5,4.6-3.8,5.5l4.4,7.4H145.2z M137.4,3.3v6.4h4.5c1.7,0,3-1.4,3-3.1l0,0c0-1.7-1.3-3.1-3-3.2L137.4,3.3L137.4,3.3z"/>
		<path class="st0" d="M151,0.4h3.2v19H151V0.4z"/>
		<path class="st0" d="M161,16.4h8.5v3h-11.7v-19h11.6v3H161v4.9h7.7v3H161V16.4z"/>
		<path class="st0" d="M171.8,15.1l2.8-1.6c0.6,2.1,2.6,3.4,4.8,3.2c2.4,0,3.6-1,3.6-2.5c0-0.7-0.4-1.4-1-1.8
			c-1.1-0.6-2.2-1.1-3.4-1.4c-1.4-0.3-2.8-0.9-4.1-1.7c-1.3-0.9-2-2.3-1.9-3.8c-0.1-1.5,0.6-3,1.8-4s2.8-1.5,4.4-1.5
			c2.9-0.1,5.5,1.6,6.7,4.2l-2.7,1.5c-0.6-1.6-2.2-2.7-4-2.6c-1.9,0-3,0.9-3,2.4s0.9,2.1,3.9,3c0.7,0.2,1.3,0.4,1.6,0.5
			s0.8,0.3,1.4,0.5c0.5,0.2,1,0.4,1.4,0.8c1.3,0.9,2,2.3,2,3.9c0.1,1.6-0.6,3.1-1.9,4.1c-1.4,1.1-3.2,1.6-4.9,1.5
			C175.5,19.7,172.8,18,171.8,15.1z"/>
		<rect x="-18.4" y="-22.1" class="st1" width="240" height="64"/>
	</g>
</g>
</svg>
