<svg width="451" height="78" viewBox="0 0 451 78" fill="none" xmlns="http://www.w3.org/2000/svg">
<path fill-rule="evenodd" clip-rule="evenodd" d="M242.699 0.5C246.799 0.3 250.899 0.1 255.099 0C257.399 0 259.799 0 262.099 0.2C265.399 0.5 268.699 1.2 271.499 2.9C273.099 3.9 274.499 5.2 275.599 6.7C277.499 9.4 278.499 12.6 279.099 15.8C279.799 19.7 280.099 23.7 280.399 27.7C280.699 32.1 280.899 36.5 281.099 41C281.299 45.1 281.499 49.2 281.499 53.3C281.399 57.1 281.299 60.9 280.099 64.5C279.599 66.1 278.799 67.7 277.799 69.1C276.799 70.5 275.499 71.7 274.099 72.6C271.399 74.4 268.199 75.2 265.099 75.8C263.399 76 261.599 75.9 259.999 75.2C257.599 74.3 255.599 72.3 254.699 69.9C254.399 69.2 254.199 68.4 254.099 67.6C253.499 63.5 252.899 59.4 252.199 55.4C251.599 52 250.899 48.5 249.799 45.3C248.899 42.5 247.499 39.9 245.499 37.8C243.599 35.8 241.299 34.3 238.699 33.4C235.199 32.1 231.599 31.7 227.899 31.3C222.799 30.8 217.599 30.7 212.499 30.5C209.599 30.3 206.799 28.7 205.199 26.2C204.099 24.5 203.499 22.4 203.599 20.4C203.799 18.6 203.999 16.7 204.399 15C204.899 13.1 205.599 11.3 206.699 9.6C207.599 8.2 208.799 6.9 210.199 6C212.699 4.2 215.599 3.3 218.599 2.6C222.399 1.8 226.199 1.5 229.999 1.2C234.099 0.9 238.399 0.7 242.699 0.5Z" fill="url(#paint0_linear_2343_1203)"/>
<path fill-rule="evenodd" clip-rule="evenodd" d="M8.79961 9.9002C11.7996 7.5002 15.6996 6.3002 19.5996 6.3002C22.8996 6.3002 26.1996 6.3002 29.4996 6.3002C29.4996 26.2002 29.4996 46.1002 29.4996 66.0002C27.3996 66.0002 25.1996 66.0002 23.0996 66.0002C23.0996 58.4002 23.0996 50.7002 23.0996 43.1002C21.2996 43.1002 19.4996 43.1002 17.6996 43.1002C14.2996 50.7002 10.8996 58.4002 7.49961 66.0002C4.99961 66.0002 2.49961 66.0002 0.0996094 66.0002C3.79961 57.8002 7.59961 49.7002 11.2996 41.5002C8.69961 40.2002 6.49961 38.3002 4.99961 35.8002C3.39961 33.1002 2.69961 29.9002 2.49961 26.7002C2.29961 23.4002 2.69961 20.0002 3.79961 16.8002C4.79961 14.1002 6.49961 11.7002 8.79961 9.9002ZM16.4996 12.1002C14.5996 12.7002 12.9996 13.8002 11.8996 15.4002C10.3996 17.4002 9.79961 20.0002 9.49961 22.4002C9.29961 24.4002 9.29961 26.5002 9.59961 28.5002C9.89961 30.2002 10.2996 31.9002 11.1996 33.4002C11.9996 34.7002 13.0996 35.8002 14.4996 36.5002C15.9996 37.3002 17.6996 37.6002 19.3996 37.6002C20.5996 37.6002 21.6996 37.6002 22.8996 37.6002C22.8996 28.9002 22.8996 20.2002 22.8996 11.5002C21.7996 11.5002 20.6996 11.5002 19.5996 11.5002C18.6996 11.7002 17.5996 11.8002 16.4996 12.1002ZM313.3 6.2002C320.2 6.2002 327 6.2002 333.9 6.2002C333.9 24.4002 333.9 42.5002 333.9 60.7002C333.9 62.4002 333.9 64.2002 333.9 65.9002C332.5 65.9002 331.1 65.9002 329.7 65.9002C329.7 47.1002 329.7 28.4002 329.7 9.6002C325.4 9.6002 321.1 9.6002 316.9 9.6002C316.9 13.9002 316.8 18.3002 316.7 22.6002C316.5 31.1002 316.1 39.7002 315.4 48.2002C315.1 51.9002 314.8 55.7002 313.8 59.3002C313.3 61.0002 312.6 62.7002 311.4 64.0002C310.5 65.1002 309.2 65.8002 307.8 66.0002C306.9 66.1002 306 66.2002 305.1 65.9002C305 64.6002 304.9 63.3002 304.8 62.0002C305.8 62.2002 306.9 62.1002 307.8 61.5002C308.8 60.8002 309.5 59.6002 309.9 58.5002C310.5 56.7002 310.9 54.8002 311.1 52.9002C311.3 51.1002 311.5 49.3002 311.6 47.5002C312.3 39.1002 312.6 30.6002 312.9 22.1002C313.2 17.0002 313.3 11.6002 313.3 6.2002ZM346 24.6002C349 23.0002 352.5 22.7002 355.8 23.3002C357.3 23.6002 358.7 24.2002 359.9 25.2002C361 26.1002 361.9 27.3002 362.5 28.7002C363.3 30.6002 363.6 32.7002 363.6 34.8002C363.6 41.2002 363.6 47.7002 363.6 54.1002C363.6 56.3002 363.5 58.6002 363.7 60.8002C363.8 62.5002 364 64.2002 364.5 65.9002C363.3 65.9002 362.1 65.9002 360.9 65.9002C360.3 64.1002 360 62.2002 359.9 60.3002C359.2 61.5002 358.5 62.7002 357.6 63.7002C356.6 64.8002 355.4 65.7002 354 66.2002C352.4 66.8002 350.7 66.9002 349 66.7002C347.3 66.4002 345.7 65.6002 344.4 64.4002C343.3 63.4002 342.5 62.0002 342 60.6002C341.4 58.9002 341.1 57.2002 341 55.4002C340.9 53.5002 341.1 51.6002 341.6 49.8002C342 48.3002 342.7 46.8002 343.7 45.5002C344.4 44.6002 345.3 43.7002 346.4 43.1002C347.9 42.2002 349.6 41.6002 351.3 41.3002C354.1 40.8002 357 41.0002 359.8 41.0002C359.8 39.7002 359.8 38.5002 359.8 37.2002C359.8 35.4002 359.8 33.5002 359.4 31.7002C359.1 30.3002 358.4 28.8002 357.2 27.9002C356 27.0002 354.5 26.6002 353.1 26.6002C350 26.5002 346.9 27.8002 344.8 30.1002C344.5 30.4002 344.2 30.8002 344 31.2002C343.6 29.9002 343.3 28.7002 342.9 27.4002C343.6 26.2002 344.8 25.3002 346 24.6002ZM352.2 44.0002C350.4 44.3002 348.7 45.0002 347.4 46.3002C346.4 47.3002 345.8 48.5002 345.4 49.9002C344.9 51.6002 344.8 53.4002 344.9 55.1002C345 56.9002 345.3 58.7002 346.2 60.3002C346.8 61.5002 347.8 62.5002 349 63.1002C350.6 63.8002 352.5 63.8002 354.1 63.0002C355.2 62.5002 356.1 61.7002 356.9 60.7002C358 59.3002 358.8 57.7002 359.5 56.0002C359.6 55.7002 359.8 55.4002 359.8 55.0002C359.8 51.2002 359.8 47.4002 359.8 43.6002C359.1 43.6002 358.5 43.6002 357.8 43.6002C355.9 43.8002 354.1 43.6002 352.2 44.0002ZM435.2 23.5002C437.6 22.9002 440.1 22.8002 442.4 23.3002C444.5 23.7002 446.4 24.8002 447.7 26.6002C449 28.3002 449.6 30.5002 449.9 32.6002C450.1 34.1002 450 35.7002 450 37.2002C450 44.0002 450 50.8002 450 57.7002C450 59.9002 450.1 62.1002 450.5 64.3002C450.6 64.9002 450.7 65.4002 450.9 65.9002C449.7 65.9002 448.5 65.9002 447.3 65.9002C446.7 64.1002 446.5 62.2002 446.3 60.2002C445.4 61.9002 444.4 63.4002 442.9 64.6002C441.9 65.5002 440.6 66.1002 439.3 66.4002C437 66.9002 434.6 66.7002 432.6 65.5002C430.9 64.6002 429.6 63.0002 428.8 61.3002C427.7 59.0002 427.4 56.4002 427.5 53.8002C427.6 51.4002 428 48.9002 429.2 46.7002C430.2 44.8002 431.8 43.3002 433.8 42.3002C436.2 41.1002 438.8 40.7002 441.5 40.7002C443.1 40.7002 444.7 40.7002 446.2 40.7002C446.2 39.2002 446.2 37.8002 446.2 36.3002C446.2 34.2002 446.1 32.0002 445.3 30.0002C444.9 28.9002 444.2 28.0002 443.2 27.3002C442.3 26.7002 441.2 26.3002 440.1 26.2002C437.4 25.9002 434.6 26.7002 432.4 28.4002C431.5 29.1002 430.8 29.9002 430.2 30.7002C429.8 29.5002 429.5 28.2002 429.1 26.9002C430.7 25.4002 432.9 24.2002 435.2 23.5002ZM437.7 44.2002C436.5 44.5002 435.4 45.0002 434.4 45.8002C433.5 46.5002 432.8 47.5002 432.4 48.5002C431.6 50.3002 431.4 52.4002 431.4 54.3002C431.4 55.9002 431.6 57.6002 432.2 59.2002C432.6 60.2002 433.2 61.2002 434 62.0002C435.7 63.7002 438.5 64.1002 440.7 63.0002C441.8 62.5002 442.7 61.6002 443.5 60.7002C444.7 59.2002 445.6 57.4002 446.2 55.5002C446.3 55.2002 446.3 55.0002 446.3 54.7002C446.3 51.0002 446.3 47.4002 446.3 43.7002C444.7 43.7002 443.2 43.7002 441.6 43.7002C440.2 43.7002 438.9 43.9002 437.7 44.2002ZM109.1 23.4002C110.6 23.2002 112.2 23.2002 113.7 23.6002C115.5 24.0002 117.1 25.0002 118.3 26.4002C119.4 27.6002 120.1 29.0002 120.7 30.5002C121.9 33.7002 122.3 37.1002 122.4 40.5002C122.5 42.4002 122.4 44.4002 122.4 46.3002C116.5 46.3002 110.7 46.3002 104.8 46.3002C104.8 48.3002 104.9 50.4002 105.3 52.4002C105.6 54.2002 106.1 56.0002 107.1 57.6002C107.8 58.7002 108.8 59.8002 110 60.3002C111.3 60.9002 112.7 60.9002 114 60.8002C115.7 60.6002 117.3 60.1002 118.8 59.3002C119.5 58.9002 120.2 58.5002 120.9 58.0002C121.4 59.7002 121.9 61.3002 122.4 63.0002C119.9 64.9002 116.9 66.1002 113.8 66.3002C112 66.5002 110.2 66.4002 108.5 66.0002C106.7 65.5002 105 64.7002 103.7 63.4002C101.6 61.5002 100.2 59.0002 99.3996 56.3002C98.2996 52.8002 97.9996 49.1002 98.0996 45.4002C98.1996 41.4002 98.4996 37.3002 99.6996 33.5002C100.2 31.9002 100.8 30.3002 101.6 28.9002C102.4 27.5002 103.4 26.2002 104.7 25.2002C105.9 24.3002 107.4 23.6002 109.1 23.4002ZM108.7 29.2002C107.8 29.7002 107.2 30.6002 106.8 31.4002C106.2 32.6002 105.9 33.8002 105.6 35.1002C105.2 37.1002 105 39.1002 104.9 41.1002C108.5 41.1002 112.1 41.1002 115.7 41.1002C115.7 38.4002 115.6 35.7002 114.9 33.0002C114.5 31.7002 114 30.3002 112.9 29.4002C111.7 28.4002 110 28.4002 108.7 29.2002ZM168.5 23.3002C170.4 23.2002 172.2 23.3002 174 23.8002C175.2 24.1002 176.4 24.7002 177.4 25.4002C177.1 27.5002 176.8 29.5002 176.5 31.6002C175.7 31.0002 174.9 30.4002 174 29.9002C172.6 29.1002 171 28.6002 169.4 28.7002C168.2 28.7002 167 29.1002 166 29.9002C164.8 30.8002 164 32.1002 163.4 33.4002C162.1 36.3002 161.7 39.5002 161.5 42.7002C161.4 45.7002 161.5 48.6002 161.9 51.5002C162.1 52.9002 162.4 54.2002 162.8 55.5002C163.3 56.8002 163.9 58.0002 164.8 59.1002C165.6 60.0002 166.6 60.7002 167.8 60.9002C169 61.2002 170.3 61.1002 171.5 60.8002C173.3 60.4002 175 59.6002 176.3 58.4002C176.8 60.0002 177.3 61.6002 177.8 63.3002C176.3 64.6002 174.6 65.6002 172.6 66.0002C170.9 66.4002 169.1 66.5002 167.3 66.3002C165.2 66.1002 163.1 65.4002 161.4 64.1002C159.6 62.8002 158.2 61.0002 157.2 59.0002C155.9 56.5002 155.3 53.7002 154.9 50.9002C154.6 48.7002 154.5 46.4002 154.5 44.1002C154.6 40.5002 155 36.9002 156.1 33.5002C157 30.7002 158.6 28.0002 160.8 26.1002C163.1 24.5002 165.8 23.5002 168.5 23.3002ZM37.7996 23.9002C39.9996 23.9002 42.0996 23.9002 44.2996 23.9002C44.2996 29.9002 44.2996 35.8002 44.2996 41.8002C47.4996 41.8002 50.7996 41.8002 53.9996 41.8002C53.9996 37.8002 53.9996 33.8002 53.9996 29.7002C53.9996 27.8002 53.9996 25.8002 53.9996 23.9002C56.1996 23.9002 58.2996 23.9002 60.4996 23.9002C60.4996 37.9002 60.4996 51.9002 60.4996 66.0002C58.2996 66.0002 56.1996 66.0002 53.9996 66.0002C53.9996 59.7002 53.9996 53.4002 53.9996 47.1002C50.7996 47.1002 47.4996 47.1002 44.2996 47.1002C44.2996 53.4002 44.2996 59.7002 44.2996 66.0002C42.0996 66.0002 39.8996 66.0002 37.7996 66.0002C37.7996 51.9002 37.7996 37.9002 37.7996 23.9002ZM71.1996 23.9002C77.6996 23.9002 84.2996 23.9002 90.7996 23.9002C90.7996 36.1002 90.7996 48.4002 90.7996 60.6002C91.8996 60.6002 92.9996 60.6002 94.1996 60.6002C94.1996 65.1002 94.1996 69.7002 94.1996 74.2002C92.1996 74.2002 90.2996 74.2002 88.2996 74.2002C88.2996 71.8002 88.2996 69.4002 88.2996 66.9002C88.2996 66.6002 88.2996 66.2002 88.2996 65.9002C82.2996 65.9002 76.1996 65.9002 70.1996 65.9002C70.1996 68.6002 70.1996 71.4002 70.1996 74.2002C68.1996 74.2002 66.2996 74.2002 64.2996 74.2002C64.2996 69.7002 64.2996 65.1002 64.2996 60.6002C65.1996 60.6002 65.9996 60.6002 66.8996 60.6002C68.2996 57.4002 69.0996 54.0002 69.6996 50.6002C70.3996 46.6002 70.6996 42.6002 70.8996 38.6002C71.1996 33.7002 71.1996 28.8002 71.1996 23.9002ZM76.9996 29.1002C76.9996 36.1002 76.7996 43.1002 75.7996 50.0002C75.1996 53.6002 74.3996 57.2002 73.0996 60.6002C76.7996 60.6002 80.5996 60.6002 84.2996 60.6002C84.2996 50.1002 84.2996 39.6002 84.2996 29.1002C81.8996 29.1002 79.3996 29.1002 76.9996 29.1002ZM129.1 23.9002C131.3 23.9002 133.4 23.9002 135.6 23.9002C135.6 25.8002 135.6 27.6002 135.6 29.5002C135.6 34.1002 135.6 38.7002 135.6 43.3002C139 36.8002 142.3 30.3002 145.7 23.9002C147.9 23.9002 150.1 23.9002 152.3 23.9002C148.8 30.5002 145.3 37.1002 141.8 43.7002C143.3 46.5002 144.8 49.2002 146.2 52.0002C148.5 56.3002 150.8 60.6002 153.1 64.9002C153.3 65.3002 153.5 65.6002 153.7 66.0002C151.3 66.0002 149 66.0002 146.6 66.0002C143.4 60.0002 140.2 54.0002 137 48.0002C136.5 47.0002 136 46.0002 135.4 45.1002C135.4 52.1002 135.4 59.1002 135.4 66.0002C133.2 66.0002 131 66.0002 128.9 66.0002C129.1 51.9002 129.1 37.9002 129.1 23.9002ZM372.6 23.8002C374.8 23.8002 377.1 23.8002 379.3 23.8002C380.9 23.8002 382.6 23.7002 384.2 24.0002C386 24.2002 387.8 24.8002 389.2 25.8002C390.5 26.7002 391.5 28.0002 392.1 29.5002C392.7 30.9002 392.9 32.4002 392.9 33.8002C392.9 35.6002 392.6 37.4002 391.9 39.0002C391 41.0002 389.2 42.6002 387.2 43.5002C387.1 43.5002 387 43.6002 387.1 43.6002C388.6 44.0002 390 44.7002 391.2 45.6002C392.3 46.4002 393.2 47.5002 393.8 48.8002C394.4 50.1002 394.7 51.6002 394.8 53.1002C394.9 55.0002 394.7 56.9002 394 58.7002C393.2 60.9002 391.6 62.9002 389.5 64.0002C388 64.8002 386.4 65.3002 384.7 65.6002C383.2 65.9002 381.6 65.8002 380 65.8002C377.5 65.8002 375 65.8002 372.5 65.8002C372.6 51.9002 372.6 37.9002 372.6 23.8002ZM376.5 27.0002C376.5 32.2002 376.5 37.4002 376.5 42.6002C377.7 42.6002 378.9 42.6002 380 42.6002C381.5 42.6002 382.9 42.6002 384.3 42.2002C385.7 41.8002 387 40.9002 387.8 39.7002C388.8 38.2002 389.2 36.3002 389.2 34.5002C389.2 32.9002 389 31.2002 388.1 29.8002C387.4 28.7002 386.3 27.9002 385 27.6002C383.5 27.1002 381.8 27.1002 380.2 27.1002C379 27.0002 377.7 27.0002 376.5 27.0002ZM376.5 45.5002C376.5 51.3002 376.5 57.1002 376.5 63.0002C378.2 63.0002 380 63.0002 381.7 63.0002C383.4 63.0002 385.2 62.8002 386.8 62.0002C388 61.4002 389 60.6002 389.7 59.4002C390.6 57.9002 390.9 56.0002 391 54.3002C391 52.6002 390.8 50.9002 390 49.4002C389.4 48.2002 388.4 47.2002 387.2 46.6002C385.6 45.8002 383.7 45.5002 382 45.5002C380.2 45.5002 378.3 45.5002 376.5 45.5002ZM401.9 23.8002C403.2 23.8002 404.5 23.8002 405.8 23.8002C405.8 27.2002 405.8 30.5002 405.8 33.9002C405.8 37.1002 405.8 40.4002 405.8 43.6002C407.7 41.0002 409.6 38.3002 411.5 35.6002C414.3 31.7002 417.1 27.7002 419.9 23.8002C421.2 23.8002 422.5 23.8002 423.7 23.8002C422.4 25.7002 421 27.6002 419.7 29.5002C416.4 34.1002 413.1 38.7002 409.8 43.4002C414.8 50.9002 419.7 58.4002 424.7 65.9002C423.2 65.9002 421.8 65.9002 420.3 65.9002C415.8 59.2002 411.3 52.6002 406.9 45.9002C406.5 45.3002 406.1 44.7002 405.7 44.1002C405.7 51.3002 405.7 58.6002 405.7 65.8002C404.4 65.8002 403.1 65.8002 401.8 65.8002C401.9 51.9002 401.9 37.9002 401.9 23.8002Z" fill="black"/>
<path fill-rule="evenodd" clip-rule="evenodd" d="M203.299 23.2998C203.599 25.2998 204.099 27.1998 204.899 29.0998C205.399 30.4998 206.199 31.7998 206.899 33.0998C207.699 34.4998 208.499 35.8998 209.399 37.1998C212.899 42.3998 216.999 47.1998 221.399 51.6998C225.799 56.0998 230.599 60.2998 235.599 63.9998C240.699 67.7998 246.099 71.0998 251.899 73.6998C253.299 74.2998 254.699 74.8998 256.099 75.1998C258.099 75.6998 260.099 76.0998 262.099 76.0998C258.199 76.5998 254.199 76.7998 250.299 77.0998C244.599 77.3998 238.899 77.6998 233.199 77.8998C229.199 77.9998 225.099 78.0998 221.099 77.5998C218.999 77.2998 216.899 76.7998 214.999 75.9998C212.199 74.7998 209.799 72.5998 208.299 69.8998C206.599 66.8998 205.799 63.3998 205.299 59.9998C204.899 57.2998 204.699 54.6998 204.499 51.9998C204.199 47.6998 203.999 43.4998 203.799 39.1998C203.599 34.7998 203.299 30.4998 203.299 26.0998C203.299 25.2998 203.299 24.2998 203.299 23.2998Z" fill="url(#paint1_linear_2343_1203)"/>
<path fill-rule="evenodd" clip-rule="evenodd" d="M203.3 23.2999C203.2 22.2999 203.2 21.2999 203.4 20.3999C203.3 22.4999 203.9 24.4999 205 26.1999C206.6 28.5999 209.4 30.2999 212.3 30.4999C217.4 30.6999 222.6 30.8999 227.7 31.2999C231.4 31.5999 235 32.0999 238.5 33.3999C241.1 34.2999 243.4 35.7999 245.3 37.7999C247.3 39.8999 248.7 42.5999 249.6 45.2999C250.7 48.5999 251.4 51.9999 252 55.3999C252.7 59.4999 253.3 63.4999 253.9 67.5999C254 68.3999 254.2 69.0999 254.5 69.8999C255.5 72.2999 257.4 74.1999 259.8 75.1999C261.4 75.8999 263.2 75.9999 264.9 75.7999C264 75.9999 263 76.1999 262.1 76.1999C260.1 76.0999 258 75.7999 256.1 75.2999C254.7 74.8999 253.3 74.2999 251.9 73.7999C246.1 71.2999 240.7 67.8999 235.6 64.0999C230.6 60.3999 225.8 56.1999 221.4 51.7999C217 47.2999 212.9 42.5999 209.4 37.2999C208.5 35.8999 207.7 34.5999 206.9 33.1999C206.2 31.8999 205.5 30.5999 204.9 29.1999C204.2 27.1999 203.6 25.2999 203.3 23.2999Z" fill="#F1FDFF"/>
<defs>
<linearGradient id="paint0_linear_2343_1203" x1="236.93" y1="46.1037" x2="265.079" y2="9.7232" gradientUnits="userSpaceOnUse">
<stop stop-color="#30D6F7"/>
<stop offset="1" stop-color="#71F7EC"/>
</linearGradient>
<linearGradient id="paint1_linear_2343_1203" x1="212.251" y1="66.5316" x2="233.243" y2="49.3788" gradientUnits="userSpaceOnUse">
<stop stop-color="#23B8CF"/>
<stop offset="0.0244372" stop-color="#22B6CE"/>
<stop offset="0.6757" stop-color="#0986C1"/>
<stop offset="1" stop-color="#0074BC"/>
</linearGradient>
</defs>
</svg>
