<svg width="219" height="29" viewBox="0 0 219 29" fill="none" xmlns="http://www.w3.org/2000/svg">
<g opacity="0.75" clip-path="url(#clip0_2404_2078)">
<path fill-rule="evenodd" clip-rule="evenodd" d="M206.816 9.27127C210.877 9.27127 214.939 9.27127 219 9.27127C219 10.2415 219 11.1579 219 12.1281C217.592 12.1281 216.13 12.1281 214.722 12.1281C214.722 16.2787 214.722 20.4293 214.722 24.5798C213.531 24.5798 212.285 24.5798 211.094 24.5798C211.094 20.4293 211.094 16.2787 211.094 12.1281C209.686 12.1281 208.224 12.1281 206.816 12.1281C206.816 11.2118 206.816 10.2415 206.816 9.27127ZM189.27 9.32517C190.461 9.27127 191.707 9.32517 192.898 9.27127C191.219 11.643 189.486 13.9609 187.808 16.3326C189.649 19.1356 191.707 21.8307 193.602 24.6337C192.248 24.6337 190.84 24.6337 189.486 24.6337C187.699 22.1003 185.912 19.6207 184.125 17.0873C184.125 19.6207 184.125 22.1003 184.125 24.6337C182.934 24.6337 181.688 24.6337 180.497 24.6337C180.497 19.5129 180.497 14.3921 180.497 9.32517C181.688 9.32517 182.934 9.32517 184.125 9.32517C184.125 11.6969 184.125 14.0148 184.125 16.3865C185.804 14.0148 187.537 11.643 189.27 9.32517ZM198.151 12.6133C197.393 13.4218 197.339 14.5538 197.23 15.578C198.963 15.578 200.642 15.578 202.321 15.578C202.267 14.3921 202.267 12.8828 201.129 12.182C200.209 11.643 198.855 11.7508 198.151 12.6133ZM194.793 11.6969C193.71 13.4757 193.44 15.578 193.494 17.6263C193.548 19.3512 193.927 21.1839 195.064 22.5854C196.093 23.933 197.718 24.6337 199.342 24.8493C201.563 25.1188 203.946 24.8493 205.895 23.6096C205.895 22.6393 205.895 21.669 205.895 20.6449C204.595 21.3995 203.187 21.8846 201.725 21.9925C200.588 22.1003 199.342 21.9925 198.422 21.2378C197.555 20.4832 197.393 19.2973 197.285 18.2192C200.209 18.2192 203.133 18.2192 206.112 18.2192C206.112 16.3865 206.22 14.5538 205.678 12.8289C205.354 11.643 204.65 10.5649 203.566 9.8642C202.213 9.00175 200.48 8.84004 198.909 9.05565C197.176 9.27127 195.66 10.2954 194.793 11.6969ZM170.532 11.9125C169.449 12.1281 168.799 13.1523 168.529 14.1765C168.15 15.6858 168.149 17.3029 168.366 18.8122C168.529 19.8902 168.853 21.1839 169.937 21.7768C171.128 22.3698 172.861 22.0464 173.565 20.8066C174.269 19.6207 174.323 18.1653 174.377 16.8177C174.323 15.4162 174.269 13.9609 173.457 12.775C172.753 11.9125 171.507 11.6969 170.532 11.9125ZM170.641 9.21736C172.428 8.62443 174.486 9.05566 175.839 10.3493C177.356 11.8047 177.897 13.907 178.006 15.9014C178.114 18.1653 177.897 20.5371 176.652 22.4776C175.623 24.0947 173.673 25.011 171.778 24.9032C170.316 24.8493 169.016 23.9869 168.204 22.801C168.204 24.8493 168.204 26.9516 168.204 28.9999C167.012 28.9999 165.767 28.9999 164.575 28.9999C164.575 22.4237 164.575 15.8475 164.575 9.27127C165.713 9.27127 166.796 9.27127 167.933 9.27127C167.987 9.91811 168.041 10.5649 168.095 11.2118C168.745 10.3493 169.558 9.54078 170.641 9.21736ZM154.069 18.0036C152.986 18.5965 152.878 20.1058 153.365 21.0761C153.853 22.1003 155.152 22.262 156.127 22.0464C156.885 21.9386 157.535 21.5073 158.023 20.9144C158.023 19.7285 158.023 18.5426 158.023 17.3568C156.669 17.5185 155.261 17.4107 154.069 18.0036ZM153.474 9.27127C155.423 8.89395 157.535 8.84004 159.376 9.64859C160.785 10.2954 161.489 11.8047 161.597 13.314C161.705 17.0873 161.434 20.8605 161.813 24.6337C160.622 24.6337 159.431 24.6337 158.239 24.6337C158.131 24.2025 158.023 23.7713 157.968 23.34C157.156 24.0947 156.127 24.6876 154.99 24.7954C153.474 24.9571 151.687 24.6876 150.603 23.5017C149.466 22.3159 149.195 20.5371 149.466 18.9739C149.737 17.6263 150.766 16.4943 152.012 15.9553C153.907 15.0928 155.965 15.0389 158.023 15.0389C158.023 14.1765 158.131 13.0984 157.373 12.4516C156.506 11.8586 155.369 11.9125 154.394 12.0203C152.986 12.236 151.632 12.6672 150.441 13.4757C150.441 12.5055 150.441 11.4813 150.441 10.511C151.362 9.8642 152.445 9.59469 153.474 9.27127ZM128.779 3.44971C130.404 3.44971 132.029 3.44971 133.653 3.44971C135.061 8.62443 136.469 13.8531 137.931 19.0278C139.394 13.8531 140.802 8.62443 142.264 3.44971C143.888 3.44971 145.459 3.44971 147.083 3.44971C147.083 10.511 147.083 17.5724 147.083 24.6337C145.946 24.6337 144.755 24.6337 143.618 24.6337C143.618 19.3512 143.618 14.0687 143.618 8.73223C142.101 14.0148 140.747 19.2973 139.285 24.6337C138.256 24.6337 137.227 24.6337 136.253 24.6337C134.845 19.3512 133.328 14.0687 131.974 8.73223C131.866 14.0148 131.974 19.3512 131.92 24.6337C130.891 24.6337 129.917 24.6337 128.888 24.6337C128.779 17.5724 128.779 10.511 128.779 3.44971Z" fill="black"/>
<path fill-rule="evenodd" clip-rule="evenodd" d="M61.6818 9.27097C62.8731 9.27097 64.1187 9.27097 65.3101 9.27097C65.3101 11.6427 65.3101 13.9606 65.3101 16.3323C67.043 13.9606 68.7218 11.6427 70.4548 9.27097C71.7003 9.27097 72.8917 9.27097 74.1372 9.27097C72.4043 11.6427 70.7255 13.9606 68.9926 16.3323C70.9421 19.0814 72.8917 21.8305 74.8412 24.5795C73.4874 24.5795 72.0794 24.5795 70.7255 24.5795C68.9384 22.1 67.2055 19.5665 65.3643 17.1409C65.3643 19.6204 65.3643 22.1 65.3643 24.5795C64.1729 24.5795 62.9273 24.5795 61.7359 24.5795C61.6818 19.5126 61.6818 14.3918 61.6818 9.27097ZM36.6625 12.1278C36.6083 15.3621 36.5 18.7041 35.3628 21.7226C37.0957 21.7226 38.7745 21.7226 40.5074 21.7226C40.5074 18.5423 40.5074 15.3081 40.5074 12.1278C39.2619 12.1278 37.9622 12.1278 36.6625 12.1278ZM33.5215 9.27097C37.0415 9.27097 40.6157 9.27097 44.1358 9.27097C44.1358 13.4215 44.1358 17.5721 44.1358 21.7226C44.6773 21.7226 45.2188 21.7226 45.7604 21.7226C45.7604 23.8249 45.7604 25.981 45.7604 28.0832C44.6231 28.0832 43.5401 28.0832 42.4028 28.0832C42.4028 26.8974 42.4028 25.7654 42.4028 24.5795C39.6951 24.5795 36.9332 24.5795 34.2255 24.5795C34.2255 25.7654 34.2255 26.8974 34.2255 28.0832C33.0883 28.0832 31.951 28.0832 30.868 28.0832C30.868 25.981 30.868 23.8249 30.868 21.7226C31.247 21.7226 31.572 21.7226 31.951 21.7226L32.0593 21.6687C32.655 20.3751 32.9258 19.0275 33.1424 17.626C33.5215 14.8769 33.5757 12.0739 33.5215 9.27097ZM17.2211 9.27097C18.4125 9.27097 19.658 9.27097 20.8494 9.27097C20.8494 11.2654 20.8494 13.3137 20.8494 15.3081C22.474 15.3081 24.0987 15.3081 25.7233 15.3081C25.7233 13.2598 25.7233 11.2654 25.7233 9.21707C26.9147 9.21707 28.1602 9.21707 29.3516 9.21707C29.3516 14.3379 29.3516 19.4587 29.3516 24.5256C28.1602 24.5256 26.9147 24.5256 25.7233 24.5256C25.7233 22.3695 25.7233 20.2673 25.7233 18.1111C24.0987 18.1111 22.474 18.1111 20.8494 18.1111C20.8494 20.2673 20.8494 22.3695 20.8494 24.5256C19.658 24.5256 18.4125 24.5256 17.2211 24.5256C17.2211 19.5126 17.2211 14.3918 17.2211 9.27097ZM76.845 10.7803C75.2745 12.2896 74.6788 14.5535 74.6246 16.7096C74.6246 18.758 74.8954 20.9141 76.141 22.5851C77.1699 23.9327 78.8487 24.6873 80.5275 24.9029C82.2604 25.0647 84.1558 25.0107 85.618 24.0405C85.618 23.0702 85.618 22.0461 85.618 21.0758C84.3183 21.9383 82.6395 22.3156 81.1232 21.9922C79.9859 21.7765 79.1194 20.8063 78.7945 19.7282C78.3071 18.165 78.3071 16.4401 78.5779 14.8769C78.8487 13.5832 79.7151 12.2896 81.069 12.02C82.6395 11.6966 84.2641 12.1278 85.618 12.8286C85.618 11.8044 85.618 10.7803 85.618 9.7561C84.4807 9.16317 83.1269 9.05536 81.8272 9.00146C80.0401 8.94755 78.1988 9.48659 76.845 10.7803ZM51.1217 12.9364C50.6343 13.7449 50.526 14.6613 50.4177 15.5777C52.0964 15.5777 53.8294 15.5777 55.5082 15.5777C55.5082 14.3918 55.454 13.0442 54.4251 12.2357C53.4503 11.5349 51.7715 11.8044 51.1217 12.9364ZM48.793 10.7264C50.0927 9.32487 52.1506 8.83975 54.046 9.00146C55.6706 9.10926 57.2953 9.86391 58.1617 11.3193C59.4614 13.3676 59.299 15.9011 59.299 18.2189C56.3746 18.2189 53.4503 18.2189 50.526 18.2189C50.6343 19.3509 50.8509 20.6446 51.8257 21.3453C52.6921 21.9922 53.8294 22.0461 54.8042 21.9922C56.3746 21.8844 57.8368 21.3992 59.1907 20.5907C59.1365 21.5609 59.2448 22.5851 59.1365 23.5554C57.4036 24.6873 55.1832 25.0107 53.1254 24.849C51.3924 24.7412 49.6595 24.0944 48.5223 22.7468C47.1142 21.0758 46.7352 18.758 46.7893 16.6557C46.7352 14.5535 47.2226 12.2896 48.793 10.7264ZM5.63205 3.77283C7.14837 3.39551 8.71884 3.39551 10.2352 3.39551C11.5349 3.39551 12.8346 3.39551 14.0801 3.39551C14.0801 10.4568 14.0801 17.5182 14.0801 24.5795C12.8346 24.5795 11.589 24.5795 10.3976 24.5795C10.3976 18.4884 10.3976 12.3974 10.3976 6.25238C8.66469 6.25238 6.76929 6.09067 5.36128 7.27655C3.84496 8.51632 3.89911 10.8342 4.65727 12.5052C5.6862 14.3918 7.68991 15.3081 9.36869 16.5479C7.63576 19.2431 5.79451 21.8844 4.00742 24.5795C2.65356 24.5795 1.35386 24.5795 0 24.5795C1.62463 22.2078 3.24926 19.7821 4.81973 17.4104C3.0868 16.1706 1.35386 14.6074 0.75816 12.5052C0.216617 10.5107 0.37908 8.24681 1.51632 6.468C2.4911 5.06651 4.06157 4.20406 5.63205 3.77283Z" fill="black"/>
<path fill-rule="evenodd" clip-rule="evenodd" d="M102.569 24.7414C105.114 21.0221 107.605 17.1949 110.15 13.4756C109.609 15.6317 109.067 17.7879 108.526 19.8901C109.988 20.5908 111.396 21.2916 112.804 22.0462C115.62 19.6206 118.328 17.0871 121.09 14.6615C120.927 19.8362 117.678 24.6875 112.966 26.8436C109.934 28.2451 106.36 28.5685 103.165 27.6522C99.7528 26.6819 96.7202 24.418 94.8789 21.3455C96.1786 19.6206 97.4783 17.8418 98.8322 16.1168C98.2906 18.273 97.7491 20.4291 97.2075 22.5853C98.9405 23.286 100.782 23.9867 102.569 24.7414Z" fill="black"/>
<path fill-rule="evenodd" clip-rule="evenodd" d="M100.564 1.50903C103.921 -0.215876 108.037 -0.485393 111.611 0.754384C115.402 2.04806 118.543 5.01275 120.005 8.67818C118.326 10.0797 116.702 11.4811 115.023 12.8287C115.51 10.5109 116.106 8.24695 116.593 5.92911C116.16 5.55178 115.456 5.44397 114.915 5.17446C113.669 4.68933 112.478 4.2042 111.232 3.71907C108.524 7.4384 105.871 11.2655 103.109 14.9849C103.488 13.2061 103.813 11.4272 104.192 9.64844C102.838 8.94769 101.43 8.24695 100.022 7.60011C99.8055 7.4384 99.6431 7.76182 99.5348 7.86963C97.3144 10.5109 95.1483 13.2061 92.8738 15.8473C92.603 13.3678 92.8738 10.7804 93.9027 8.46256C95.2566 5.49788 97.6394 2.96442 100.564 1.50903Z" fill="black"/>
</g>
<defs>
<clipPath id="clip0_2404_2078">
<rect width="219" height="29" fill="white"/>
</clipPath>
</defs>
</svg>
